<svg width="14" height="9" viewBox="0 0 14 9" fill="none" xmlns="http://www.w3.org/2000/svg">
<path d="M13.6674 1.00643L12.9936 0.332392C12.7601 0.110818 12.4874 0 12.1761 0C11.8584 0 11.5889 0.110818 11.3672 0.332392L7.00002 4.69971L2.63285 0.332517C2.41121 0.110944 2.14168 0.000126065 1.82408 0.000126065C1.51262 0.000126065 1.23996 0.110944 1.00643 0.332517L0.341456 1.00655C0.113777 1.23407 0 1.50673 0 1.82427C0 2.14772 0.113902 2.41729 0.341424 2.63291L6.19121 8.48273C6.40696 8.71028 6.67641 8.82415 6.99998 8.82415C7.31749 8.82415 7.59011 8.71032 7.81757 8.48273L13.6674 2.63291C13.8891 2.41121 14 2.14168 14 1.82427C14 1.51265 13.8891 1.24015 13.6674 1.00643Z" fill="#333333"/>
</svg>
