<svg width="12" height="7" viewBox="0 0 12 7" fill="none" xmlns="http://www.w3.org/2000/svg">
<path d="M0.316956 0.347749C0.752956 -0.0982512 1.35996 -0.133251 1.89296 0.347749L5.80096 4.09475L9.70896 0.347749C10.242 -0.133251 10.85 -0.0982512 11.283 0.347749C11.719 0.792749 11.691 1.54475 11.283 1.96275C10.877 2.38075 6.58796 6.46475 6.58796 6.46475C6.48582 6.5706 6.36341 6.65479 6.22802 6.71229C6.09263 6.7698 5.94705 6.79943 5.79996 6.79943C5.65286 6.79943 5.50728 6.7698 5.37189 6.71229C5.2365 6.65479 5.11409 6.5706 5.01196 6.46475C5.01196 6.46475 0.724956 2.38075 0.316956 1.96275C-0.0920442 1.54475 -0.119044 0.792749 0.316956 0.347749Z" fill="#838383"/>
</svg>
