<svg width="9" height="6" viewBox="0 0 9 6" fill="none" xmlns="http://www.w3.org/2000/svg">
<path d="M8.07428 1.48225L7.71299 1.12085C7.58779 1.00205 7.44157 0.942627 7.27465 0.942627C7.1043 0.942627 6.95981 1.00205 6.84095 1.12085L4.49936 3.46251L2.15777 1.12092C2.03894 1.00211 1.89442 0.942695 1.72413 0.942695C1.55713 0.942695 1.41093 1.00211 1.28572 1.12092L0.929175 1.48232C0.807098 1.60431 0.746094 1.7505 0.746094 1.92076C0.746094 2.09419 0.807166 2.23873 0.929158 2.35434L4.06569 5.49089C4.18137 5.6129 4.32584 5.67395 4.49934 5.67395C4.66958 5.67395 4.81575 5.61292 4.93771 5.49089L8.07426 2.35434C8.19311 2.23547 8.25258 2.09095 8.25258 1.92076C8.2526 1.75368 8.19313 1.60757 8.07428 1.48225Z" fill="white"/>
</svg>
