<svg width="22" height="22" viewBox="0 0 22 22" fill="none" xmlns="http://www.w3.org/2000/svg">
<path d="M22 3.28805H5.775L5.31069 0.587372H1.19964C0.536051 0.587372 0 1.12442 0 1.78751V2.98714H3.28904L5.40534 15.2969C5.45217 15.5679 5.71273 15.7876 5.98822 15.7876H20.2C20.8636 15.7876 21.4007 15.251 21.4007 14.5865V13.3878H7.51168L7.21925 11.687H18.2003C19.5255 11.687 20.7769 10.6269 20.9957 9.32061L22 3.28805Z" fill="#6EC045"/>
<path d="M9.69996 21.4132C10.8459 21.4132 11.7749 20.4842 11.7749 19.3382C11.7749 18.1922 10.8459 17.2632 9.69996 17.2632C8.55399 17.2632 7.625 18.1922 7.625 19.3382C7.625 20.4842 8.55399 21.4132 9.69996 21.4132Z" fill="#6EC045"/>
<path d="M14.8271 19.3377C14.8271 20.483 15.7553 21.4121 16.9006 21.4121C18.0469 21.4121 18.9771 20.483 18.9771 19.3377C18.9771 18.1924 18.0469 17.2622 16.9006 17.2622C15.7553 17.2622 14.8271 18.1929 14.8271 19.3377Z" fill="#6EC045"/>
</svg>
