<svg width="27" height="27" viewBox="0 0 27 27" fill="none" xmlns="http://www.w3.org/2000/svg">
<path d="M27 4.03542H7.0875L6.51766 0.720947H1.47228C0.65788 0.720947 0 1.38005 0 2.19384V3.66612H4.03655L6.63383 18.7735C6.6913 19.1061 7.01107 19.3758 7.34919 19.3758H24.791C25.6054 19.3758 26.2645 18.7173 26.2645 17.9016V16.4306H9.21889L8.85999 14.3432H22.3368C23.9631 14.3432 25.499 13.0421 25.7674 11.439L27 4.03542Z" fill="#6EC045"/>
<path d="M11.904 26.2798C13.3104 26.2798 14.4505 25.1397 14.4505 23.7333C14.4505 22.3269 13.3104 21.1868 11.904 21.1868C10.4975 21.1868 9.35742 22.3269 9.35742 23.7333C9.35742 25.1397 10.4975 26.2798 11.904 26.2798Z" fill="#6EC045"/>
<path d="M18.1973 23.7327C18.1973 25.1383 19.3363 26.2786 20.742 26.2786C22.1488 26.2786 23.2903 25.1383 23.2903 23.7327C23.2903 22.3271 22.1488 21.1855 20.742 21.1855C19.3363 21.1855 18.1973 22.3277 18.1973 23.7327Z" fill="#6EC045"/>
</svg>
