<svg width="21" height="22" viewBox="0 0 21 22" fill="none" xmlns="http://www.w3.org/2000/svg">
<path d="M20.6163 19.7646L15.5389 14.4839C16.8444 12.932 17.5597 10.9794 17.5597 8.94667C17.5597 4.19736 13.6956 0.333344 8.94633 0.333344C4.19702 0.333344 0.333008 4.19736 0.333008 8.94667C0.333008 13.696 4.19702 17.56 8.94633 17.56C10.7293 17.56 12.4284 17.0222 13.881 16.0014L18.997 21.3221C19.2108 21.5442 19.4984 21.6667 19.8066 21.6667C20.0983 21.6667 20.3751 21.5555 20.5852 21.3532C21.0316 20.9237 21.0458 20.2114 20.6163 19.7646ZM8.94633 2.5803C12.4568 2.5803 15.3127 5.43618 15.3127 8.94667C15.3127 12.4572 12.4568 15.313 8.94633 15.313C5.43584 15.313 2.57996 12.4572 2.57996 8.94667C2.57996 5.43618 5.43584 2.5803 8.94633 2.5803Z" fill="#6EC045"/>
</svg>
