<svg width="15" height="13" viewBox="0 0 15 13" fill="none" xmlns="http://www.w3.org/2000/svg">
<path d="M6.12248 11.704C6.10331 11.653 6.09671 11.6097 6.10321 11.5746C6.10968 11.5398 6.0874 11.5109 6.0363 11.4886C5.9852 11.4664 5.95971 11.4487 5.95971 11.4361C5.95971 11.4234 5.92308 11.4138 5.84967 11.4075C5.77629 11.4011 5.73967 11.3978 5.73967 11.3978H5.61536H5.51015H2.75504C2.33413 11.3978 1.97377 11.2481 1.67399 10.9481C1.37427 10.6484 1.22443 10.2881 1.22443 9.86727V3.13253C1.22443 2.71162 1.37424 2.35139 1.67399 2.05164C1.97377 1.75186 2.33413 1.60192 2.75504 1.60192H5.81623C5.89916 1.60192 5.96436 1.58135 6.01231 1.5398C6.06006 1.49835 6.09189 1.43613 6.1079 1.35323C6.12385 1.27034 6.13347 1.19549 6.13669 1.12851C6.13984 1.06159 6.1383 0.977023 6.13186 0.874995C6.12553 0.773001 6.12235 0.709239 6.12235 0.683606C6.12235 0.600711 6.09202 0.529107 6.03148 0.468394C5.97086 0.407948 5.89916 0.377625 5.81626 0.377625H2.75504C1.99618 0.377625 1.34723 0.647084 0.808278 1.18597C0.269459 1.72485 0 2.37371 0 3.13263V9.86724C0 10.6261 0.269459 11.2751 0.808278 11.8138C1.34723 12.353 1.99618 12.6224 2.75504 12.6224H5.81636C5.89929 12.6224 5.96453 12.6016 6.01244 12.5603C6.06019 12.5188 6.09202 12.4566 6.10804 12.3736C6.12399 12.2908 6.1336 12.2156 6.13682 12.1489C6.13997 12.0819 6.13843 11.9975 6.132 11.8955C6.1256 11.7934 6.12248 11.7296 6.12248 11.704Z" fill="#FF0000"/>
<path d="M14.8183 6.06953L9.61427 0.865333C9.49317 0.744308 9.34963 0.683594 9.18381 0.683594C9.01799 0.683594 8.87444 0.744308 8.75322 0.865333C8.63202 0.986526 8.57148 1.13017 8.57148 1.29589V4.051H4.28579C4.11987 4.051 3.97642 4.11171 3.85523 4.23274C3.73404 4.35393 3.67349 4.49747 3.67349 4.6633V8.33682C3.67349 8.50261 3.73404 8.64615 3.85523 8.76728C3.97656 8.88824 4.11997 8.94912 4.28579 8.94912H8.57151V11.7042C8.57151 11.8699 8.63206 12.0136 8.75325 12.1346C8.87444 12.2558 9.01798 12.3165 9.18384 12.3165C9.34963 12.3165 9.49317 12.2558 9.6143 12.1346L14.8183 6.93068C14.9395 6.80939 15.0001 6.66605 15.0001 6.50019C15.0001 6.3344 14.9395 6.19073 14.8183 6.06953Z" fill="#FF0000"/>
</svg>
