<svg width="35" height="35" viewBox="0 0 35 35" fill="none" xmlns="http://www.w3.org/2000/svg">
<g clip-path="url(#clip0)">
<circle cx="17.5" cy="17.5" r="17.5" fill="#F3F3F3"/>
<g clip-path="url(#clip1)">
<path d="M11.0973 19.8989L10.2967 22.8876L7.37052 22.9495C6.49603 21.3275 6 19.4718 6 17.4997C6 15.5927 6.46377 13.7944 7.28584 12.2109H7.28647L9.89158 12.6885L11.0328 15.278C10.7939 15.9744 10.6637 16.7219 10.6637 17.4997C10.6638 18.3439 10.8167 19.1527 11.0973 19.8989Z" fill="#FBBB00"/>
<path d="M28.7982 15.3516C28.9303 16.0472 28.9991 16.7657 28.9991 17.4999C28.9991 18.3232 28.9126 19.1263 28.7477 19.901C28.1878 22.5372 26.7251 24.8391 24.6987 26.468L24.698 26.4674L21.4168 26.3L20.9524 23.4009C22.297 22.6124 23.3478 21.3783 23.9013 19.901H17.752V15.3516H23.991H28.7982Z" fill="#518EF8"/>
<path d="M24.6994 26.4677L24.7001 26.4683C22.7293 28.0524 20.2258 29.0002 17.5006 29.0002C13.1211 29.0002 9.31347 26.5523 7.37109 22.9501L11.0979 19.8994C12.069 22.4913 14.5693 24.3364 17.5006 24.3364C18.7605 24.3364 19.9409 23.9958 20.9537 23.4012L24.6994 26.4677Z" fill="#28B446"/>
<path d="M24.8397 8.64752L21.1142 11.6975C20.066 11.0423 18.8268 10.6638 17.4993 10.6638C14.5017 10.6638 11.9547 12.5935 11.0321 15.2783L7.28579 12.2113H7.28516C9.1991 8.52115 13.0547 6 17.4993 6C20.2896 6 22.8481 6.99394 24.8397 8.64752Z" fill="#F14336"/>
</g>
</g>
<defs>
<clipPath id="clip0">
<rect width="35" height="35" fill="white"/>
</clipPath>
<clipPath id="clip1">
<rect x="6" y="6" width="23" height="23" fill="white"/>
</clipPath>
</defs>
</svg>
