<svg width="22" height="22" viewBox="0 0 22 22" fill="none" xmlns="http://www.w3.org/2000/svg">
<path d="M14.7488 4.37762C13.9365 4.37762 8.00611 4.37762 7.28828 4.37762C2.3645 4.37762 -0.457498 17.6224 3.22613 17.6224C6.33335 17.6224 6.75169 13.7492 11.007 13.7492C14.4487 13.7492 16.4691 17.5737 18.7652 17.5737C22.4459 17.5737 19.6732 4.37762 14.7488 4.37762ZM7.32096 10.9991C5.9578 10.9991 4.85313 9.89445 4.85313 8.53307C4.85313 7.17288 5.9578 6.06821 7.32096 6.06821C8.68294 6.06821 9.78701 7.17288 9.78701 8.53307C9.78701 9.89385 8.68234 10.9991 7.32096 10.9991ZM13.4421 8.92348C13.0398 8.7981 12.8152 8.36966 12.943 7.96617C13.0683 7.56448 13.4968 7.34045 13.8997 7.46702C14.302 7.59122 14.5284 8.01966 14.4006 8.42195C14.274 8.82721 13.8456 9.04886 13.4421 8.92348ZM15.7543 10.7531C15.5629 11.3669 14.9093 11.7104 14.2942 11.5167C13.6804 11.3254 13.3387 10.6717 13.5318 10.0567C13.7232 9.44283 14.378 9.09937 14.9919 9.29309C15.6057 9.48562 15.9468 10.1399 15.7543 10.7531ZM15.3151 8.07076C14.7488 7.89071 14.4333 7.28638 14.6104 6.72126C14.7892 6.15378 15.3924 5.83705 15.9593 6.01651C16.5268 6.19299 16.8423 6.79733 16.6628 7.36422C16.4875 7.93052 15.8838 8.24843 15.3151 8.07076ZM17.4288 9.63893C17.2999 10.043 16.8726 10.2658 16.4703 10.1405C16.0686 10.0151 15.8434 9.58664 15.9688 9.18197C16.0965 8.77908 16.5262 8.55624 16.9261 8.68044C17.3302 8.8076 17.5542 9.23485 17.4288 9.63893ZM8.56706 8.56991C8.56706 9.27348 7.99898 9.84216 7.29719 9.84216C6.59422 9.84216 6.02614 9.27348 6.02614 8.56991C6.02614 7.86991 6.59422 7.30004 7.29719 7.30004C7.99898 7.30004 8.56706 7.86991 8.56706 8.56991Z" fill="white"/>
</svg>
