<svg width="140" height="43" viewBox="0 0 140 43" fill="none" xmlns="http://www.w3.org/2000/svg">
<path d="M16.3178 12.9287C4.42985 12.9287 2.13267 18.8062 2.67907 26.5674C3.2911 35.1622 16.3178 40.2012 16.3178 40.2012C16.3178 40.2012 29.3461 35.1556 29.9581 26.5609C30.5111 18.8062 28.1992 12.9287 16.3178 12.9287Z" fill="black"/>
<path d="M15.3785 42.6354C12.7238 41.5527 10.2058 40.1609 7.87659 38.489C5.76811 36.9647 4.05506 35.3238 2.78997 33.6124C1.15733 31.4301 0.249939 29.1214 0.0809314 26.7455C-0.30959 21.2651 0.706094 17.4238 3.28222 14.6623C6.00111 11.7416 10.2673 10.3223 16.322 10.3223C22.3768 10.3223 26.643 11.7416 29.3618 14.6623C31.9314 17.4238 32.9471 21.2651 32.5566 26.7455C32.3925 29.1149 31.4802 31.4235 29.859 33.6075C28.589 35.3189 26.876 36.9598 24.7724 38.4841C22.4417 40.1563 19.922 41.5481 17.2655 42.6305L16.3253 42.9948L15.3785 42.6354Z" fill="white"/>
<path d="M17.2593 42.6351C19.9158 41.5527 22.4354 40.1609 24.7661 38.4887C26.8746 36.9644 28.5877 35.3235 29.8528 33.6121C31.4739 31.4282 32.3829 29.1195 32.5503 26.7501C32.9408 21.2631 31.9252 17.4219 29.3523 14.6604C26.6334 11.7396 22.3672 10.3203 16.3125 10.3203V42.9994L17.2593 42.6351Z" fill="#F8B75C"/>
<path d="M15.7775 41.6115C15.2098 41.3916 1.85169 36.113 1.17402 26.6798C0.811391 21.5128 1.73355 17.9341 4.08488 15.4105C6.58389 12.726 10.5876 11.4199 16.3207 11.4199C22.0538 11.4199 26.0575 12.7326 28.5581 15.4105C30.9078 17.9341 31.8316 21.5128 31.464 26.6749C30.7913 36.113 17.4332 41.3933 16.8605 41.6066L16.3157 41.8166L15.7775 41.6115Z" fill="#014C1E"/>
<path d="M16.3178 12.9287C4.42985 12.9287 2.13267 18.8062 2.67907 26.5674C3.2911 35.1622 16.3178 40.2012 16.3178 40.2012C16.3178 40.2012 29.3461 35.1556 29.9581 26.5609C30.5111 18.8062 28.1992 12.9287 16.3178 12.9287Z" fill="#BE5B34"/>
<path d="M16.3173 12.9287C7.75204 12.9287 6.08494 17.3163 6.48367 23.102C6.92505 29.516 16.3173 33.2752 16.3173 33.2752C16.3173 33.2752 25.7095 29.5013 26.1508 23.102C26.5496 17.3163 24.8825 12.9287 16.3173 12.9287Z" fill="#D36D3B"/>
<path d="M15.1719 34.7624C20.2421 34.9265 21.0395 37.286 17.1836 39.8392C17.5216 40.4414 18.0171 40.2068 18.0171 40.2068L25.8702 35.0102C25.8702 35.0102 18.8507 33.7106 15.1719 34.7624Z" fill="#014C1E"/>
<path d="M8.21484 15.119C10.5291 15.6474 12.8968 15.9056 15.2705 15.8885C17.6442 15.9056 20.0119 15.6474 22.3261 15.119C20.49 13.7292 18.1699 12.9629 15.2738 12.9629C12.3777 12.9629 10.0575 13.7292 8.21484 15.119Z" fill="#BE5B34"/>
<path d="M9.16016 13.947C11.5375 14.199 13.9269 14.3206 16.3175 14.3113C18.7082 14.3206 21.0975 14.199 23.4749 13.947C21.606 13.2907 19.2546 12.9297 16.3175 12.9297C13.3804 12.9297 11.0291 13.2907 9.16016 13.947Z" fill="#D36D3B"/>
<path d="M31.0953 20.5438C31.1428 22.2125 30.9774 23.8805 30.6031 25.5073C29.5644 26.4919 28.3732 27.0432 27.0966 27.0317C22.7844 26.9972 19.1221 20.5897 18.9153 12.7202C18.8366 9.71092 19.2747 6.92476 20.0869 4.63086C26.1367 5.97635 30.8886 12.6054 31.0953 20.5438Z" fill="#014C1E"/>
<path d="M30.7614 22.4946C30.5563 21.8481 31.2356 21.2213 30.9025 20.6273C30.7958 17.8855 30.4759 15.2453 29.1386 12.9629C28.0189 10.9977 26.4225 9.34607 24.4966 8.16016L20.5094 14.3609L16.5385 14.6366L14.6548 14.9533L3.13281 25.5777L3.17712 26.1077C3.19188 26.2849 3.21321 26.472 3.24439 26.682L3.25916 26.8067V26.8412C3.48175 28.3879 4.03081 29.8697 4.86988 31.188C5.70896 32.5063 6.81886 33.631 8.12591 34.4875C9.54852 35.4064 11.0089 35.8724 12.4643 35.8724C13.2422 35.8742 14.0138 35.7324 14.7402 35.454L15.3784 35.3227C17.6756 34.5926 19.0146 35.5541 20.9179 35.3457C22.5719 35.1652 23.4678 36.537 24.8035 36.537C25.8667 36.537 28.1393 33.6359 28.1393 33.6359L27.355 33.6655C30.6613 30.7907 31.9953 26.4064 30.7614 22.4946Z" fill="#014C1E"/>
<path d="M30.835 22.5932C29.2811 17.6707 23.6727 15.0601 18.3087 16.7551C12.9448 18.4501 9.85509 23.8107 11.4172 28.7333C12.1031 30.9074 15.2929 32.1364 17.1913 33.2374C18.0035 33.7083 24.5883 37.2657 27.8273 32.4055C30.6545 29.936 31.9589 26.1489 30.835 22.5932Z" fill="#D36D3B"/>
<path d="M28.0756 17.8854C28.3843 19.2918 28.504 20.7332 28.4317 22.1713C27.6671 23.164 26.6973 23.8121 25.5619 23.9992C21.7288 24.6276 17.4512 19.7494 16.0088 13.1056C15.4575 10.5656 15.4001 8.13547 15.7512 6.07129C21.34 6.28296 26.6202 11.1825 28.0756 17.8854Z" fill="#014C1E"/>
<path d="M29.6987 20.2916C28.6338 14.4141 20.103 12.9882 20.3065 14.7439L15.2593 15.5873L4.59375 25.4324C4.90387 29.1522 7.60634 31.7398 10.8831 33.2379C11.5055 32.8545 12.1789 32.5606 12.8833 32.365L17.1495 31.8727C17.1495 31.8727 26.417 33.064 28.0579 31.3296C29.9481 29.3426 31.0114 26.7156 30.78 23.9261C30.6762 22.6526 30.3079 21.4148 29.6987 20.2916Z" fill="#D36D3B"/>
<path d="M20.1368 20.0838L19.8086 20.115C21.1243 20.0314 22.4452 20.0952 23.7466 20.3053C22.5604 20.0572 21.3444 19.9826 20.1368 20.0838Z" fill="#D36D3B"/>
<path d="M30.1827 21.4177C30.1823 22.9786 29.9737 24.5325 29.5625 26.0383C28.5222 26.9129 27.3457 27.374 26.1003 27.3067C21.8965 27.0803 18.5016 20.9238 18.5196 13.5548C18.5196 10.7374 19.0315 8.15146 19.8881 6.04297C25.7508 7.56896 30.1926 13.983 30.1827 21.4177Z" fill="#D36D3B"/>
<path d="M11.0078 23.2035C11.0078 23.2035 12.4206 22.3486 19.4943 25.6893C21.1729 26.4819 27.7871 22.552 22.9597 18.2366C19.0545 18.7633 17.6828 17.7969 17.6828 17.7969L11.0078 23.2035Z" fill="#BE5B34"/>
<path d="M24.6602 18.0166C24.6602 18.0166 29.8731 22.7882 24.6602 26.3193C27.1214 26.1765 30.0192 25.1494 29.01 22.1466C28.0009 19.1439 24.6602 18.0166 24.6602 18.0166Z" fill="#BE5B34"/>
<path d="M19.9462 19.6037C20.1053 20.0347 20.1738 20.4938 20.1474 20.9524C20.1209 21.4111 20 21.8593 19.7923 22.269C19.5846 22.6788 19.2946 23.0412 18.9403 23.3337C18.5861 23.6262 18.1753 23.8424 17.7336 23.9688C17.2919 24.0952 16.8289 24.129 16.3736 24.0682C15.9183 24.0074 15.4804 23.8532 15.0874 23.6154C14.6944 23.3775 14.3547 23.0611 14.0896 22.6859C13.8245 22.3107 13.6398 21.8848 13.5469 21.4349L19.3227 18.5273C19.5963 18.8438 19.8078 19.2089 19.9462 19.6037Z" fill="#014C1E"/>
<path d="M7.93459 22.749L12.862 30.2149L4.625 25.4285L7.93459 22.749Z" fill="#F79E53"/>
<path d="M16.9998 22.575C17.3472 22.5104 17.5766 22.1763 17.512 21.8289C17.4474 21.4814 17.1133 21.2521 16.7659 21.3166C16.4184 21.3812 16.1891 21.7153 16.2537 22.0627C16.3183 22.4102 16.6523 22.6395 16.9998 22.575Z" fill="white"/>
<path d="M21.8233 31.0989C21.8233 31.0989 23.7365 31.5518 26.4652 30.9053C23.9039 33.3091 21.3442 34.5151 17.1797 33.2336C18.8133 32.7256 20.3741 32.0081 21.8233 31.0989Z" fill="#BE5B34"/>
<path d="M21.1874 31.4029C21.1874 31.4029 22.4705 32.8567 25.0516 33.851C21.5894 34.4155 17.1755 34.5533 16.1992 30.5693C17.818 31.0654 19.4952 31.3457 21.1874 31.4029Z" fill="#BE5B34"/>
<path d="M15.7831 21.764C15.9568 21.7317 16.0715 21.5647 16.0392 21.391C16.0069 21.2173 15.8399 21.1026 15.6661 21.1349C15.4924 21.1672 15.3777 21.3342 15.41 21.5079C15.4423 21.6817 15.6094 21.7963 15.7831 21.764Z" fill="white"/>
<path d="M6.21296 24.6553L4.55078 25.7202L4.6279 26.3765C4.84979 27.7968 5.375 29.1526 6.1678 30.3517C6.9606 31.5508 8.00238 32.5651 9.22227 33.3255C10.1264 33.9014 14.8832 33.593 15.6577 33.1992C12.248 31.6436 6.21296 24.6553 6.21296 24.6553Z" fill="#F79E53"/>
<path d="M27.1554 17.7412C26.4712 14.4054 24.2282 11.7357 21.4125 11.0039C20.8766 12.3892 20.6082 13.8636 20.6216 15.3489C20.6216 15.4506 20.6216 15.5523 20.6216 15.6541C22.9568 15.6959 25.2284 16.4215 27.1554 17.7412Z" fill="#014C1E"/>
<path d="M6.43283 24.4189L4.55078 25.433L4.6279 26.3748C4.82275 27.7396 5.30585 29.0472 6.04509 30.2108C6.78434 31.3744 7.7628 32.3674 8.91543 33.1236C12.2414 35.2715 14.9176 33.9998 15.656 33.1975C12.248 31.6436 6.43283 24.4189 6.43283 24.4189Z" fill="#F79E53"/>
<path d="M18.0749 17.8886L16.6392 17.5703L11.0078 23.2033L18.0749 17.8886Z" fill="#F79E53"/>
<path d="M18.882 27.6875C16.5159 28.672 15.0753 29.4088 12.3186 28.7163C10.22 28.1896 7.67012 26.0335 6.43785 24.4189C6.21961 24.6552 5.8734 24.8472 5.71587 25.0753C2.29963 29.9978 12.5795 33.7537 13.6395 33.8489C14.4419 33.9211 13.4886 32.4968 15.1786 33.5453C16.6981 32.4476 20.5278 33.4863 22.3393 31.9898C24.6611 30.0667 22.9825 25.9679 18.882 27.6875Z" fill="#F79E53"/>
<path d="M9.04932 28.2293C9.26853 28.0945 9.33691 27.8074 9.20205 27.5882C9.06719 27.369 8.78017 27.3007 8.56097 27.4355C8.34176 27.5704 8.27338 27.8574 8.40824 28.0766C8.5431 28.2958 8.83012 28.3642 9.04932 28.2293Z" fill="#014C1E"/>
<path d="M10.9589 26.9786C11.1776 26.8448 11.2465 26.5589 11.1126 26.3402C10.9788 26.1214 10.693 26.0526 10.4742 26.1864C10.2555 26.3202 10.1866 26.6061 10.3204 26.8248C10.4543 27.0436 10.7401 27.1124 10.9589 26.9786Z" fill="#014C1E"/>
<path d="M9.24464 26.2713C9.46384 26.1365 9.53222 25.8494 9.39736 25.6302C9.26251 25.411 8.97548 25.3426 8.75628 25.4775C8.53708 25.6124 8.4687 25.8994 8.60355 26.1186C8.73841 26.3378 9.02543 26.4062 9.24464 26.2713Z" fill="#014C1E"/>
<path d="M20.3476 14.7451C20.1835 14.7747 15.8845 16.1366 15.8845 16.1366L6.57597 24.3408L4.625 25.4336L15.2872 15.5885L20.3476 14.7451Z" fill="#F8B75C"/>
<path d="M19.9582 13.7207L23.4745 13.9455L20.5932 15.3287L23.4745 15.1171L21.5203 16.5118L19.4922 15.8128L19.9582 13.7207Z" fill="#D36D3B"/>
<path d="M4.65357 27.9036C4.77608 28.1218 4.95839 28.3004 5.17904 28.4185C5.39969 28.5365 5.64948 28.589 5.89898 28.5698L6.31739 24.8828L4.21875 25.9149L4.27782 26.4154C4.35385 26.9226 4.47971 27.4211 4.65357 27.9036Z" fill="#014C1E"/>
<path d="M22.2944 9.00293C22.2944 9.00293 20.7947 11.0458 20.7422 13.635C21.6315 13.5382 22.2583 12.5029 22.2583 12.5029C22.2583 12.5029 22.2222 10.9933 22.2944 9.00293Z" fill="#014C1E"/>
<path d="M25.0507 30.4198C26.6078 29.4796 28.7459 29.048 29.5712 28.605C31.2367 27.7124 31.386 27.0396 31.4467 24.5554C31.5386 20.7617 28.4735 18.7862 24.6602 18.0166C27.1559 19.2932 29.1807 20.4647 29.3513 24.1698C29.5056 27.5302 27.1936 29.2941 25.0507 30.4198Z" fill="#014C1E"/>
<path d="M11.0078 23.2038L17.6811 17.7988L18.8511 19.2936L11.0078 23.2038Z" fill="#014C1E"/>
<path d="M22.9606 18.2369L17.6836 17.7988L18.8535 19.2936L22.9606 18.2369Z" fill="#014C1E"/>
<path d="M25.0508 30.4195L30.4377 29.6631L31.1006 27.8943L31.2368 24.9014L29.0955 27.6613L26.6785 29.563L25.0508 30.4195Z" fill="#014C1E"/>
<path d="M15.4961 32.9904C15.4961 32.9904 18.3922 29.4708 19.2405 29.0917C19.7656 28.8571 20.3202 28.7373 20.8206 28.8883C21.9331 29.2165 22.0956 31.1559 19.508 31.3282C17.6046 31.4546 15.4961 32.9904 15.4961 32.9904Z" fill="#014C1E"/>
<path d="M30.4006 28.7357C30.3776 29.9811 27.603 32.7689 25.25 32.8214C25.8062 33.5221 26.4396 33.8404 27.1222 33.8059C31.7117 29.6218 30.4105 28.2402 30.4006 28.7357Z" fill="#014C1E"/>
<path d="M15.4961 32.9912L18.0312 30.6547C18.5628 30.1624 19.7639 29.5536 20.4547 29.785C21.5311 30.0771 21.6312 31.2847 19.2339 31.4439C17.4585 31.562 15.4961 32.9912 15.4961 32.9912Z" fill="white"/>
<path d="M14.0391 5.83679L14.8825 2.70605L14.866 4.3912L15.4945 3.9613V4.75055L15.4814 6.19121L16.9795 4.75875H17.2518L17.2289 7.71228H16.4527L16.4659 6.26833L14.9694 7.70243H14.7003L14.7233 5.3232L14.0391 5.83679Z" fill="#014C1E"/>
<path d="M16.6484 6.93395L18.432 1.96875L18.181 4.70076L19.2574 4.08708L19.1392 5.3653H19.1507L18.9358 7.70023L21.868 5.26029C21.868 5.26029 20.8605 8.24663 20.3059 10.2764L20.5208 7.93487L17.4328 10.406L17.8216 6.16603L16.6484 6.93395Z" fill="#F79E53"/>
<path d="M15.4951 32.9908C15.29 33.2566 15.523 33.9622 16.8356 33.063C17.4657 33.0121 18.0728 32.9908 18.0728 32.9908L18.2812 32.3574C18.2812 32.3574 15.9332 32.4247 15.4951 32.9908Z" fill="#F79E53"/>
<path d="M18.8527 32.3623C18.8527 32.3623 16.0633 33.122 15.507 33.122C15.1182 33.7882 16.8066 34.5069 17.1184 33.209L18.8527 32.3623Z" fill="#F79E53"/>
<path d="M45.0945 20.8178V24.0995H50.0991V27.053H45.0945V33.3752H41.8555V17.8232H50.9031V20.8161L45.0945 20.8178Z" fill="white"/>
<path d="M61.807 17.8232V28.4789C61.8179 29.1923 61.6926 29.9012 61.4378 30.5677C61.2082 31.1616 60.8585 31.7017 60.4107 32.1544C59.9668 32.597 59.4337 32.9399 58.8469 33.1602C57.4538 33.6475 55.9321 33.6195 54.5578 33.0815C53.9584 32.824 53.427 32.4308 53.0055 31.9329C52.5974 31.438 52.2968 30.8635 52.1228 30.2461C51.9348 29.5927 51.8408 28.9159 51.8438 28.2361V17.8232H55.0599V28.3247C55.0382 28.8482 55.1829 29.3652 55.4734 29.8014C55.749 30.1887 56.2068 30.3823 56.8468 30.3823C57.0743 30.3849 57.2999 30.3412 57.5101 30.254C57.7202 30.1668 57.9105 30.0378 58.0693 29.8749C58.2281 29.7119 58.3521 29.5184 58.4339 29.3061C58.5157 29.0938 58.5535 28.8671 58.545 28.6397V17.8232H61.807Z" fill="white"/>
<path d="M71.6108 33.3719L68.7295 28.1901L67.0312 24.9084L66.9639 24.9314V33.3752H63.7266V17.8232H66.5849L69.1315 22.4701L71.1645 26.2227L71.2318 26.1998V17.8232H74.4479V33.3719H71.6108Z" fill="white"/>
<path d="M81.6648 17.8228C82.5904 17.7955 83.5086 17.9949 84.3394 18.4036C85.0767 18.7909 85.6165 19.4314 85.9589 20.3251C86.187 20.9448 86.3118 21.5978 86.3281 22.258C86.3653 23.0237 86.3839 23.8764 86.3839 24.8161C86.3839 26.1714 86.3762 27.32 86.3609 28.2618C86.365 29.0865 86.2273 29.9057 85.954 30.6837C85.7876 31.1587 85.5338 31.5983 85.2058 31.98C84.9078 32.3191 84.5474 32.5976 84.1442 32.8004C83.7289 33.0055 83.2871 33.1518 82.8315 33.2353C82.3489 33.326 81.8589 33.3711 81.3678 33.3698H76.5273V17.8228H81.6648ZM83.1613 24.2844C83.1619 23.8515 83.1394 23.4188 83.094 22.9882C83.0586 22.6074 82.9645 22.2343 82.8151 21.8822C82.6837 21.5744 82.4667 21.3107 82.1899 21.1225C81.8574 20.9213 81.4722 20.8241 81.084 20.8436H79.745V30.3818H81.1069C81.9263 30.3818 82.4732 30.1734 82.7478 29.7567C83.0224 29.3399 83.1602 28.7667 83.1613 28.0371V24.2844Z" fill="#F8B75C"/>
<path d="M98.0844 17.8232V28.4789C98.0953 29.1923 97.97 29.9012 97.7152 30.5677C97.4855 31.1616 97.1359 31.7017 96.688 32.1544C96.2442 32.597 95.7111 32.9399 95.1243 33.1602C93.7311 33.6475 92.2095 33.6195 90.8351 33.0815C90.2357 32.824 89.7043 32.4308 89.2829 31.9329C88.8748 31.438 88.5741 30.8635 88.4001 30.2461C88.2121 29.5927 88.1182 28.9159 88.1212 28.2361V17.8232H91.3372V28.3247C91.3155 28.8482 91.4603 29.3652 91.7507 29.8014C92.0264 30.1887 92.4842 30.3823 93.1241 30.3823C93.3516 30.3849 93.5773 30.3412 93.7874 30.254C93.9976 30.1668 94.1878 30.0378 94.3466 29.8749C94.5054 29.7119 94.6295 29.5184 94.7112 29.3061C94.793 29.0938 94.8308 28.8671 94.8224 28.6397V17.8232H98.0844Z" fill="#F8B75C"/>
<path d="M103.375 23.5872C103.509 23.3936 103.643 23.1814 103.777 22.9506C103.91 22.7198 104.104 22.3987 104.359 21.9874C104.612 21.5783 104.95 21.0461 105.375 20.3909C105.799 19.7356 106.369 18.8791 107.085 17.8213H110.923L106.589 24.1878C107.364 25.7192 108.138 27.2507 108.913 28.7821C109.687 30.3136 110.469 31.8451 111.257 33.3765H107.601C107.081 32.3472 106.578 31.3178 106.094 30.2884C105.609 29.2591 105.106 28.2243 104.586 27.184L103.273 29.217V33.3716H100.027V17.8229H103.266V23.5872H103.375Z" fill="#F8B75C"/>
<path d="M112.27 33.3722V29.8428H115.664V33.3722H112.27Z" fill="#F8B75C"/>
<path d="M126.922 17.8232V28.4789C126.933 29.1923 126.808 29.9012 126.553 30.5677C126.323 31.1641 125.973 31.7065 125.524 32.161C125.08 32.6035 124.547 32.9464 123.96 33.1668C122.567 33.654 121.045 33.6261 119.671 33.088C119.072 32.8306 118.54 32.4374 118.119 31.9394C117.711 31.4445 117.41 30.8701 117.236 30.2527C117.048 29.5993 116.954 28.9225 116.957 28.2426V17.8232H120.173V28.3247C120.151 28.8482 120.296 29.3652 120.587 29.8014C120.862 30.1887 121.32 30.3823 121.96 30.3823C122.188 30.3849 122.413 30.3412 122.623 30.254C122.834 30.1668 123.024 30.0378 123.183 29.8749C123.341 29.7119 123.465 29.5184 123.547 29.3061C123.629 29.0938 123.667 28.8671 123.658 28.6397V17.8232H126.922Z" fill="#F8B75C"/>
<path d="M135.547 30.1919H131.86C131.725 30.7137 131.588 31.2426 131.446 31.7786C131.305 32.3146 131.16 32.8435 131.012 33.3653H127.594L132.09 17.8232H135.306L139.795 33.3719H136.307L135.547 30.1919ZM133.023 25.0758L132.582 27.3172H134.815L134.387 25.1053L133.762 22.0008H133.65L133.023 25.0758Z" fill="#F8B75C"/>
</svg>
