<svg width="11" height="11" viewBox="0 0 11 11" fill="none" xmlns="http://www.w3.org/2000/svg">
<path d="M10.3841 9.78694L7.90058 7.20397C8.53914 6.44489 8.889 5.48981 8.889 4.49553C8.889 2.17248 6.99899 0.282471 4.67595 0.282471C2.3529 0.282471 0.462891 2.17248 0.462891 4.49553C0.462891 6.81857 2.3529 8.70858 4.67595 8.70858C5.54805 8.70858 6.37912 8.44554 7.08966 7.9462L9.59203 10.5488C9.69663 10.6574 9.83731 10.7173 9.98806 10.7173C10.1308 10.7173 10.2661 10.6629 10.3689 10.564C10.5872 10.3539 10.5942 10.0055 10.3841 9.78694ZM4.67595 1.38153C6.39304 1.38153 7.78995 2.77843 7.78995 4.49553C7.78995 6.21262 6.39304 7.60953 4.67595 7.60953C2.95885 7.60953 1.56195 6.21262 1.56195 4.49553C1.56195 2.77843 2.95885 1.38153 4.67595 1.38153Z" fill="#838383"/>
</svg>
