<svg width="14" height="14" viewBox="0 0 14 14" fill="none" xmlns="http://www.w3.org/2000/svg">
<path d="M6.07808 5.43561C6.61813 4.84984 6.91568 4.06411 6.91568 3.22292C6.91568 1.62133 5.7717 0 3.58487 0C2.56716 0 1.7086 0.349555 1.10188 1.01085C0.564449 1.5967 0.268555 2.38226 0.268555 3.22292C0.268555 4.82469 1.40769 6.44593 3.58487 6.44593C4.60638 6.44598 5.46869 6.09669 6.07808 5.43561ZM3.58487 1.49855C4.78307 1.49855 5.32876 2.393 5.32876 3.22406C5.32876 3.67613 5.17664 4.09463 4.90018 4.40231C4.59175 4.74597 4.14352 4.92769 3.6043 4.92769C2.37579 4.92769 1.81614 4.03333 1.81614 3.20236C1.81614 2.35441 2.36313 1.49855 3.58487 1.49855Z" fill="#6EC045"/>
<path d="M11.5387 1.24327C11.3405 1.24685 11.07 1.37041 10.9374 1.51777L1.09975 12.4555C0.96724 12.603 1.06111 12.8097 1.25929 12.8097H2.54687C2.74505 12.8097 3.01536 12.6888 3.14766 12.5412L12.9245 1.60571C13.0567 1.458 13.048 1.21769 12.7205 1.21777L11.5387 1.24327Z" fill="#6EC045"/>
<path d="M10.4631 7.67664C9.46508 7.67664 8.62281 8.01973 8.02757 8.66841C7.5004 9.24291 7.20996 10.0137 7.20996 10.8384C7.20996 12.4095 8.32744 14 10.4632 14C11.4655 14 12.3112 13.6572 12.9091 13.0088C13.4389 12.4341 13.7307 11.6633 13.7307 10.8384C13.7307 9.26723 12.6084 7.67664 10.4631 7.67664ZM10.4824 12.5491C9.2872 12.5491 8.74261 11.6516 8.74261 10.818C8.74261 10.3641 8.89464 9.94399 9.17089 9.63512C9.47884 9.29046 9.92567 9.1083 10.4632 9.1083C11.6585 9.1083 12.2028 10.0057 12.2028 10.8395C12.2028 11.2934 12.0508 11.7135 11.7747 12.0224C11.4667 12.3669 11.0198 12.5491 10.4824 12.5491Z" fill="#6EC045"/>
</svg>
