<svg width="14" height="14" viewBox="0 0 14 14" fill="none" xmlns="http://www.w3.org/2000/svg">
<path d="M13.9749 12.1771L13.1054 8.69892C13.0918 8.64467 13.0706 8.59402 13.0436 8.54747C13.0933 8.40957 13.1206 8.26098 13.1206 8.10618V2.37272C13.1206 1.65379 12.5358 1.06885 11.8168 1.06885H2.18275C1.4637 1.06885 0.878818 1.65376 0.878818 2.37272V8.10612C0.878818 8.26095 0.906086 8.40954 0.955913 8.54744C0.928899 8.59402 0.907549 8.64461 0.894027 8.69886L0.0174378 12.2051C-0.0261848 12.3796 0.0130469 12.5646 0.123806 12.7064C0.234533 12.8483 0.404441 12.9312 0.584436 12.9312H13.4151C13.4152 12.9312 13.4155 12.9312 13.4156 12.9312C13.7384 12.9312 14 12.6695 14 12.3468C14 12.2878 13.9912 12.2308 13.9749 12.1771ZM8.4807 12.0176C8.48058 12.0176 8.48042 12.0176 8.48019 12.0176H5.51917C5.485 12.0176 5.45254 12.0024 5.43068 11.9762C5.40876 11.95 5.39957 11.9154 5.40564 11.8817L5.63639 10.6012C5.64628 10.5462 5.69411 10.5063 5.74991 10.5063H8.24951C8.30532 10.5063 8.35314 10.5462 8.36298 10.6012L8.59181 11.8714C8.59452 11.8813 8.59598 11.8916 8.59598 11.9022C8.59608 11.9659 8.5444 12.0176 8.4807 12.0176ZM11.9817 8.10618C11.9817 8.17281 11.942 8.23018 11.885 8.25627H2.11438C2.05736 8.23024 2.01756 8.17281 2.01756 8.10618V2.37272C2.01756 2.28169 2.09166 2.20765 2.18272 2.20765H11.8167C11.9077 2.20765 11.9818 2.28169 11.9818 2.37272L11.9817 8.10618Z" fill="#6EC045"/>
</svg>
