<svg width="14" height="14" viewBox="0 0 14 14" fill="none" xmlns="http://www.w3.org/2000/svg">
<path d="M9.77456 2.0979C9.17327 2.0979 4.78344 2.0979 4.25209 2.0979C0.607391 2.0979 -1.48151 11.902 1.24519 11.902C3.54523 11.902 3.85489 9.03497 7.00475 9.03497C9.55243 9.03497 11.048 11.8659 12.7476 11.8659C15.4721 11.8659 13.4197 2.0979 9.77456 2.0979ZM4.27628 6.99929C3.26724 6.99929 2.44953 6.18158 2.44953 5.17386C2.44953 4.16701 3.26724 3.34931 4.27628 3.34931C5.28445 3.34931 6.10171 4.16701 6.10171 5.17386C6.10171 6.18114 5.28401 6.99929 4.27628 6.99929ZM8.8073 5.46285C8.50952 5.37004 8.34325 5.0529 8.43782 4.75423C8.53063 4.45688 8.84777 4.29105 9.146 4.38474C9.44378 4.47668 9.61137 4.79382 9.5168 5.0916C9.42311 5.39159 9.10597 5.55566 8.8073 5.46285ZM10.5188 6.81718C10.3772 7.27156 9.89332 7.5258 9.43807 7.38241C8.98369 7.24077 8.73077 6.75692 8.87372 6.30166C9.01536 5.84729 9.50009 5.59305 9.95447 5.73644C10.4088 5.87896 10.6613 6.36325 10.5188 6.81718ZM10.1938 4.83164C9.77456 4.69837 9.54099 4.25103 9.67207 3.83272C9.80447 3.41265 10.2509 3.1782 10.6706 3.31104C11.0906 3.44168 11.3242 3.88902 11.1914 4.30865C11.0616 4.72784 10.6147 4.96316 10.1938 4.83164ZM11.7583 5.99244C11.6629 6.29155 11.3466 6.4565 11.0488 6.36369C10.7515 6.27087 10.5848 5.95373 10.6776 5.65419C10.7722 5.35596 11.0902 5.19101 11.3862 5.28294C11.6853 5.37707 11.8512 5.69334 11.7583 5.99244ZM5.19867 5.20113C5.19867 5.72193 4.77817 6.14287 4.25869 6.14287C3.73833 6.14287 3.31782 5.72193 3.31782 5.20113C3.31782 4.68297 3.73833 4.26114 4.25869 4.26114C4.77817 4.26114 5.19867 4.68297 5.19867 5.20113Z" fill="#6EC045"/>
</svg>
