<svg width="14" height="14" viewBox="0 0 14 14" fill="none" xmlns="http://www.w3.org/2000/svg">
<path d="M9.90919 0H4.0188C3.45507 0 3 0.457109 3 1.01982V12.9812C3 13.5434 3.45507 14 4.0188 14H9.90919C10.4719 14 10.928 13.5434 10.928 12.9812V1.01982C10.928 0.457109 10.4719 0 9.90919 0ZM5.51053 0.619343H8.41848C8.49195 0.619343 8.55164 0.729029 8.55164 0.864733C8.55164 1.00044 8.49195 1.11063 8.41848 1.11063H5.51053C5.43656 1.11063 5.37789 1.00044 5.37789 0.864733C5.37789 0.729029 5.43656 0.619343 5.51053 0.619343ZM6.96451 12.9934C6.60586 12.9934 6.31404 12.7016 6.31404 12.3425C6.31404 11.9833 6.60586 11.6925 6.96451 11.6925C7.32213 11.6925 7.61395 11.9833 7.61395 12.3425C7.61395 12.7016 7.32213 12.9934 6.96451 12.9934ZM10.1648 10.7645H3.76372V1.72079H10.1648V10.7645Z" fill="#6EC045"/>
</svg>
