<svg width="14" height="14" viewBox="0 0 14 14" fill="none" xmlns="http://www.w3.org/2000/svg">
<path d="M13.765 6.373L11.6432 4.25123V1.80023C11.6432 1.35706 11.2841 0.9979 10.8403 0.9979C10.3975 0.9979 10.0383 1.35706 10.0383 1.80023V2.64637L8.45852 1.06649C7.67744 0.28583 6.3194 0.287214 5.5401 1.0679L0.234884 6.373C-0.0782946 6.6868 -0.0782946 7.19455 0.234884 7.50787C0.548204 7.82158 1.05694 7.82158 1.37015 7.50787L6.67485 2.20263C6.84766 2.03072 7.15225 2.03072 7.32416 2.20212L12.6298 7.50787C12.7871 7.66474 12.9922 7.74277 13.1973 7.74277C13.4027 7.74277 13.6082 7.66466 13.765 7.50787C14.0783 7.19458 14.0783 6.68683 13.765 6.373Z" fill="#6EC045"/>
<path d="M7.27875 3.72564C7.12462 3.5716 6.87505 3.5716 6.72137 3.72564L2.0549 8.39074C1.98122 8.46438 1.93945 8.56493 1.93945 8.66986V12.0724C1.93945 12.8708 2.58684 13.5182 3.38524 13.5182H5.69562V9.94018H8.304V13.5182H10.6144C11.4128 13.5182 12.0602 12.8708 12.0602 12.0724V8.66986C12.0602 8.56493 12.0188 8.46438 11.9447 8.39074L7.27875 3.72564Z" fill="#6EC045"/>
</svg>
