<svg width="14" height="14" viewBox="0 0 14 14" fill="none" xmlns="http://www.w3.org/2000/svg">
<g clip-path="url(#clip0)">
<path d="M2.48308 9.76552H0.837663C0.837663 9.76552 0 9.76426 0 11.0406C0.0398518 11.865 0.682971 11.9967 0.797682 11.9967C0.912393 11.9967 4.14808 11.9967 4.14808 11.9967C4.14808 11.9967 4.98729 11.9978 5.02433 10.9907C5.02572 10.9523 5.02882 10.9897 5.02927 10.951C5.03095 10.8023 5.02927 10.0339 5.02927 10.0339C5.03128 9.92451 5.11479 9.8004 5.22737 9.8004H7.85078C7.88937 9.8004 7.92276 9.8316 7.92628 9.86987L8.54595 11.2714C8.77712 11.8446 9.2266 12.2652 9.97752 11.995C10.6884 11.7391 10.7251 11.1759 10.5996 10.7803L9.05876 6.10936C8.82714 5.55612 8.243 5.2334 7.51191 5.2334H5.94309H3.89886C1.94311 5.2334 0.302506 7.51186 2.52384 9.70216C2.53957 9.73727 2.52152 9.76552 2.48308 9.76552Z" fill="#6EC045"/>
<path d="M11.5728 6.77576C12.9134 6.77576 14.0001 5.68902 14.0001 4.34845C14.0001 3.00789 12.9134 1.92114 11.5728 1.92114C10.2323 1.92114 9.14551 3.00789 9.14551 4.34845C9.14551 5.68902 10.2323 6.77576 11.5728 6.77576Z" fill="#6EC045"/>
</g>
<defs>
<clipPath id="clip0">
<rect width="14" height="14" fill="white"/>
</clipPath>
</defs>
</svg>
