<svg width="14" height="14" viewBox="0 0 14 14" fill="none" xmlns="http://www.w3.org/2000/svg">
<path d="M12.9843 3.40579H8.65621L10.1931 0.884123C10.3263 0.665501 10.2571 0.380247 10.0385 0.247016C9.81988 0.113723 9.5346 0.182981 9.40137 0.401603L7.57046 3.40579H6.42957L4.59867 0.401603C4.46543 0.183043 4.18018 0.113815 3.96156 0.247016C3.74294 0.380278 3.67371 0.665501 3.80697 0.884123L5.34382 3.40579H1.01569C0.455633 3.40579 0 3.86142 0 4.42145V12.8051C0 13.3651 0.455633 13.8207 1.01569 13.8207H12.9843C13.5444 13.8207 14 13.3651 14 12.8051V4.42145C14 3.86142 13.5443 3.40579 12.9843 3.40579ZM9.81781 11.5866C9.81781 11.8915 9.57063 12.1387 9.26569 12.1387H2.20007C1.89516 12.1387 1.64798 11.8915 1.64798 11.5866V5.63994C1.64798 5.33503 1.89516 5.08782 2.2001 5.08782H9.26569C9.5706 5.08782 9.81781 5.33503 9.81781 5.63994V11.5866ZM11.8611 11.4102C11.3328 11.4102 10.903 10.9804 10.903 10.4521C10.903 9.92384 11.3328 9.49407 11.8611 9.49407C12.3894 9.49407 12.8191 9.92384 12.8191 10.4521C12.8191 10.9804 12.3894 11.4102 11.8611 11.4102ZM11.8611 7.73249C11.3328 7.73249 10.903 7.30272 10.903 6.77443C10.903 6.24614 11.3328 5.81638 11.8611 5.81638C12.3894 5.81638 12.8191 6.24614 12.8191 6.77443C12.8191 7.30272 12.3894 7.73249 11.8611 7.73249Z" fill="#6EC045"/>
</svg>
