<svg width="14" height="14" viewBox="0 0 14 14" fill="none" xmlns="http://www.w3.org/2000/svg">
<path d="M6.99994 2.17739C7.60636 2.17739 8.13017 1.79073 8.31833 1.22192C7.95934 1.32074 7.50176 1.38039 6.99994 1.38039C6.49816 1.38039 6.04059 1.32074 5.68164 1.22192C5.86971 1.79068 6.39347 2.17739 6.99994 2.17739Z" fill="#6EC045"/>
<path d="M13.9826 2.87692C13.9538 2.7961 13.8938 2.72964 13.8158 2.69345L11.1466 1.46127C10.5789 1.26894 10.0004 1.11701 9.41637 1.00597C9.39581 1.00194 9.37534 1 9.35516 1C9.21058 1 9.08111 1.09982 9.04889 1.2462C8.83562 2.18513 8.00446 2.8881 6.99996 2.8881C5.99551 2.8881 5.1643 2.18518 4.95108 1.2462C4.91848 1.09982 4.78925 1 4.64476 1C4.62458 1 4.60412 1.00194 4.58356 1.00597C3.99954 1.11701 3.42112 1.26894 2.85245 1.46127L0.184255 2.6934C0.105711 2.72959 0.0453572 2.79606 0.0179282 2.87687C-0.0104483 2.95864 -0.00533198 3.0469 0.0346509 3.12402L1.1934 5.41081C1.24764 5.51934 1.35797 5.58448 1.4747 5.58448C1.50483 5.58448 1.53538 5.58012 1.56551 5.57108L2.8525 5.18963V12.8626C2.8525 13.0369 2.99466 13.179 3.16937 13.179H10.8307C11.0049 13.179 11.1467 13.0368 11.1467 12.8626V5.18972L12.4346 5.57117C12.4647 5.58022 12.4952 5.58458 12.5253 5.58458C12.6418 5.58458 12.7517 5.51944 12.8067 5.41091L13.9658 3.12411C14.0049 3.04694 14.0105 2.95869 13.9826 2.87692Z" fill="#6EC045"/>
</svg>
