<svg width="14" height="14" viewBox="0 0 14 14" fill="none" xmlns="http://www.w3.org/2000/svg">
<path d="M10.4852 2.48019C10.4697 2.47063 9.51473 2.09701 9.51473 2.09701L9.22859 0.267588C9.20452 0.113432 9.07403 0 8.92078 0H4.6907C4.53745 0 4.40696 0.113432 4.38283 0.267588L4.09669 2.09701C4.09669 2.09701 3.14174 2.47063 3.12613 2.48019C2.6717 2.6439 2.33301 3.01024 2.33301 3.50865V10.5028C2.33301 11.0173 2.73123 11.3817 3.16999 11.5421C3.17176 11.5429 3.17348 11.5439 3.17531 11.5447L4.09669 11.903L4.38283 13.7324C4.40696 13.8865 4.53745 14 4.6907 14H8.92078C9.07403 14 9.20452 13.8866 9.22865 13.7324L9.51479 11.903C9.51479 11.903 10.4395 11.5428 10.4414 11.5421C10.8417 11.4223 11.2784 11.0173 11.2784 10.5028V8.57343H11.6663V7.36943H11.2784V6.11247H11.6663V4.90847H11.2784V3.50871C11.2784 3.01024 10.9465 2.68148 10.4852 2.48019ZM10.2729 9.91708C10.2729 10.2597 9.99947 10.5382 9.66318 10.5382H3.94824C3.61195 10.5382 3.33856 10.2597 3.33856 9.91708V4.09446C3.33856 3.75183 3.61195 3.47329 3.94824 3.47329H9.66312C9.99941 3.47329 10.2728 3.75183 10.2728 4.09446L10.2729 9.91708Z" fill="#6EC045"/>
</svg>
