<svg width="16" height="15" viewBox="0 0 16 15" fill="none" xmlns="http://www.w3.org/2000/svg">
<path d="M15.9859 5.70882C15.9521 5.60682 15.8625 5.53243 15.7545 5.51693L10.5736 4.77613L8.25669 0.157232C8.20857 0.060864 8.10891 0 8.00008 0C7.89125 0 7.7913 0.060864 7.74347 0.157232L5.42625 4.77642L0.245377 5.51721C0.137407 5.53271 0.0480517 5.60682 0.0139707 5.7091C-0.0195374 5.81082 0.00824284 5.92297 0.0864285 5.99764L3.83562 9.59313L2.95037 14.6702C2.93204 14.7759 2.97615 14.8827 3.06407 14.9458C3.15257 15.0095 3.2697 15.0176 3.36564 14.9672L8.00008 12.5704L12.6339 14.9672C12.6758 14.9889 12.7219 14.9996 12.7674 14.9996C12.8267 14.9996 12.8857 14.9816 12.9358 14.9458C13.024 14.8827 13.0681 14.7759 13.0495 14.6702L12.1645 9.59341L15.9137 5.99764C15.9916 5.92241 16.0197 5.81054 15.9859 5.70882Z" fill="#6EC045"/>
</svg>
