<svg width="17" height="13" viewBox="0 0 17 13" fill="none" xmlns="http://www.w3.org/2000/svg">
<path d="M9.7634 8.82155C10.7634 8.39994 11.5529 7.82606 12.1314 7.09967C12.7099 6.37345 12.9991 5.58259 12.9991 4.72705C12.9991 3.87148 12.7099 3.08055 12.1312 2.35429C11.5528 1.62804 10.7634 1.05409 9.76324 0.632381C8.76305 0.21074 7.67521 0 6.49953 0C5.32396 0 4.23611 0.210869 3.23586 0.632381C2.23571 1.05406 1.44633 1.628 0.867859 2.35429C0.289319 3.08068 0 3.87148 0 4.72708C0 5.45945 0.218824 6.1491 0.655793 6.79535C1.09273 7.44148 1.69287 7.98629 2.45602 8.42937C2.39452 8.57721 2.33143 8.71245 2.26679 8.83572C2.20211 8.95879 2.12525 9.07718 2.03593 9.19113C1.94668 9.30512 1.87752 9.3943 1.82823 9.45872C1.77898 9.52333 1.69898 9.61433 1.58813 9.73106C1.47731 9.84802 1.4065 9.92495 1.37578 9.96179C1.37578 9.95561 1.36346 9.96955 1.33881 10.0034C1.31414 10.0373 1.3003 10.0526 1.29726 10.0497C1.29416 10.0463 1.28184 10.0617 1.2603 10.0956C1.23876 10.1295 1.22796 10.1464 1.22796 10.1464L1.20484 10.1924C1.19572 10.211 1.18945 10.2292 1.18641 10.2478C1.18331 10.2661 1.18175 10.2863 1.18175 10.3077C1.18175 10.3292 1.18479 10.3491 1.19107 10.3677C1.20339 10.4476 1.23876 10.5121 1.29723 10.5616C1.35566 10.6107 1.41869 10.6353 1.48646 10.6353H1.51418C1.82186 10.5922 2.08657 10.543 2.30811 10.4875C3.25597 10.2414 4.11158 9.84735 4.87476 9.30577C5.42866 9.40427 5.97031 9.45348 6.4996 9.45348C7.67527 9.4539 8.76325 9.24323 9.7634 8.82155Z" fill="#6EC045"/>
<path d="M15.8887 9.16294C16.3259 8.51979 16.5443 7.82914 16.5443 7.09046C16.5443 6.33333 16.3132 5.62508 15.8517 4.96657C15.3901 4.30813 14.7622 3.76024 13.9683 3.32324C14.1097 3.78482 14.1805 4.25257 14.1805 4.7266C14.1805 5.55129 13.9746 6.33297 13.5619 7.07164C13.1496 7.81009 12.5587 8.46246 11.7893 9.02881C11.0753 9.54581 10.2629 9.94268 9.35188 10.2197C8.44115 10.4966 7.49015 10.6352 6.49918 10.6352C6.3146 10.6352 6.04375 10.623 5.68681 10.5984C6.9239 11.4107 8.3765 11.8171 10.0444 11.8171C10.5738 11.8171 11.1154 11.7677 11.6694 11.6692C12.4325 12.2111 13.2882 12.6048 14.236 12.8511C14.4575 12.9067 14.7222 12.9558 15.03 12.9988C15.1038 13.005 15.1716 12.9835 15.2331 12.9342C15.2947 12.885 15.3347 12.8175 15.3531 12.7314C15.3502 12.6944 15.3531 12.6742 15.3624 12.6712C15.3715 12.6683 15.3699 12.6482 15.3577 12.6113C15.3456 12.5743 15.3394 12.5559 15.3394 12.5559L15.3163 12.5098C15.3099 12.4977 15.2995 12.4806 15.284 12.4591C15.2686 12.4378 15.2564 12.4222 15.2471 12.413C15.238 12.4038 15.2243 12.3883 15.2057 12.3669C15.1873 12.3456 15.1749 12.3316 15.1687 12.3255C15.138 12.2885 15.0672 12.2116 14.9565 12.0946C14.8456 11.9778 14.7657 11.887 14.7165 11.8224C14.6672 11.7578 14.5979 11.6686 14.5087 11.5546C14.4195 11.4408 14.3425 11.3223 14.2779 11.1992C14.2133 11.0761 14.1502 10.9406 14.0886 10.793C14.8518 10.3495 15.4518 9.80632 15.8887 9.16294Z" fill="#6EC045"/>
</svg>
