<svg width="16" height="15" viewBox="0 0 16 15" fill="none" xmlns="http://www.w3.org/2000/svg">
<path d="M5.35807 14.8107C6.37068 14.8107 7.19156 13.9898 7.19156 12.9772C7.19156 11.9646 6.37068 11.1437 5.35807 11.1437C4.34546 11.1437 3.52458 11.9646 3.52458 12.9772C3.52458 13.9898 4.34546 14.8107 5.35807 14.8107Z" fill="#6EC045"/>
<path d="M11.2324 11.1256C10.2149 11.0255 9.30887 11.7692 9.20874 12.7867C9.10861 13.8042 9.85228 14.7103 10.8698 14.8104C10.9904 14.8222 11.1119 14.8222 11.2324 14.8104C12.25 14.7103 12.9936 13.8042 12.8935 12.7867C12.807 11.9076 12.1115 11.2121 11.2324 11.1256Z" fill="#6EC045"/>
<path d="M15.0061 4.14788C14.915 4.01149 14.7607 3.93097 14.5967 3.93427H12.5674V3.89867C12.5675 1.74563 10.8223 0.000139078 8.66926 8.31066e-09C6.51626 -0.000139061 4.77077 1.74511 4.77063 3.89815C4.77063 3.89832 4.77063 3.89849 4.77063 3.89867V3.93427H3.25756L2.74133 1.58455C2.684 1.34553 2.47091 1.17653 2.22511 1.17514H0V2.24319H1.79789L3.45337 9.84415C3.49707 10.0941 3.71593 10.2752 3.96959 10.2714H13.2794C13.5252 10.2699 13.7383 10.101 13.7957 9.86196L15.1129 4.5929C15.1516 4.436 15.1117 4.27012 15.0061 4.14788ZM8.66902 6.729C7.10588 6.729 5.83868 5.4618 5.83868 3.89867C5.83868 2.33553 7.10588 1.06833 8.66902 1.06833C10.2322 1.06833 11.4994 2.33553 11.4994 3.89867C11.4897 5.45777 10.2281 6.71927 8.66902 6.729Z" fill="#6EC045"/>
<path d="M8.24197 3.95186L7.26292 2.95501L6.49748 3.70265L7.85035 5.07331C7.94895 5.17393 8.08329 5.23151 8.22417 5.23352C8.3632 5.24034 8.49872 5.18871 8.59798 5.09112L10.8409 2.97281L10.1111 2.18958L8.24197 3.95186Z" fill="#6EC045"/>
</svg>
