<svg width="15" height="15" viewBox="0 0 15 15" fill="none" xmlns="http://www.w3.org/2000/svg">
<path d="M7.5 0C3.3583 0 0 3.35779 0 7.5C0 11.6422 3.35797 15 7.5 15C11.6424 15 15 11.6422 15 7.5C15 3.35779 11.6424 0 7.5 0ZM7.5 2.24259C8.87046 2.24259 9.981 3.3535 9.981 4.72337C9.981 6.09356 8.87046 7.20415 7.5 7.20415C6.13019 7.20415 5.01966 6.09356 5.01966 4.72337C5.01966 3.3535 6.13019 2.24259 7.5 2.24259ZM7.49835 13.0391C6.13151 13.0391 4.87964 12.5413 3.91406 11.7173C3.67884 11.5167 3.54311 11.2225 3.54311 10.9138C3.54311 9.52449 4.66749 8.41259 6.05706 8.41259H8.9436C10.3335 8.41259 11.4536 9.52449 11.4536 10.9138C11.4536 11.2228 11.3185 11.5164 11.083 11.717C10.1177 12.5413 8.86552 13.0391 7.49835 13.0391Z" fill="#6EC045"/>
</svg>
