<svg width="60" height="60" viewBox="0 0 60 60" fill="none" xmlns="http://www.w3.org/2000/svg">
<path d="M29.6285 29.7607C29.8469 29.7201 29.991 29.5102 29.9504 29.2918C29.9098 29.0734 29.6998 28.9292 29.4814 28.9698C29.263 29.0104 29.1189 29.2204 29.1595 29.4388C29.2001 29.6572 29.4101 29.8013 29.6285 29.7607Z" fill="#6EC045"/>
<path d="M31.1549 30.7834C31.5917 30.7022 31.8799 30.2823 31.7987 29.8455C31.7175 29.4087 31.2976 29.1205 30.8608 29.2017C30.424 29.2829 30.1358 29.7028 30.217 30.1396C30.2982 30.5764 30.7181 30.8646 31.1549 30.7834Z" fill="#6EC045"/>
<path d="M35.3638 10.1724C35.4979 10.2171 35.6543 10.2618 35.7884 10.3288C35.6543 10.2841 35.4979 10.2395 35.3638 10.1724Z" fill="#6EC045"/>
<path d="M34.4701 9.9043C34.6935 9.97133 34.9169 10.016 35.1404 10.1054C34.9169 10.0384 34.6935 9.97133 34.4701 9.9043Z" fill="#6EC045"/>
<path d="M35.3638 10.1724C35.2968 10.1501 35.2074 10.1277 35.1404 10.083C34.9169 10.016 34.6935 9.94896 34.47 9.88193C34.336 10.2394 34.2019 10.5969 34.0678 10.9544C34.0678 10.9768 34.0455 11.0215 34.0455 11.0438C33.9561 11.3343 33.8668 11.6248 33.7774 11.9376L35.7437 10.2618C35.5872 10.2618 35.4755 10.2171 35.3638 10.1724Z" fill="#6EC045"/>
<path d="M31.543 15.1552L34.0008 12.3845L32.7495 13.2783L33.2635 8.60836L31.9005 9.47978L32.0122 8.27319L31.2301 10.6417L32.3027 9.77025L31.543 15.1552Z" fill="#6EC045"/>
<path d="M35.3638 10.1724C35.2968 10.1501 35.2074 10.1277 35.1404 10.083C34.9169 10.016 34.6935 9.94896 34.47 9.88193C34.336 10.2394 34.2019 10.5969 34.0678 10.9544C34.0678 10.9768 34.0455 11.0215 34.0455 11.0438C33.9561 11.3343 33.8668 11.6248 33.7774 11.9376L35.7437 10.2618C35.5872 10.2618 35.4755 10.2171 35.3638 10.1724Z" fill="#6EC045"/>
<path d="M49.9322 27.5562C49.4853 17.3002 43.2513 8.5413 35.051 6.73143C34.8723 6.68674 34.7158 6.68674 34.5371 6.70909C34.5147 6.68674 34.4924 6.6644 34.4701 6.6644C34.2913 6.55268 34.1126 6.48564 33.9115 6.4633L34.0232 5.23437C34.0902 4.56405 33.6433 3.96076 32.9953 3.82669C32.3474 3.69263 31.677 4.05013 31.4536 4.67577L30.7609 6.59736C30.5822 6.6644 30.4034 6.75377 30.2694 6.88784C30.18 6.53033 29.9342 6.19517 29.599 6.01642C29.5767 5.99407 29.5543 5.99407 29.532 5.97173V5.61422C29.532 4.9439 29.0404 4.3853 28.3925 4.29592C27.7221 4.20654 27.0965 4.63108 26.9401 5.25672L25.8899 9.18928C25.7335 9.74789 25.9569 10.3288 26.4262 10.6417C26.5155 10.6863 26.5826 10.731 26.672 10.7757L26.6496 12.2057C26.6496 12.742 26.9624 13.2336 27.454 13.4347C27.5434 13.4794 27.6104 13.5017 27.6998 13.524C27.6998 14.1273 27.7221 14.7083 27.7892 15.3339C21.3317 15.6244 16.7065 17.3896 13.623 20.6965C10.4054 24.1598 9.10947 28.9862 9.60104 35.8905C9.98089 41.1861 13.3549 46.2805 19.3878 50.6376C23.9013 53.8999 28.3478 55.6651 28.8393 55.8438L29.532 56.112C29.6884 56.179 29.8448 56.2013 30.0012 56.2013C30.1576 56.2013 30.3364 56.179 30.4705 56.112L31.1631 55.8438C31.6547 55.6427 36.1012 53.8775 40.6147 50.6376C46.6476 46.2805 50.0216 41.1861 50.4014 35.8905C50.6249 32.6506 50.4685 29.9246 49.9322 27.5562ZM49.0831 35.7788C48.234 47.6659 31.4089 54.3244 30.6939 54.5926L30.0012 54.8607L29.3086 54.5926C28.5935 54.3244 11.7684 47.6659 10.9193 35.7788C10.4501 29.2767 11.612 24.7631 14.5838 21.5903C17.6226 18.328 22.4266 16.6746 29.2415 16.5628C28.9734 14.6189 28.9511 12.7643 29.1298 11.0662L27.9679 12.1834L27.9903 8.85412L27.1412 9.52445L28.1914 5.59188L28.169 7.71457L28.9511 7.17831V8.16145V9.97133L31.1631 7.82629V9.34569L32.7049 5.07796L32.3921 8.51896L33.755 7.73692L33.4869 10.7087C33.5763 10.7534 33.6657 10.7757 33.7774 10.8204C34.0679 9.79257 34.3807 8.83178 34.7829 7.9827C42.3128 9.65851 48.2564 17.8365 48.6362 27.7126C49.1502 30.014 49.3066 32.673 49.0831 35.7788Z" fill="#6EC045"/>
<path d="M31.4759 46.3252C30.6939 46.2805 29.8225 46.3476 28.8393 46.6604C28.5712 46.7051 28.2584 46.7721 28.0349 46.8168C27.1412 47.1519 26.158 47.353 25.1749 47.353C23.3427 47.353 21.5105 46.7721 19.7006 45.6102C16.416 43.4875 14.1816 39.9795 13.5783 35.9799V35.9352L13.5559 35.7788C13.5113 35.5107 13.4889 35.2872 13.4666 35.0638L13.4219 34.3934L27.9456 21.0093L30.1576 20.6295C30.113 20.4507 30.0683 20.2943 30.0236 20.1155C26.8284 20.0932 23.8342 19.9368 21.1753 19.691C13.8911 22.1936 12.3494 28.2265 12.8856 35.6224C13.6453 46.4369 30.0683 52.805 30.0683 52.805C30.0683 52.805 30.4705 52.6486 31.1631 52.3358C35.0733 49.7215 35.118 47.2637 31.4759 46.3252Z" fill="#6EC045"/>
<path d="M29.6214 18.6855C29.599 18.6185 29.599 18.5291 29.5767 18.4621C27.4093 18.4844 25.5101 18.6632 23.8566 18.976C25.7335 19.0877 27.6998 19.1771 29.7554 19.2218C29.7108 19.043 29.6661 18.8643 29.6214 18.6855Z" fill="#6EC045"/>
<path d="M47.4073 28.3382C47.2733 24.9866 46.4242 21.8137 45.0388 19.0654C44.9271 18.8419 44.8154 18.6185 44.6813 18.3951C44.6813 18.3951 44.6813 18.3951 44.6813 18.3727C44.5696 18.1493 44.4355 17.9482 44.3015 17.7247L44.2791 17.7024C44.1451 17.5013 44.0334 17.3002 43.8993 17.0991C43.8993 17.0768 43.8769 17.0768 43.8769 17.0544C43.7429 16.8533 43.6312 16.6746 43.4971 16.4735C43.4748 16.4511 43.4747 16.4288 43.4524 16.4064C43.3183 16.2277 43.1843 16.0489 43.0502 15.8702C43.0279 15.8478 43.0055 15.8255 42.9832 15.8031C42.8491 15.6244 42.715 15.468 42.581 15.3116C42.5586 15.2892 42.5363 15.2445 42.514 15.2222C42.3799 15.0658 42.2458 14.9094 42.1118 14.753C42.0894 14.7083 42.0447 14.6859 42.0224 14.6413C41.8883 14.5072 41.7543 14.3508 41.6202 14.2167C41.5755 14.172 41.5532 14.1497 41.5085 14.105C41.3744 13.9709 41.2403 13.8369 41.1063 13.7028C41.0616 13.6581 41.0169 13.6134 40.9722 13.5687C40.8381 13.457 40.7041 13.3229 40.57 13.2112C40.5253 13.1665 40.4583 13.1219 40.4136 13.0772C40.2795 12.9654 40.1678 12.8537 40.0338 12.7643C39.9667 12.7197 39.8997 12.675 39.855 12.6303C39.7209 12.5409 39.6092 12.4292 39.4752 12.3398C39.4081 12.2951 39.3411 12.2504 39.2741 12.1834C39.14 12.094 39.0283 12.0046 38.8942 11.9153C38.8272 11.8706 38.7378 11.8259 38.6708 11.7589C38.559 11.6918 38.425 11.6025 38.3133 11.5354C38.2239 11.4907 38.1345 11.446 38.0451 11.379C37.9334 11.312 37.8217 11.2449 37.71 11.1779C37.6206 11.1332 37.5089 11.0885 37.4195 11.0215C37.3078 10.9545 37.1961 10.9098 37.0843 10.8428C36.9726 10.7981 36.8609 10.7534 36.7715 10.6863C36.6598 10.6417 36.5704 10.597 36.4587 10.5523C35.9448 11.8706 35.1851 13.9262 34.7605 15.5127L35.0287 12.4739L33.2858 14.0603C32.973 15.7138 32.7943 17.479 32.7943 19.3335C32.7943 19.9368 32.8166 20.5178 32.8389 21.0987L28.75 21.7914L15.4552 34.0583L15.2765 34.2371L17.4885 33.1422L16.9523 37.7898C16.5501 37.8345 16.1479 37.7004 15.8351 37.4546C16.7065 40.0912 18.427 42.348 20.7284 43.845C24.594 46.3476 27.7668 45.1633 28.9734 44.1802C29.0851 44.8952 30.7386 45.3868 31.0738 43.9568C31.0738 43.9568 31.0738 43.9568 31.0961 43.9568C31.2525 43.8897 31.7441 43.6886 33.1518 43.5992C34.8499 43.5099 36.5704 43.3535 37.6876 42.415C38.0004 42.1469 38.2462 41.8564 38.4473 41.5659C40.1455 38.6388 37.6653 34.3935 32.5261 36.5608C32.5261 36.5608 37.0173 33.7678 39.207 37.4323C39.6986 38.3931 40.3689 40.0018 39.4975 41.7C40.1678 41.7447 40.9499 41.7894 41.8436 41.767C40.7711 42.5938 39.855 43.2641 38.9389 43.7557C39.5645 44.1132 40.3242 44.493 41.1733 44.8282C38.2686 45.2974 34.1349 45.4538 31.2525 44.0685C31.2525 44.0685 31.2749 44.0685 31.2749 44.0908C31.2749 44.0908 31.2972 44.0908 31.2972 44.1132C31.3195 44.1132 31.3195 44.1355 31.3419 44.1355C31.3642 44.1355 31.3642 44.1578 31.3866 44.1578C31.4089 44.1578 31.4089 44.1802 31.4313 44.1802C31.4536 44.1802 31.4536 44.2025 31.476 44.2025C31.4983 44.2025 31.4983 44.2249 31.5206 44.2249C31.543 44.2249 31.543 44.2472 31.5653 44.2472C31.5877 44.2472 31.61 44.2696 31.61 44.2696C31.6324 44.2696 31.6324 44.2919 31.6547 44.2919C31.6771 44.2919 31.6994 44.3143 31.6994 44.3143C31.7217 44.3143 31.7441 44.3366 31.7441 44.3366C31.7664 44.3366 31.7888 44.3589 31.8111 44.3589C31.8335 44.3589 31.8558 44.3813 31.8781 44.3813C31.9005 44.3813 31.9228 44.4036 31.9452 44.4036C31.9675 44.4036 31.9899 44.426 32.0122 44.426C32.0346 44.426 32.0569 44.4483 32.0792 44.4483C32.1016 44.4707 32.1239 44.4707 32.1463 44.493C32.1686 44.493 32.191 44.5154 32.2133 44.5154C32.325 44.56 32.4368 44.6271 32.5485 44.6718C32.5708 44.6718 32.5708 44.6941 32.5932 44.6941C32.6155 44.7165 32.6602 44.7165 32.7049 44.7388C32.7272 44.7388 32.7496 44.7611 32.7719 44.7611C32.7943 44.7835 32.8389 44.7835 32.8836 44.8058C32.906 44.8058 32.9283 44.8282 32.9507 44.8282C32.9954 44.8505 33.0177 44.8505 33.0624 44.8729C33.0847 44.8729 33.1071 44.8952 33.1294 44.8952C33.1741 44.9175 33.1964 44.9175 33.2411 44.9399C33.2635 44.9399 33.2858 44.9622 33.3082 44.9622C33.3529 44.9846 33.3752 44.9846 33.4199 45.0069C33.4422 45.0069 33.4646 45.0293 33.4869 45.0293C33.5316 45.0516 33.554 45.0516 33.5986 45.074C33.621 45.074 33.6433 45.0963 33.6657 45.0963C33.7104 45.1186 33.7551 45.1186 33.7774 45.141C33.7997 45.141 33.8221 45.1633 33.8444 45.1633C33.8891 45.1857 33.9338 45.1857 33.9785 45.208C34.0008 45.208 34.0232 45.2304 34.0455 45.2304C34.0902 45.2527 34.1349 45.2527 34.1796 45.2751C34.2019 45.2751 34.2019 45.2751 34.2243 45.2974C34.4701 45.3868 34.7159 45.4538 34.984 45.5432H35.0063C35.051 45.5655 35.118 45.5655 35.1851 45.5879C35.2074 45.5879 35.2298 45.5879 35.2298 45.6102C35.2745 45.6326 35.3415 45.6326 35.3862 45.6549C35.4085 45.6549 35.4309 45.6772 35.4532 45.6772C35.4979 45.6996 35.5649 45.6996 35.6096 45.7219C35.632 45.7219 35.6543 45.7443 35.6767 45.7443C35.7213 45.7666 35.7884 45.7666 35.8331 45.789C35.8554 45.789 35.8777 45.8113 35.9001 45.8113C35.9448 45.8337 36.0118 45.8337 36.0565 45.856C36.0788 45.856 36.1012 45.856 36.1235 45.8783C36.1682 45.8783 36.2353 45.9007 36.2799 45.9007C36.3023 45.9007 36.3246 45.9007 36.347 45.923C36.414 45.923 36.4587 45.9454 36.5257 45.9454C36.5481 45.9454 36.5704 45.9454 36.5928 45.9454C36.6598 45.9454 36.7045 45.9677 36.7715 45.9677C36.7939 45.9677 36.7939 45.9677 36.8162 45.9677C37.196 46.0124 37.5536 46.0571 37.9334 46.0794H37.9558C38.0228 46.0794 38.0898 46.0794 38.1568 46.0794C38.1792 46.0794 38.2015 46.0794 38.2239 46.0794C38.2909 46.0794 38.3356 46.0794 38.4026 46.0794C38.425 46.0794 38.4473 46.0794 38.4697 46.0794C38.5367 46.0794 38.5814 46.0794 38.6484 46.0794C38.6708 46.0794 38.6931 46.0794 38.7155 46.0794C38.7825 46.0794 38.8272 46.0794 38.8942 46.0794C38.9165 46.0794 38.9389 46.0794 38.9612 46.0794C39.0283 46.0794 39.073 46.0794 39.14 46.0571C39.1623 46.0571 39.1847 46.0571 39.207 46.0571C39.2741 46.0571 39.3187 46.0571 39.3858 46.0348C39.4081 46.0348 39.4305 46.0348 39.4528 46.0348C39.5198 46.0348 39.5645 46.0124 39.6316 46.0124C39.6539 46.0124 39.6763 46.0124 39.6986 46.0124C39.7656 46.0124 39.8327 45.9901 39.8773 45.9901C39.8997 45.9901 39.8997 45.9901 39.922 45.9901C40.2349 45.9454 40.5253 45.856 40.8381 45.7666C40.8381 45.7666 40.8381 45.7666 40.8605 45.7666C40.9275 45.7443 40.9946 45.7219 41.0392 45.6996C41.0616 45.6996 41.0839 45.6772 41.1063 45.6772C41.1733 45.6549 41.218 45.6326 41.285 45.6102C41.3074 45.6102 41.3297 45.5879 41.3521 45.5879C41.3967 45.5655 41.4638 45.5432 41.5085 45.5208C41.5308 45.5208 41.5532 45.4985 41.5755 45.4985C41.6202 45.4762 41.6872 45.4538 41.7319 45.4315C41.7543 45.4091 41.7766 45.4091 41.8213 45.3868C41.866 45.3644 41.933 45.3421 41.9777 45.3197C42 45.2974 42.0224 45.2974 42.0671 45.2751C42.1118 45.2527 42.1788 45.2304 42.2235 45.1857C42.2458 45.1633 42.2682 45.1633 42.2905 45.141C42.3352 45.1186 42.4022 45.074 42.4469 45.0516C42.4693 45.0293 42.4916 45.0293 42.514 45.0069C42.5586 44.9846 42.6257 44.9399 42.6704 44.8952C42.6927 44.8729 42.715 44.8729 42.7374 44.8505C42.7821 44.8058 42.8491 44.7835 42.8938 44.7388C42.9161 44.7388 42.9161 44.7164 42.9385 44.7164C43.1396 44.56 43.3407 44.4036 43.5194 44.2025C42.7597 44.0685 41.8883 43.8227 41.0169 43.4652C42.6704 43.1077 45.7985 41.1637 47.1615 39.5773L41.0839 40.4264C41.0839 40.4264 41.6649 40.1136 41.7543 40.0689C41.7989 40.0465 41.866 40.0018 41.9107 39.9795C44.3462 38.5495 46.67 36.3597 46.5136 32.5612C46.5136 32.5166 46.5136 32.4495 46.5136 32.4048C45.9326 34.4605 43.2513 35.2425 40.8828 35.3766C47.0945 31.1759 41.5532 25.7239 40.9275 25.1206C40.8158 25.0536 40.7041 25.0089 40.5924 24.9419C43.3407 25.6122 45.8432 26.5507 47.4073 28.3382ZM20.5273 37.9909C20.2592 38.1696 19.8793 38.0802 19.7229 37.7898C19.5442 37.5216 19.6336 37.1418 19.924 36.9854C20.1922 36.8066 20.572 36.896 20.7284 37.1865C20.8848 37.4546 20.7955 37.8121 20.5273 37.9909ZM20.7731 35.533C20.505 35.7118 20.1251 35.6224 19.9687 35.3319C19.79 35.0638 19.8793 34.6839 20.1698 34.5275C20.438 34.3488 20.8178 34.4382 20.9742 34.7286C21.1306 34.9968 21.0412 35.3543 20.7731 35.533ZM23.0746 36.4268C22.8064 36.6055 22.4266 36.5162 22.2702 36.2257C22.0914 35.9576 22.1808 35.5777 22.4713 35.4213C22.7394 35.2425 23.1192 35.3319 23.2757 35.6224C23.4544 35.8905 23.365 36.248 23.0746 36.4268ZM33.688 38.8176C34.3583 38.5271 35.051 38.3707 35.6767 38.5718C36.7268 38.8846 37.1067 40.337 35.8554 41.1414C36.4364 40.6051 36.4364 40.6051 35.8554 41.1414C35.4979 41.4542 34.8276 41.7223 33.688 41.7894C31.4536 41.9458 28.9734 43.7333 28.9734 43.7333C28.9734 43.7333 32.6155 39.3092 33.688 38.8176ZM34.269 26.2155C34.3807 26.4166 34.4924 26.6401 34.5818 26.8858C35.3638 29.0756 34.2243 31.4664 32.0346 32.2484C29.8672 33.0305 27.4764 31.8909 26.6943 29.7459L23.3427 31.4217L31.7441 24.6067L38.3803 25.1653L34.269 26.2155ZM37.7547 22.1265L39.0283 21.2104L35.4309 21.4786V21.4562L39.0283 19.7357L35.5649 19.5123C35.5649 19.4452 35.5873 19.4006 35.5873 19.3335C35.6543 16.0713 37.5536 13.5017 37.5536 13.5017C37.5089 14.6189 37.5089 15.6021 37.4865 16.3841C40.5253 17.6354 42.8938 20.7412 43.6535 24.5174C41.933 23.3331 39.8997 22.5064 37.7547 22.1265Z" fill="#6EC045"/>
<path d="M19.6336 21.2551C21.1083 19.691 21.1083 19.691 21.1083 19.691L23.8343 18.976L29.6884 19.0207L30.113 20.6295L19.8794 21.2551" fill="#6EC045"/>
</svg>
