<svg width="18" height="16" viewBox="0 0 18 16" fill="none" xmlns="http://www.w3.org/2000/svg">
<path d="M16.9097 6.85714H16.5665C16.5665 6.85714 14.7612 3.13517 14.7438 3.11051C14.6539 2.94857 14.4898 2.83983 14.3017 2.83983H10.0303V0.692641C10.0303 0.310165 9.76345 0 9.40781 0H8.57069C8.21504 0 7.9053 0.310165 7.9053 0.692641V2.83983H3.74114C3.55305 2.83983 3.38897 2.94857 3.29908 3.11051C3.28169 3.1351 1.47641 6.85714 1.47641 6.85714H1.19758C0.843413 6.85714 0.5 7.1342 0.5 7.51515V7.96537C0.5 9.85891 1.9271 11.3939 3.6875 11.3939C5.4479 11.3939 6.875 9.85891 6.875 7.96537V7.51515C6.875 7.1342 6.63887 6.85714 6.2847 6.85714H5.94148L4.53338 3.94805H7.9053V13.7143H4.32069C3.9651 13.7143 3.6553 14.0244 3.6553 14.4069V15.3074C3.6553 15.6899 3.9651 16 4.32069 16H13.6578C14.0135 16 14.2803 15.6899 14.2803 15.3074V14.4069C14.2803 14.0244 14.0134 13.7143 13.6578 13.7143H10.0303V3.94805H13.5095L12.1014 6.85714H11.8226C11.4684 6.85714 11.125 7.1342 11.125 7.51515V7.96537C11.125 9.85891 12.5521 11.3939 14.3125 11.3939C16.0729 11.3939 17.5 9.85891 17.5 7.96537V7.51515C17.5 7.1342 17.2639 6.85714 16.9097 6.85714ZM4.77994 6.85714H2.63794L3.70894 4.64464L4.77994 6.85714ZM13.2629 6.85714L14.3339 4.64464L15.4049 6.85714H13.2629Z" fill="#DADADA"/>
</svg>
