<svg width="28" height="26" viewBox="0 0 28 26" fill="none" xmlns="http://www.w3.org/2000/svg">
<path d="M27.0277 11.1429H26.4624C26.4624 11.1429 23.489 5.09465 23.4604 5.05458C23.3123 4.79143 23.0421 4.61472 22.7323 4.61472H15.697V1.12554C15.697 0.504017 15.2575 0 14.6717 0H13.2929C12.7071 0 12.197 0.504017 12.197 1.12554V4.61472H5.33835C5.02855 4.61472 4.7583 4.79143 4.61024 5.05458C4.58161 5.09454 1.6082 11.1429 1.6082 11.1429H1.14895C0.565621 11.1429 0 11.5931 0 12.2121V12.9437C0 16.0207 2.35052 18.5152 5.25 18.5152C8.14948 18.5152 10.5 16.0207 10.5 12.9437V12.2121C10.5 11.5931 10.1111 11.1429 9.52774 11.1429H8.96244L6.64321 6.41558H12.197V22.2857H6.29289C5.70723 22.2857 5.19697 22.7896 5.19697 23.4113V24.8745C5.19697 25.4961 5.70723 26 6.29289 26H21.6717C22.2575 26 22.697 25.4961 22.697 24.8745V23.4113C22.697 22.7896 22.2573 22.2857 21.6717 22.2857H15.697V6.41558H21.4274L19.1082 11.1429H18.649C18.0656 11.1429 17.5 11.5931 17.5 12.2121V12.9437C17.5 16.0207 19.8505 18.5152 22.75 18.5152C25.6495 18.5152 28 16.0207 28 12.9437V12.2121C28 11.5931 27.6111 11.1429 27.0277 11.1429ZM7.04932 11.1429H3.52132L5.28532 7.54754L7.04932 11.1429ZM21.0213 11.1429L22.7853 7.54754L24.5493 11.1429H21.0213Z" fill="#404040"/>
</svg>
