<svg width="22" height="22" viewBox="0 0 22 22" fill="none" xmlns="http://www.w3.org/2000/svg">
<path d="M15.7283 2.21205H6.27209C5.61927 2.21205 5.08496 2.74586 5.08496 3.39918V18.6003C5.08496 19.2536 5.61927 19.788 6.27209 19.788L15.7283 19.788C16.3812 19.788 16.9155 19.2547 16.9155 18.6008V3.39918C16.9155 2.74586 16.3812 2.21205 15.7283 2.21205ZM9.77681 3.06775H12.2836C12.363 3.06775 12.4273 3.13202 12.4273 3.21187C12.4273 3.29121 12.363 3.35549 12.2836 3.35549H9.77681C9.69746 3.35549 9.63319 3.29121 9.63319 3.21187C9.63319 3.13202 9.69746 3.06775 9.77681 3.06775ZM11.0281 18.6008C10.7002 18.6008 10.4345 18.3352 10.4345 18.0068C10.4345 17.6783 10.7002 17.4132 11.0281 17.4132C11.356 17.4132 11.6216 17.6783 11.6216 18.0068C11.6216 18.3352 11.356 18.6008 11.0281 18.6008ZM15.5537 16.3756L6.44857 16.3756V4.09468H15.5537V16.3756Z" fill="white"/>
<path d="M11.0281 18.6008C10.7002 18.6008 10.4345 18.3352 10.4345 18.0068C10.4345 17.6783 10.7002 17.4132 11.0281 17.4132C11.356 17.4132 11.6216 17.6783 11.6216 18.0068C11.6216 18.3352 11.356 18.6008 11.0281 18.6008Z" fill="white"/>
<path d="M11.9194 18.1703C11.9194 18.6782 11.5076 19.0899 10.9997 19.0899C10.4918 19.0899 10.0801 18.6782 10.0801 18.1703C10.0801 17.6624 10.4918 17.2506 10.9997 17.2506C11.5076 17.2506 11.9194 17.6624 11.9194 18.1703Z" fill="#2A2C2F"/>
</svg>
