<svg width="18" height="16" viewBox="0 0 18 16" fill="none" xmlns="http://www.w3.org/2000/svg">
<path d="M17.2776 6.1152C17.2426 6.00787 17.1497 5.92959 17.0378 5.91328L11.6677 5.13377L9.26618 0.273452C9.21631 0.172047 9.11301 0.108002 9.00021 0.108002C8.8874 0.108002 8.7838 0.172047 8.73423 0.273452L6.3324 5.13406L0.962345 5.91358C0.850432 5.92988 0.757814 6.00787 0.722489 6.1155C0.687757 6.22254 0.716552 6.34055 0.797592 6.41912L4.68368 10.2025L3.76611 15.545C3.74711 15.6562 3.79283 15.7685 3.88396 15.8349C3.97569 15.902 4.0971 15.9106 4.19655 15.8575L9.00021 13.3354L13.8033 15.8575C13.8466 15.8803 13.8944 15.8916 13.9416 15.8916C14.0031 15.8916 14.0642 15.8726 14.1162 15.8349C14.2076 15.7685 14.2533 15.6562 14.234 15.545L13.3167 10.2028L17.2028 6.41912C17.2836 6.33995 17.3127 6.22224 17.2776 6.1152Z" fill="#DADADA"/>
</svg>
