<svg width="22" height="22" viewBox="0 0 22 22" fill="none" xmlns="http://www.w3.org/2000/svg">
<path d="M10.9998 4.78742C11.7668 4.78742 12.4293 4.29839 12.6673 3.57898C12.2132 3.70397 11.6345 3.7794 10.9998 3.7794C10.3652 3.7794 9.78648 3.70397 9.3325 3.57898C9.57036 4.29833 10.2328 4.78742 10.9998 4.78742Z" fill="white"/>
<path d="M19.8311 5.67217C19.7947 5.56995 19.7189 5.48589 19.6201 5.44012L16.2443 3.88171C15.5262 3.63845 14.7946 3.4463 14.0559 3.30586C14.0299 3.30077 14.0041 3.29831 13.9785 3.29831C13.7957 3.29831 13.6319 3.42455 13.5912 3.60969C13.3214 4.79722 12.2702 5.68631 10.9998 5.68631C9.72938 5.68631 8.6781 4.79728 8.40842 3.60969C8.3672 3.42455 8.20375 3.29831 8.021 3.29831C7.99548 3.29831 7.96959 3.30077 7.94359 3.30586C7.20495 3.4463 6.47338 3.63845 5.75415 3.88171L2.37952 5.44006C2.28018 5.48583 2.20385 5.56989 2.16916 5.67211C2.13327 5.77552 2.13974 5.88715 2.19031 5.98469L3.65585 8.87694C3.72445 9.01421 3.86399 9.09659 4.01163 9.09659C4.04973 9.09659 4.08838 9.09108 4.12648 9.07963L5.75421 8.59719V18.3017C5.75421 18.5221 5.93402 18.7019 6.15499 18.7019H15.8447C16.0651 18.7019 16.2444 18.522 16.2444 18.3017V8.59731L17.8732 9.07975C17.9113 9.0912 17.9499 9.09671 17.988 9.09671C18.1353 9.09671 18.2743 9.01433 18.3439 8.87706L19.8099 5.98481C19.8593 5.88721 19.8664 5.77558 19.8311 5.67217Z" fill="white"/>
</svg>
