<svg width="35" height="35" viewBox="0 0 35 35" fill="none" xmlns="http://www.w3.org/2000/svg">
<path d="M17.4998 34.9997C27.1647 34.9997 34.9997 27.1647 34.9997 17.4998C34.9997 7.83495 27.1647 0 17.4998 0C7.83495 0 0 7.83495 0 17.4998C0 27.1647 7.83495 34.9997 17.4998 34.9997Z" fill="#55ACEE"/>
<path d="M28.2166 12.5768C27.4667 12.9093 26.66 13.1342 25.814 13.2347C26.6778 12.7172 27.3407 11.8983 27.6536 10.9209C26.8453 11.4004 25.9497 11.7482 24.9973 11.9357C24.2343 11.1231 23.1471 10.6152 21.9433 10.6152C19.6336 10.6152 17.7603 12.4885 17.7603 14.7982C17.7603 15.126 17.7975 15.4452 17.8692 15.7515C14.3928 15.5771 11.3104 13.9119 9.24719 11.3805C8.8872 11.9981 8.68069 12.7172 8.68069 13.4836C8.68069 14.9345 9.4197 16.2154 10.5415 16.9653C9.85612 16.9438 9.21069 16.7557 8.647 16.4415C8.64669 16.4593 8.64668 16.4771 8.64668 16.4946C8.64668 18.5213 10.0891 20.2118 12.0023 20.5958C11.6517 20.6919 11.2814 20.7427 10.9005 20.7427C10.6304 20.7427 10.3687 20.7168 10.1135 20.6682C10.6457 22.3296 12.1901 23.5391 14.021 23.5731C12.5891 24.6952 10.7857 25.3637 8.82543 25.3637C8.48853 25.3637 8.15474 25.344 7.82812 25.305C9.67831 26.4923 11.8776 27.1845 14.2397 27.1845C21.9336 27.1845 26.1412 20.8107 26.1412 15.2826C26.1412 15.1014 26.1372 14.9208 26.1291 14.7417C26.947 14.1521 27.6561 13.4156 28.2166 12.5768Z" fill="#F1F2F2"/>
</svg>
