<svg width="65" height="65" viewBox="0 0 65 65" fill="none" xmlns="http://www.w3.org/2000/svg">
<rect width="65" height="65" rx="32.5" fill="#E8FFDC"/>
<path d="M16.2009 21.36C15.5128 19.2744 16.6496 17.0176 18.7354 16.3293C20.8212 15.6411 23.0779 16.7783 23.7661 18.8639L31.5929 42.5856C30.8635 42.3931 30.0878 42.3578 29.3134 42.4994L21.736 19.5337C21.4172 18.5672 20.3717 18.0406 19.4053 18.3594C18.4388 18.6783 17.9121 19.7238 18.231 20.6902C18.4159 21.2507 18.1114 21.8552 17.5508 22.0401C16.9903 22.225 16.3859 21.9205 16.2009 21.36ZM47.0385 39.9689L34.2147 44.2C34.6698 44.7167 35.0306 45.3309 35.2596 46.025C35.2678 46.0498 35.2724 46.0748 35.2801 46.0996L47.7083 41.9989C48.2689 41.814 48.5734 41.2096 48.3885 40.6491C48.2035 40.0884 47.599 39.7839 47.0385 39.9689ZM34.2447 46.3601C34.9713 48.5623 33.775 50.9364 31.573 51.663C29.3709 52.3896 26.9968 51.1934 26.2702 48.9913C25.5435 46.7892 26.7398 44.4151 28.9418 43.6885C31.1439 42.9618 33.5181 44.158 34.2447 46.3601ZM32.251 47.0179C31.8878 45.9168 30.7008 45.3188 29.5996 45.6821C28.4986 46.0453 27.9005 47.2324 28.2638 48.3335C28.6271 49.4345 29.8141 50.0326 30.9152 49.6694C32.0162 49.306 32.6143 48.1189 32.251 47.0179ZM43.7977 23.8781L48.1514 37.0736C48.2439 37.3538 48.0916 37.6561 47.8113 37.7486L34.1083 42.2697C33.8281 42.3622 33.5258 42.21 33.4334 41.9297L29.0797 28.7342C28.9872 28.4539 29.1395 28.1517 29.4198 28.0592L43.1227 23.538C43.403 23.4456 43.7052 23.5978 43.7977 23.8781ZM41.985 31.5433L37.3191 28.9762L35.0979 33.8157L36.5685 34.4925L37.5289 32.3989L39.2631 37.655L40.9228 37.1074L39.1888 31.8521L41.206 32.9624L41.985 31.5433ZM37.9135 23.671L35.13 15.2347C35.0709 15.0555 34.8777 14.9581 34.6985 15.0173L32.3118 15.8048L32.3001 15.8262L32.2801 15.8153L31.0208 16.2308L32.0578 19.3736L30.6374 19.8422L29.6005 16.6994L28.3408 17.1151L28.3313 17.1358L28.309 17.1255L25.9378 17.9079C25.7585 17.9671 25.6613 18.1603 25.7204 18.3395L28.504 26.7759C28.5631 26.955 28.7563 27.0524 28.9355 26.9932L37.6963 24.1026C37.8753 24.0434 37.9727 23.8502 37.9135 23.671Z" fill="#1B8C3B"/>
</svg>
