<svg width="65" height="65" viewBox="0 0 65 65" fill="none" xmlns="http://www.w3.org/2000/svg">
<rect width="65" height="65" rx="32.5" fill="#E8FFDC"/>
<path d="M44.6258 32.3173L50.0584 43.4775C50.2794 43.9314 50.0471 44.3027 49.5423 44.3027H15.4591C14.9543 44.3027 14.722 43.9314 14.943 43.4775L20.3757 32.3173C20.4622 32.1398 20.6944 31.9945 20.8918 31.9945H25.5501C25.6937 31.9945 25.8876 32.0844 25.9815 32.1929C26.2976 32.5581 26.6195 32.9149 26.9405 33.2681C27.2454 33.6034 27.5518 33.943 27.8559 34.2906H22.3276C22.1302 34.2906 21.8979 34.4358 21.8115 34.6134L18.2126 42.0067H46.7887L43.19 34.6134C43.1037 34.4358 42.8714 34.2906 42.6739 34.2906H37.1331C37.4371 33.943 37.7437 33.6034 38.0486 33.2681C38.3705 32.9139 38.6943 32.5578 39.011 32.1925C39.1049 32.0842 39.2984 31.9945 39.4417 31.9945H44.1098C44.3071 31.9945 44.5394 32.1397 44.6258 32.3173ZM40.4878 24.6905C40.4878 30.7886 35.4112 31.9323 33.0236 37.7926C32.8296 38.2688 32.1592 38.2664 31.9651 37.7903C29.8113 32.5065 25.4714 31.0575 24.641 26.3504C23.8235 21.7164 27.0319 17.1772 31.7165 16.7344C36.4808 16.284 40.4878 20.0193 40.4878 24.6905ZM36.7159 24.6905C36.7159 22.3593 34.8261 20.4694 32.4949 20.4694C30.1636 20.4694 28.2739 22.3593 28.2739 24.6905C28.2739 27.0217 30.1636 28.9115 32.4949 28.9115C34.8261 28.9115 36.7159 27.0217 36.7159 24.6905Z" fill="#1B8C3B"/>
</svg>
