<svg width="109" height="47" viewBox="0 0 109 47" fill="none" xmlns="http://www.w3.org/2000/svg">
<g opacity="0.1">
<path d="M0 45.568V0.767998H19.2C24.9173 0.767998 29.44 2.176 32.768 4.992C36.1387 7.76533 37.824 11.648 37.824 16.64C37.824 21.76 36.0533 25.728 32.512 28.544C28.9707 31.36 24.32 32.768 18.56 32.768H12.416V45.568H0ZM12.416 23.04H18.304C20.5227 23.04 22.2507 22.5067 23.488 21.44C24.768 20.3733 25.408 18.9227 25.408 17.088C25.408 15.168 24.768 13.7173 23.488 12.736C22.2507 11.712 20.5013 11.2 18.24 11.2H12.416V23.04Z" fill="#1B8C3B"/>
<path d="M36.0965 45.568V33.088H48.7685V45.568H36.0965Z" fill="#1B8C3B"/>
<path d="M73.1 46.336C64.652 46.336 57.6547 43.8613 52.108 38.912L59.02 30.656C63.5 34.24 68.3427 36.032 73.548 36.032C76.9613 36.032 78.668 34.9653 78.668 32.832C78.668 31.8933 78.156 31.1253 77.132 30.528C76.108 29.888 74.1027 29.2267 71.116 28.544C68.3853 27.904 66.124 27.2853 64.332 26.688C62.5827 26.048 60.8547 25.216 59.148 24.192C57.484 23.1253 56.2467 21.7813 55.436 20.16C54.6253 18.5387 54.22 16.5973 54.22 14.336C54.22 10.112 55.7773 6.67733 58.892 4.032C62.0493 1.344 66.2733 0 71.564 0C78.9027 0 85.0467 1.984 89.996 5.952L83.788 14.72C79.6067 11.776 75.4253 10.304 71.244 10.304C69.7933 10.304 68.684 10.5813 67.916 11.136C67.148 11.6907 66.764 12.416 66.764 13.312C66.764 14.336 67.276 15.1467 68.3 15.744C69.3667 16.3413 71.436 16.9813 74.508 17.664C80.14 18.9013 84.3213 20.5653 87.052 22.656C89.8253 24.704 91.212 27.7333 91.212 31.744C91.212 36.2667 89.5693 39.8293 86.284 42.432C82.9987 45.0347 78.604 46.336 73.1 46.336Z" fill="#1B8C3B"/>
<path d="M96.034 45.568V33.088H108.706V45.568H96.034Z" fill="#1B8C3B"/>
</g>
</svg>
