<svg width="65" height="65" viewBox="0 0 65 65" fill="none" xmlns="http://www.w3.org/2000/svg">
<rect width="65" height="65" rx="32.5" fill="#E8FFDC"/>
<path d="M42.6563 34.715C42.2615 34.4063 38.1411 29.8336 37.0284 29.1876V17.3216C37.0284 16.1156 36.0521 15.1465 34.8533 15.1465H23.6477C22.4418 15.1465 21.4727 16.1228 21.4727 17.3216V38.0961C21.4727 39.3021 22.4489 40.2711 23.6477 40.2711H27.2441H28.5291L28.3281 38.5627C28.2635 38.5052 28.2204 38.4694 28.1558 38.4119H27.438H26.0023C26.0741 38.1248 26.0956 37.8089 26.0382 37.4859C25.8802 36.5886 25.1696 35.8636 24.2723 35.6985C23.9421 35.6339 23.619 35.6554 23.3247 35.7272V19.5541C23.4539 19.5756 23.5903 19.59 23.7267 19.59C24.947 19.59 25.9305 18.5993 25.9305 17.3862C25.9305 17.257 25.9161 17.1277 25.8946 16.9985H32.5849C32.5634 17.1277 32.549 17.257 32.549 17.3862C32.549 18.6065 33.5325 19.59 34.7528 19.59C34.8892 19.59 35.0256 19.5756 35.1548 19.5541V35.3395V39.8763C34.3939 39.3164 33.5469 37.5649 33.5469 37.5649C33.5469 37.5649 33.1305 32.906 30.7688 32.906C30.7042 32.906 30.6467 32.906 30.5821 32.9132C30.5821 32.9132 28.7947 33.064 30.2735 38.175L30.9339 43.8532C30.9339 43.8532 31.6733 46.9328 33.712 49.0648V49.6965C33.712 50.0339 33.9847 50.3138 34.3293 50.3138H40.9694C41.2852 50.3138 41.5437 50.0769 41.5796 49.7683C41.8165 47.5573 42.7353 39.3379 43.2737 38.0889C43.3598 37.8879 43.4316 37.6869 43.4603 37.4715C43.5824 36.7681 43.6254 35.4759 42.6563 34.715Z" fill="#1B8C3B"/>
<path d="M29.4878 22.2315C30.2173 22.2315 30.8087 21.6402 30.8087 20.9107C30.8087 20.1812 30.2173 19.5898 29.4878 19.5898C28.7584 19.5898 28.167 20.1812 28.167 20.9107C28.167 21.6402 28.7584 22.2315 29.4878 22.2315Z" fill="#1B8C3B"/>
<path d="M24.4766 27.8596C24.4766 30.1352 26.0702 32.0375 28.2022 32.5185C28.2668 32.3964 28.3314 32.2887 28.4104 32.1739C29.1139 31.1474 30.0686 30.9607 30.3916 30.932C30.5208 30.9177 30.6501 30.9105 30.7793 30.9105C31.2387 30.9105 31.8632 30.9966 32.5093 31.3412C33.4353 30.4726 34.0168 29.2307 34.0168 27.8596C34.0168 25.2251 31.8776 23.0859 29.2431 23.0859C26.6086 23.0859 24.4766 25.2251 24.4766 27.8596Z" fill="#1B8C3B"/>
</svg>
