<svg width="30" height="30" viewBox="0 0 30 30" fill="none" xmlns="http://www.w3.org/2000/svg">
<circle cx="15" cy="15" r="15" fill="#A1F9BA"/>
<path d="M21.235 13.6136C21.235 18.4628 15.0003 22.6192 15.0003 22.6192C15.0003 22.6192 8.76562 18.4628 8.76562 13.6136C8.76563 11.96 9.42249 10.3742 10.5917 9.205C11.761 8.03577 13.3468 7.37891 15.0003 7.37891C16.6539 7.37891 18.2397 8.03577 19.4089 9.205C20.5781 10.3742 21.235 11.96 21.235 13.6136Z" stroke="#1B8C3B" stroke-width="2" stroke-linecap="round" stroke-linejoin="round"/>
<path d="M15.0001 15.6916C16.1479 15.6916 17.0783 14.7612 17.0783 13.6134C17.0783 12.4656 16.1479 11.5352 15.0001 11.5352C13.8523 11.5352 12.9219 12.4656 12.9219 13.6134C12.9219 14.7612 13.8523 15.6916 15.0001 15.6916Z" stroke="#1B8C3B" stroke-width="2" stroke-linecap="round" stroke-linejoin="round"/>
</svg>
