<svg width="60" height="60" viewBox="0 0 60 60" fill="none" xmlns="http://www.w3.org/2000/svg">
<circle cx="30" cy="30" r="30" fill="url(#paint0_linear)"/>
<path d="M44.4581 21.675L41.8259 19.042C41.4649 18.6807 41.026 18.5 40.51 18.5C39.9936 18.5 39.5546 18.6807 39.1937 19.042L26.4968 31.7618L20.8064 26.0504C20.4451 25.689 20.0064 25.5085 19.4904 25.5085C18.9741 25.5085 18.5355 25.689 18.1741 26.0504L15.5419 28.6835C15.1806 29.0448 15 29.4838 15 30.0001C15 30.5161 15.1806 30.9555 15.5419 31.3168L22.5483 38.325L25.1807 40.9579C25.5418 41.3195 25.9806 41.5 26.4968 41.5C27.0127 41.5 27.4515 41.319 27.8129 40.9579L30.4452 38.325L44.4581 24.3081C44.8191 23.9467 45 23.5078 45 22.9915C45.0003 22.4754 44.8191 22.0364 44.4581 21.675Z" fill="#4CA544"/>
<defs>
<linearGradient id="paint0_linear" x1="30" y1="0" x2="30" y2="60" gradientUnits="userSpaceOnUse">
<stop stop-color="#E8FFDC"/>
<stop offset="1" stop-color="#B6ED9A"/>
</linearGradient>
</defs>
</svg>
