<svg width="30" height="30" viewBox="0 0 30 30" fill="none" xmlns="http://www.w3.org/2000/svg">
<circle cx="15" cy="15" r="15" fill="#A1F9BA"/>
<g clip-path="url(#clip0)">
<path d="M22.5001 18.6452V20.8952C22.5009 21.104 22.4581 21.3108 22.3745 21.5022C22.2908 21.6935 22.168 21.8653 22.0141 22.0065C21.8602 22.1478 21.6785 22.2553 21.4806 22.3222C21.2828 22.3891 21.0731 22.414 20.8651 22.3952C18.5572 22.1444 16.3403 21.3558 14.3926 20.0927C12.5804 18.9411 11.0441 17.4048 9.89257 15.5927C8.62506 13.6361 7.83625 11.4084 7.59007 9.09015C7.57133 8.88275 7.59598 8.67372 7.66245 8.47637C7.72892 8.27902 7.83575 8.09767 7.97615 7.94387C8.11654 7.79007 8.28743 7.66718 8.47792 7.58304C8.6684 7.4989 8.87433 7.45535 9.08257 7.45515H11.3326C11.6966 7.45157 12.0494 7.58046 12.3254 7.8178C12.6014 8.05514 12.7816 8.38474 12.8326 8.74515C12.9275 9.4652 13.1037 10.1722 13.3576 10.8527C13.4585 11.1211 13.4803 11.4128 13.4205 11.6933C13.3607 11.9738 13.2217 12.2312 13.0201 12.4352L12.0676 13.3877C13.1352 15.2653 14.6899 16.82 16.5676 17.8877L17.5201 16.9352C17.724 16.7335 17.9814 16.5945 18.2619 16.5347C18.5424 16.4749 18.8341 16.4967 19.1026 16.5977C19.783 16.8516 20.49 17.0277 21.2101 17.1227C21.5744 17.174 21.9071 17.3576 22.145 17.6383C22.3828 17.919 22.5092 18.2773 22.5001 18.6452Z" stroke="#1B8C3B" stroke-width="2" stroke-linecap="round" stroke-linejoin="round"/>
</g>
<defs>
<clipPath id="clip0">
</clipPath>
</defs>
</svg>
