<svg width="40" height="40" viewBox="0 0 40 40" fill="none" xmlns="http://www.w3.org/2000/svg">
<rect width="40" height="40" rx="4" fill="#DADADA"/>
<path fill-rule="evenodd" clip-rule="evenodd" d="M30.35 11H9.65C9.345 11 9.05249 11.1185 8.83683 11.3295C8.62116 11.5405 8.5 11.8266 8.5 12.125V27.875C8.5 28.1734 8.62116 28.4595 8.83683 28.6705C9.05249 28.8815 9.345 29 9.65 29H30.35C30.655 29 30.9475 28.8815 31.1632 28.6705C31.3788 28.4595 31.5 28.1734 31.5 27.875V12.125C31.5 11.8266 31.3788 11.5405 31.1632 11.3295C30.9475 11.1185 30.655 11 30.35 11ZM29.2 26.75H10.8V13.25H29.2V26.75ZM24.9622 20.9866L21.2466 22.7923L16.9111 15.9286L13.1 24.5H26.9L24.9622 20.9866ZM23.7375 18.875C24.1187 18.875 24.4844 18.7268 24.754 18.4631C25.0236 18.1994 25.175 17.8417 25.175 17.4688C25.175 17.0958 25.0236 16.7381 24.754 16.4744C24.4844 16.2107 24.1187 16.0625 23.7375 16.0625C23.3563 16.0625 22.9906 16.2107 22.721 16.4744C22.4515 16.7381 22.3 17.0958 22.3 17.4688C22.3 17.8417 22.4515 18.1994 22.721 18.4631C22.9906 18.7268 23.3563 18.875 23.7375 18.875Z" fill="white"/>
</svg>
