<svg width="141" height="40" viewBox="0 0 141 40" fill="none" xmlns="http://www.w3.org/2000/svg">
<path d="M1.56015 14.1019C-1.56733 19.5291 0.420866 27.7651 3.87935 32.7589C5.60569 35.2555 7.35349 37.4966 9.7474 37.4966C9.79252 37.4966 9.83776 37.4958 9.8841 37.4939C11.0088 37.4491 11.8216 37.1028 12.6074 36.7681C13.4897 36.3921 14.4022 36.0034 15.8334 36.0034C17.195 36.0034 18.064 36.3795 18.9043 36.7432C19.7324 37.1014 20.5855 37.4721 21.8459 37.4485C24.5425 37.3982 26.1981 34.9799 27.6588 32.8466C29.1831 30.6191 29.9477 28.4563 30.2057 27.6298L30.2161 27.597C30.2652 27.4501 30.1958 27.2897 30.055 27.2251C30.0511 27.2233 30.0368 27.2173 30.0328 27.2156C29.558 27.0214 25.3926 25.1736 25.3488 20.1371C25.3082 16.0452 28.4736 13.8784 29.1085 13.4856L29.1381 13.4672C29.2068 13.4229 29.2547 13.3527 29.271 13.2724C29.2872 13.1922 29.2703 13.1088 29.2242 13.0413C27.0392 9.84388 23.6904 9.36199 22.3421 9.30401C22.1465 9.28448 21.9445 9.27466 21.7417 9.27466C20.1582 9.27466 18.6412 9.87274 17.4224 10.3533C16.5812 10.685 15.8545 10.9715 15.3533 10.9715C14.7902 10.9715 14.0594 10.6815 13.2132 10.3458C12.0815 9.89664 10.7989 9.3877 9.44102 9.3877C9.40864 9.3877 9.37674 9.38807 9.34533 9.38867C6.18812 9.43513 3.20485 11.2414 1.56015 14.1019Z" fill="black"/>
<path d="M22.3468 0.503407C20.4349 0.581276 18.1414 1.75816 16.7706 3.36381C15.6056 4.71341 14.4675 6.9636 14.7674 9.23174C14.7862 9.37365 14.9016 9.48317 15.0444 9.49421C15.1735 9.50428 15.3052 9.50937 15.4364 9.50949C17.3059 9.50949 19.3226 8.47525 20.6998 6.80992C22.1494 5.05145 22.8823 2.79471 22.6606 0.773279C22.6432 0.614873 22.5038 0.497221 22.3468 0.503407Z" fill="black"/>
<path d="M41.42 18L45.732 8.13H47.328L51.64 18H49.82L48.826 15.634H44.192L43.184 18H41.42ZM44.822 14.108H48.196L46.502 10.188L44.822 14.108ZM55.5358 18.154C54.7145 18.154 54.0705 17.8973 53.6038 17.384C53.1372 16.8707 52.9038 16.18 52.9038 15.312V10.608H54.5978V14.808C54.5978 15.3867 54.7332 15.8347 55.0038 16.152C55.2838 16.46 55.6758 16.614 56.1798 16.614C56.6745 16.614 57.0758 16.4507 57.3838 16.124C57.6918 15.7973 57.8458 15.3493 57.8458 14.78V10.608H59.5398V18H57.8458V16.852C57.2578 17.72 56.4878 18.154 55.5358 18.154ZM64.1475 18.126C62.7288 18.126 62.0195 17.4027 62.0195 15.956V12.064H61.0815V10.608H62.0195V8.578H63.7135V10.608H65.7015V12.064H63.7135V15.69C63.7135 16.306 64.0168 16.614 64.6235 16.614C64.9875 16.614 65.3375 16.53 65.6735 16.362V17.748C65.2255 18 64.7168 18.126 64.1475 18.126ZM70.7206 18.168C69.6006 18.168 68.6672 17.7947 67.9206 17.048C67.1739 16.3013 66.8006 15.3913 66.8006 14.318C66.8006 13.2447 67.1786 12.3347 67.9346 11.588C68.6906 10.832 69.6286 10.454 70.7486 10.454C71.8686 10.454 72.8019 10.8273 73.5486 11.574C74.3046 12.3207 74.6826 13.2353 74.6826 14.318C74.6826 15.382 74.3046 16.292 73.5486 17.048C72.7926 17.7947 71.8499 18.168 70.7206 18.168ZM70.7486 16.698C71.4206 16.698 71.9619 16.4693 72.3726 16.012C72.7832 15.5547 72.9886 14.99 72.9886 14.318C72.9886 13.6553 72.7739 13.0953 72.3446 12.638C71.9152 12.1713 71.3739 11.938 70.7206 11.938C70.0579 11.938 69.5212 12.1667 69.1106 12.624C68.6999 13.0813 68.4946 13.646 68.4946 14.318C68.4946 14.9713 68.7092 15.5313 69.1386 15.998C69.5679 16.4647 70.1046 16.698 70.7486 16.698ZM76.4078 18V10.608H78.1018V12.274C78.6244 11.014 79.4971 10.412 80.7198 10.468V12.26H80.6218C79.8564 12.26 79.2451 12.512 78.7878 13.016C78.3304 13.5107 78.1018 14.234 78.1018 15.186V18H76.4078ZM82.219 9.474V7.864H84.039V9.474H82.219ZM82.289 18V10.608H83.983V18H82.289ZM88.7308 18.14C87.5735 18.14 86.5281 17.7713 85.5948 17.034L86.3508 15.886C87.1535 16.4927 87.9608 16.796 88.7728 16.796C89.1368 16.796 89.4168 16.726 89.6128 16.586C89.8181 16.4367 89.9208 16.2313 89.9208 15.97C89.9208 15.8393 89.8835 15.7273 89.8088 15.634C89.7435 15.5313 89.6221 15.438 89.4448 15.354C89.2675 15.27 89.1181 15.2093 88.9968 15.172C88.8755 15.1347 88.6748 15.074 88.3948 14.99L88.2688 14.948C88.0075 14.8733 87.7835 14.8033 87.5968 14.738C87.4195 14.6633 87.2188 14.5653 86.9948 14.444C86.7708 14.3227 86.5888 14.192 86.4488 14.052C86.3088 13.9027 86.1921 13.716 86.0988 13.492C86.0055 13.268 85.9588 13.016 85.9588 12.736C85.9588 12.0547 86.2061 11.5087 86.7008 11.098C87.2048 10.6873 87.8348 10.482 88.5908 10.482C89.5521 10.482 90.4575 10.762 91.3068 11.322L90.6348 12.526C89.8695 12.0593 89.1741 11.826 88.5488 11.826C88.2221 11.826 87.9655 11.896 87.7788 12.036C87.6015 12.176 87.5128 12.3627 87.5128 12.596C87.5128 12.7547 87.5921 12.8993 87.7508 13.03C87.9188 13.1607 88.0821 13.2587 88.2408 13.324C88.4088 13.38 88.6748 13.4687 89.0388 13.59C89.0575 13.5993 89.0808 13.6087 89.1088 13.618C89.1368 13.6273 89.1601 13.632 89.1788 13.632C89.5055 13.7347 89.7808 13.8373 90.0048 13.94C90.2288 14.0333 90.4621 14.164 90.7048 14.332C90.9568 14.5 91.1481 14.71 91.2788 14.962C91.4095 15.2047 91.4748 15.4893 91.4748 15.816C91.4748 16.5627 91.2181 17.1367 90.7048 17.538C90.1915 17.9393 89.5335 18.14 88.7308 18.14ZM96.5848 18.168C95.5021 18.168 94.5968 17.8087 93.8688 17.09C93.1501 16.3713 92.7908 15.4427 92.7908 14.304C92.7908 13.2307 93.1315 12.3207 93.8128 11.574C94.4941 10.8273 95.3575 10.454 96.4028 10.454C97.5228 10.454 98.3908 10.8367 99.0068 11.602C99.6321 12.358 99.9448 13.3007 99.9448 14.43C99.9448 14.6353 99.9355 14.794 99.9168 14.906H94.4848C94.5781 15.494 94.8161 15.956 95.1988 16.292C95.5815 16.6187 96.0528 16.782 96.6128 16.782C97.3408 16.782 98.0081 16.488 98.6148 15.9L99.6088 16.782C98.8435 17.706 97.8355 18.168 96.5848 18.168ZM94.4708 13.786H98.2648C98.2088 13.2167 98.0175 12.75 97.6908 12.386C97.3641 12.022 96.9301 11.84 96.3888 11.84C95.8755 11.84 95.4461 12.022 95.1008 12.386C94.7555 12.7407 94.5455 13.2073 94.4708 13.786ZM104.698 18.154C103.774 18.154 102.971 17.8087 102.29 17.118C101.609 16.418 101.268 15.4753 101.268 14.29C101.268 13.114 101.604 12.1807 102.276 11.49C102.957 10.7993 103.765 10.454 104.698 10.454C105.706 10.454 106.546 10.888 107.218 11.756V7.78H108.912V18H107.218V16.768C106.565 17.692 105.725 18.154 104.698 18.154ZM103.592 16.026C104.012 16.4647 104.516 16.684 105.104 16.684C105.692 16.684 106.196 16.46 106.616 16.012C107.036 15.564 107.246 14.99 107.246 14.29C107.246 13.5993 107.036 13.0347 106.616 12.596C106.196 12.148 105.692 11.924 105.104 11.924C104.507 11.924 104.003 12.1433 103.592 12.582C103.181 13.0113 102.976 13.59 102.976 14.318C102.976 15.018 103.181 15.5873 103.592 16.026ZM42.26 35V25.2H46.628C47.7667 25.2 48.658 25.4847 49.302 26.054C49.946 26.614 50.268 27.37 50.268 28.322C50.268 29.0967 50.058 29.736 49.638 30.24C49.218 30.7347 48.6487 31.0847 47.93 31.29L50.576 35H48.546L46.11 31.584H43.982V35H42.26ZM43.982 30.058H46.502C47.118 30.058 47.608 29.9087 47.972 29.61C48.336 29.3113 48.518 28.9053 48.518 28.392C48.518 27.8693 48.3407 27.468 47.986 27.188C47.6313 26.908 47.132 26.768 46.488 26.768H43.982V30.058ZM55.4325 35.168C54.3498 35.168 53.4445 34.8087 52.7165 34.09C51.9978 33.3713 51.6385 32.4427 51.6385 31.304C51.6385 30.2307 51.9791 29.3207 52.6605 28.574C53.3418 27.8273 54.2051 27.454 55.2505 27.454C56.3705 27.454 57.2385 27.8367 57.8545 28.602C58.4798 29.358 58.7925 30.3007 58.7925 31.43C58.7925 31.6353 58.7831 31.794 58.7645 31.906H53.3325C53.4258 32.494 53.6638 32.956 54.0465 33.292C54.4291 33.6187 54.9005 33.782 55.4605 33.782C56.1885 33.782 56.8558 33.488 57.4625 32.9L58.4565 33.782C57.6911 34.706 56.6831 35.168 55.4325 35.168ZM53.3185 30.786H57.1125C57.0565 30.2167 56.8651 29.75 56.5385 29.386C56.2118 29.022 55.7778 28.84 55.2365 28.84C54.7231 28.84 54.2938 29.022 53.9485 29.386C53.6031 29.7407 53.3931 30.2073 53.3185 30.786ZM63.0277 35.14C61.8704 35.14 60.825 34.7713 59.8917 34.034L60.6477 32.886C61.4504 33.4927 62.2577 33.796 63.0697 33.796C63.4337 33.796 63.7137 33.726 63.9097 33.586C64.115 33.4367 64.2177 33.2313 64.2177 32.97C64.2177 32.8393 64.1804 32.7273 64.1057 32.634C64.0404 32.5313 63.919 32.438 63.7417 32.354C63.5644 32.27 63.415 32.2093 63.2937 32.172C63.1724 32.1347 62.9717 32.074 62.6917 31.99L62.5657 31.948C62.3044 31.8733 62.0804 31.8033 61.8937 31.738C61.7164 31.6633 61.5157 31.5653 61.2917 31.444C61.0677 31.3227 60.8857 31.192 60.7457 31.052C60.6057 30.9027 60.489 30.716 60.3957 30.492C60.3024 30.268 60.2557 30.016 60.2557 29.736C60.2557 29.0547 60.503 28.5087 60.9977 28.098C61.5017 27.6873 62.1317 27.482 62.8877 27.482C63.849 27.482 64.7544 27.762 65.6037 28.322L64.9317 29.526C64.1664 29.0593 63.471 28.826 62.8457 28.826C62.519 28.826 62.2624 28.896 62.0757 29.036C61.8984 29.176 61.8097 29.3627 61.8097 29.596C61.8097 29.7547 61.889 29.8993 62.0477 30.03C62.2157 30.1607 62.379 30.2587 62.5377 30.324C62.7057 30.38 62.9717 30.4687 63.3357 30.59C63.3544 30.5993 63.3777 30.6087 63.4057 30.618C63.4337 30.6273 63.457 30.632 63.4757 30.632C63.8024 30.7347 64.0777 30.8373 64.3017 30.94C64.5257 31.0333 64.759 31.164 65.0017 31.332C65.2537 31.5 65.445 31.71 65.5757 31.962C65.7064 32.2047 65.7717 32.4893 65.7717 32.816C65.7717 33.5627 65.515 34.1367 65.0017 34.538C64.4884 34.9393 63.8304 35.14 63.0277 35.14ZM70.8817 35.168C69.799 35.168 68.8937 34.8087 68.1657 34.09C67.447 33.3713 67.0877 32.4427 67.0877 31.304C67.0877 30.2307 67.4284 29.3207 68.1097 28.574C68.791 27.8273 69.6544 27.454 70.6997 27.454C71.8197 27.454 72.6877 27.8367 73.3037 28.602C73.929 29.358 74.2417 30.3007 74.2417 31.43C74.2417 31.6353 74.2324 31.794 74.2137 31.906H68.7817C68.875 32.494 69.113 32.956 69.4957 33.292C69.8784 33.6187 70.3497 33.782 70.9097 33.782C71.6377 33.782 72.305 33.488 72.9117 32.9L73.9057 33.782C73.1404 34.706 72.1324 35.168 70.8817 35.168ZM68.7677 30.786H72.5617C72.5057 30.2167 72.3144 29.75 71.9877 29.386C71.661 29.022 71.227 28.84 70.6857 28.84C70.1724 28.84 69.743 29.022 69.3977 29.386C69.0524 29.7407 68.8424 30.2073 68.7677 30.786ZM76.0409 35V24.78H77.7349V35H76.0409ZM80.0468 35V24.78H81.7408V35H80.0468ZM87.3426 35.168C86.26 35.168 85.3546 34.8087 84.6266 34.09C83.908 33.3713 83.5486 32.4427 83.5486 31.304C83.5486 30.2307 83.8893 29.3207 84.5706 28.574C85.252 27.8273 86.1153 27.454 87.1606 27.454C88.2806 27.454 89.1486 27.8367 89.7646 28.602C90.39 29.358 90.7026 30.3007 90.7026 31.43C90.7026 31.6353 90.6933 31.794 90.6746 31.906H85.2426C85.336 32.494 85.574 32.956 85.9566 33.292C86.3393 33.6187 86.8106 33.782 87.3706 33.782C88.0986 33.782 88.766 33.488 89.3726 32.9L90.3666 33.782C89.6013 34.706 88.5933 35.168 87.3426 35.168ZM85.2286 30.786H89.0226C88.9666 30.2167 88.7753 29.75 88.4486 29.386C88.122 29.022 87.688 28.84 87.1466 28.84C86.6333 28.84 86.204 29.022 85.8586 29.386C85.5133 29.7407 85.3033 30.2073 85.2286 30.786ZM92.4038 35V27.608H94.0978V29.274C94.6205 28.014 95.4932 27.412 96.7158 27.468V29.26H96.6178C95.8525 29.26 95.2412 29.512 94.7838 30.016C94.3265 30.5107 94.0978 31.234 94.0978 32.186V35H92.4038Z" fill="black"/>
</svg>
