<svg width="18" height="21" viewBox="0 0 18 21" fill="none" xmlns="http://www.w3.org/2000/svg">
<path fill-rule="evenodd" clip-rule="evenodd" d="M0 1C0 0.447715 0.447715 0 1 0C1.55228 0 2 0.447715 2 1V11C2 13.2091 3.79086 15 6 15H14.5858L13.1109 13.5251C12.7204 13.1346 12.7204 12.5014 13.1109 12.1109C13.5014 11.7204 14.1346 11.7204 14.5251 12.1109L17.7071 15.2929C18.0976 15.6834 18.0976 16.3166 17.7071 16.7071L14.5251 19.8891C14.1346 20.2796 13.5014 20.2796 13.1109 19.8891C12.7204 19.4986 12.7204 18.8654 13.1109 18.4749L14.5858 17H6C2.68629 17 0 14.3137 0 11V1Z" fill="#DADADA"/>
</svg>
