<svg width="14" height="10" viewBox="0 0 14 10" fill="none" xmlns="http://www.w3.org/2000/svg">
<path d="M13.0831 2.21975C13.0831 2.42455 13.0099 2.59863 12.8633 2.74199L7.18105 8.30232L6.11366 9.3468C5.96715 9.49016 5.78926 9.56184 5.57996 9.56184C5.37067 9.56184 5.19277 9.49016 5.04627 9.3468L3.97887 8.30232L1.13773 5.52216C0.991221 5.3788 0.917969 5.20472 0.917969 4.99992C0.917969 4.79511 0.991221 4.62103 1.13773 4.47767L2.20512 3.43319C2.35162 3.28983 2.52952 3.21815 2.73882 3.21815C2.94811 3.21815 3.12601 3.28983 3.27251 3.43319L5.57996 5.6988L10.7286 0.653029C10.8751 0.509668 11.053 0.437988 11.2623 0.437988C11.4716 0.437988 11.6495 0.509668 11.796 0.653029L12.8633 1.69751C13.0099 1.84087 13.0831 2.01495 13.0831 2.21975Z" fill="white"/>
</svg>
