<svg width="15" height="15" viewBox="0 0 15 15" fill="none" xmlns="http://www.w3.org/2000/svg">
<rect width="15" height="15" rx="2" fill="#E8FFDC"/>
<path d="M11.8555 5.50925C11.8555 5.6559 11.8031 5.78055 11.6982 5.88321L7.62929 9.86475L6.86497 10.6127C6.76006 10.7153 6.63267 10.7666 6.48281 10.7666C6.33294 10.7666 6.20555 10.7153 6.10065 10.6127L5.33633 9.86475L3.30189 7.87398C3.19698 7.77132 3.14453 7.64667 3.14453 7.50002C3.14453 7.35337 3.19698 7.22872 3.30189 7.12606L4.06621 6.37815C4.17112 6.2755 4.2985 6.22417 4.44837 6.22417C4.59824 6.22417 4.72562 6.2755 4.83053 6.37815L6.48281 8.00046L10.1695 4.38738C10.2744 4.28473 10.4018 4.2334 10.5517 4.2334C10.7015 4.2334 10.8289 4.28473 10.9338 4.38738L11.6982 5.13529C11.8031 5.23795 11.8555 5.3626 11.8555 5.50925Z" fill="#1B8C3B"/>
</svg>
