<svg width="19" height="19" viewBox="0 0 19 19" fill="none" xmlns="http://www.w3.org/2000/svg">
<path d="M18.1013 0.912345C17.975 0.785778 17.825 0.685364 17.6598 0.616852C17.4946 0.54834 17.3176 0.513074 17.1388 0.513074C16.96 0.513074 16.7829 0.54834 16.6178 0.616852C16.4526 0.685364 16.3026 0.785778 16.1763 0.912345L9.5 7.57495L2.82375 0.898692C2.69735 0.772291 2.54729 0.672024 2.38214 0.603616C2.21698 0.535209 2.03998 0.5 1.86122 0.5C1.68246 0.5 1.50545 0.535209 1.3403 0.603616C1.17515 0.672024 1.02509 0.772291 0.898692 0.898692C0.772291 1.02509 0.672024 1.17515 0.603616 1.3403C0.535209 1.50545 0.5 1.68246 0.5 1.86122C0.5 2.03998 0.535209 2.21698 0.603616 2.38214C0.672024 2.54729 0.772291 2.69735 0.898692 2.82375L7.57495 9.5L0.898692 16.1763C0.772291 16.3027 0.672024 16.4527 0.603616 16.6179C0.535209 16.783 0.5 16.96 0.5 17.1388C0.5 17.3175 0.535209 17.4945 0.603616 17.6597C0.672024 17.8248 0.772291 17.9749 0.898692 18.1013C1.02509 18.2277 1.17515 18.328 1.3403 18.3964C1.50545 18.4648 1.68246 18.5 1.86122 18.5C2.03998 18.5 2.21698 18.4648 2.38214 18.3964C2.54729 18.328 2.69735 18.2277 2.82375 18.1013L9.5 11.4251L16.1763 18.1013C16.3027 18.2277 16.4527 18.328 16.6179 18.3964C16.783 18.4648 16.96 18.5 17.1388 18.5C17.3175 18.5 17.4945 18.4648 17.6597 18.3964C17.8248 18.328 17.9749 18.2277 18.1013 18.1013C18.2277 17.9749 18.328 17.8248 18.3964 17.6597C18.4648 17.4945 18.5 17.3175 18.5 17.1388C18.5 16.96 18.4648 16.783 18.3964 16.6179C18.328 16.4527 18.2277 16.3027 18.1013 16.1763L11.4251 9.5L18.1013 2.82375C18.6201 2.30494 18.6201 1.43115 18.1013 0.912345Z" fill="#6EC045"/>
</svg>
