<svg width="65" height="65" viewBox="0 0 65 65" fill="none" xmlns="http://www.w3.org/2000/svg">
<rect width="65" height="65" rx="32.5" fill="#E8FFDC"/>
<path fill-rule="evenodd" clip-rule="evenodd" d="M43.4965 25.1583C43.6068 25.1236 43.7521 25.193 43.8973 25.3838C43.8973 25.3838 43.8973 25.3838 50.461 31.78C50.8444 32.1616 50.8444 32.74 50.461 33.0233C50.461 33.0233 50.461 33.0233 43.8973 39.5178C43.7521 39.7086 43.6068 39.7549 43.4965 39.6971C43.3861 39.6392 43.3164 39.4715 43.3164 39.2286V25.5746C43.3164 25.3375 43.3861 25.193 43.4965 25.1583Z" fill="#1B8C3B"/>
<path fill-rule="evenodd" clip-rule="evenodd" d="M32.264 14.4998H32.7287L33.176 14.6848C33.176 14.6848 33.176 14.6848 39.9314 21.3701C40.2218 21.7518 40.1231 22.041 39.641 22.041C39.641 22.041 39.641 22.041 36.8412 22.041C36.3591 22.041 35.9757 22.4227 35.9757 22.9027C35.9757 22.9027 35.9757 22.9027 35.9757 27.8646C35.9757 28.3446 35.5865 28.7263 35.0057 28.7263C35.0057 28.7263 35.0057 28.7263 30.0858 28.7263C29.6037 28.7263 29.2145 28.3446 29.2145 27.8646C29.2145 27.8646 29.2145 27.8646 29.2145 22.9027C29.2145 22.4227 28.8311 22.041 28.3432 22.041H25.3517C24.8696 22.041 24.7709 21.7518 25.0613 21.3701C25.0613 21.3701 25.0613 21.3701 31.8226 14.6848L32.264 14.4998Z" fill="#1B8C3B"/>
<path fill-rule="evenodd" clip-rule="evenodd" d="M21.6822 25.0133C21.8041 25.0711 21.8796 25.2388 21.8796 25.4817V39.4191C21.8796 39.662 21.8041 39.8066 21.6822 39.8528C21.566 39.8991 21.3975 39.8528 21.2 39.7083C21.2 39.7083 21.2 39.7082 14.5375 33.0229C14.1542 32.7396 14.1542 32.1612 14.5375 31.7796C14.5375 31.7796 14.5375 31.7796 21.2 25.1926C21.3975 25.0017 21.566 24.9555 21.6822 25.0133Z" fill="#1B8C3B"/>
<path fill-rule="evenodd" clip-rule="evenodd" d="M30.0859 35.9844C30.0859 35.9844 30.0859 35.9844 35.0058 35.9844C35.5867 35.9844 35.9759 36.3661 35.9759 36.8461C35.9759 36.8461 35.9759 36.8461 35.9759 42.0972C35.9759 42.6697 36.3592 43.0514 36.8413 43.0514H39.4494C39.9315 43.0514 40.1232 43.3347 39.7399 43.6239C39.7399 43.6239 39.7399 43.6239 33.1761 50.2109C32.9786 50.4017 32.7404 50.5001 32.4965 50.5001C32.2583 50.5001 32.0144 50.4017 31.8227 50.2109C31.8227 50.2109 31.8227 50.2109 25.2589 43.6239C24.8697 43.3347 25.0614 43.0514 25.5435 43.0514C25.5435 43.0514 25.5435 43.0514 28.3433 43.0514C28.8312 43.0514 29.2146 42.6697 29.2146 42.0972C29.2146 42.0972 29.2146 42.0972 29.2146 36.8461C29.2146 36.3661 29.6038 35.9844 30.0859 35.9844Z" fill="#1B8C3B"/>
</svg>
