<svg width="17" height="17" viewBox="0 0 17 17" fill="none" xmlns="http://www.w3.org/2000/svg">
<path d="M15.2568 10.4831C14.8779 10.8182 14.4035 11.0001 13.9229 11.0001H13.4362H11.6833H10.6852V13.4224C10.6852 14.4405 10.3988 15.1745 9.83194 15.6054C8.9355 16.2883 7.7002 15.899 7.64783 15.8798C7.4938 15.8288 7.38906 15.682 7.38906 15.516V12.8064C7.38906 11.9224 6.98243 11.1724 6.17841 10.5756C5.5777 10.1288 4.96467 9.93412 4.89998 9.91178L4.81064 9.88944C4.67818 10.1224 4.43481 10.2788 4.15448 10.2788H1.7609C1.34194 10.2788 1 9.92454 1 9.4905V2.20118C1 1.76714 1.34194 1.41288 1.7609 1.41288H4.16064C4.39477 1.41288 4.60732 1.52459 4.74595 1.69693C5.13102 1.27246 5.67628 1.00757 6.26774 1.00757H8.29782H8.5073H12.6691C14.0831 1.00757 14.9857 1.77352 15.1459 3.11394L15.9746 8.44051C16.0885 9.20646 15.8144 9.99156 15.2568 10.4831ZM4.17913 2.20118C4.17913 2.18841 4.16989 2.17884 4.15756 2.17884H1.7609C1.74857 2.17884 1.73933 2.18841 1.73933 2.20118V9.4905C1.73933 9.50327 1.74857 9.51284 1.7609 9.51284H4.16064C4.17297 9.51284 4.18221 9.50327 4.18221 9.4905V2.20118H4.17913ZM15.2383 8.56178L14.4127 3.22564C14.4127 3.22245 14.4127 3.21607 14.4096 3.20968C14.2957 2.25543 13.7104 1.77033 12.666 1.77033H8.50422H8.29474H6.26466C5.6085 1.77033 5.0386 2.27777 4.93694 2.94798C4.93386 2.97032 4.9277 2.99266 4.92154 3.015V9.12987L5.08173 9.16816C5.08789 9.16816 5.09097 9.17136 5.09713 9.17136C5.12794 9.18093 5.85803 9.39476 6.59428 9.93731C7.60162 10.6777 8.13147 11.6703 8.13147 12.8064V15.2096C8.45185 15.2639 9.00019 15.2926 9.39758 14.9862C9.76108 14.7086 9.94592 14.182 9.94592 13.4224V10.6203C9.94592 10.4096 10.1123 10.2373 10.3156 10.2373H11.6833H13.4362H13.9229C14.2279 10.2373 14.5329 10.1192 14.7762 9.9022C15.1397 9.57986 15.3184 9.06604 15.2383 8.56178Z" fill="#6EC045" stroke="#6EC045" stroke-width="0.5"/>
</svg>
