<svg width="12" height="8" viewBox="0 0 12 8" fill="none" xmlns="http://www.w3.org/2000/svg">
<path d="M0.518128 0.948091C0.954128 0.502091 1.56113 0.467091 2.09413 0.948091L6.00213 4.69509L9.91013 0.948091C10.4431 0.467091 11.0511 0.502091 11.4841 0.948091C11.9201 1.39309 11.8921 2.14509 11.4841 2.56309C11.0781 2.98109 6.78913 7.06509 6.78913 7.06509C6.68699 7.17094 6.56458 7.25513 6.42919 7.31264C6.29381 7.37014 6.14822 7.39977 6.00113 7.39977C5.85404 7.39977 5.70845 7.37014 5.57306 7.31264C5.43768 7.25513 5.31526 7.17094 5.21313 7.06509C5.21313 7.06509 0.926128 2.98109 0.518128 2.56309C0.109128 2.14509 0.0821277 1.39309 0.518128 0.948091Z" fill="#838383"/>
</svg>
