<svg width="20" height="20" viewBox="0 0 20 20" fill="none" xmlns="http://www.w3.org/2000/svg">
<circle cx="10" cy="10" r="10" fill="#F7F7F7"/>
<g clip-path="url(#clip0)">
<path d="M9.8651 5C11.5949 5 13.2978 5.79663 13.2978 7.70211C13.2978 9.45929 11.2842 10.1351 10.8518 10.77C10.5272 11.2423 10.6356 11.906 9.74359 11.906C9.16254 11.906 8.87872 11.4333 8.87872 11.0009C8.87872 9.39168 11.2431 9.02749 11.2431 7.70243C11.2431 6.97308 10.7577 6.54064 9.94642 6.54064C8.21666 6.54064 8.89211 8.32398 7.58204 8.32398C7.10909 8.32398 6.70313 8.04015 6.70313 7.49992C6.70281 6.17454 8.21602 5 9.8651 5ZM9.79781 12.7833C10.405 12.7833 10.906 13.2827 10.906 13.8918C10.906 14.5009 10.406 15.0003 9.79781 15.0003C9.18965 15.0003 8.68928 14.5015 8.68928 13.8918C8.68928 13.283 9.18965 12.7833 9.79781 12.7833Z" fill="#6EC045"/>
</g>
<defs>
<clipPath id="clip0">
<rect width="10" height="10" fill="white" transform="translate(5 5)"/>
</clipPath>
</defs>
</svg>
