<svg width="17" height="17" viewBox="0 0 17 17" fill="none" xmlns="http://www.w3.org/2000/svg">
<path d="M15.2568 6.53477C14.8779 6.19967 14.4035 6.01775 13.9229 6.01775H13.4362H11.6833H10.6852V3.59543C10.6852 2.57735 10.3988 1.84331 9.83194 1.41246C8.9355 0.729483 7.7002 1.11884 7.64783 1.13799C7.4938 1.18906 7.38906 1.33586 7.38906 1.50182V4.21138C7.38906 5.09542 6.98243 5.84541 6.17841 6.44222C5.5777 6.88903 4.96467 7.0837 4.89998 7.10605L4.81064 7.12839C4.67818 6.89541 4.43481 6.73903 4.15448 6.73903H1.7609C1.34194 6.73903 1 7.09328 1 7.52732V14.8166C1 15.2507 1.34194 15.6049 1.7609 15.6049H4.16064C4.39477 15.6049 4.60732 15.4932 4.74595 15.3209C5.13102 15.7454 5.67628 16.0103 6.26774 16.0103H8.29782H8.5073H12.6691C14.0831 16.0103 14.9857 15.2443 15.1459 13.9039L15.9746 8.57731C16.0885 7.81136 15.8144 7.02626 15.2568 6.53477ZM4.17913 14.8166C4.17913 14.8294 4.16989 14.839 4.15756 14.839H1.7609C1.74857 14.839 1.73933 14.8294 1.73933 14.8166V7.52732C1.73933 7.51455 1.74857 7.50498 1.7609 7.50498H4.16064C4.17297 7.50498 4.18221 7.51455 4.18221 7.52732V14.8166H4.17913ZM15.2383 8.45604L14.4127 13.7922C14.4127 13.7954 14.4127 13.8018 14.4096 13.8081C14.2957 14.7624 13.7104 15.2475 12.666 15.2475H8.50422H8.29474H6.26466C5.6085 15.2475 5.0386 14.74 4.93694 14.0698C4.93386 14.0475 4.9277 14.0252 4.92154 14.0028V7.88796L5.08173 7.84966C5.08789 7.84966 5.09097 7.84647 5.09713 7.84647C5.12794 7.83689 5.85803 7.62306 6.59428 7.08051C7.60162 6.34009 8.13147 5.34754 8.13147 4.21138V1.8082C8.45185 1.75395 9.00019 1.72522 9.39758 2.0316C9.76109 2.30926 9.94592 2.83585 9.94592 3.59543V6.39754C9.94592 6.60818 10.1123 6.78052 10.3156 6.78052H11.6833H13.4362H13.9229C14.2279 6.78052 14.5329 6.8986 14.7762 7.11562C15.1397 7.43796 15.3184 7.95179 15.2383 8.45604Z" fill="#6EC045" stroke="#6EC045" stroke-width="0.5"/>
</svg>
