<svg width="20" height="18" viewBox="0 0 20 18" fill="none" xmlns="http://www.w3.org/2000/svg">
<path d="M9.42937 0.756229C9.60898 0.203443 10.391 0.203444 10.5706 0.75623L12.3349 6.18622C12.4153 6.43344 12.6456 6.60081 12.9056 6.60081H18.615C19.1962 6.60081 19.4379 7.34458 18.9677 7.68622L14.3487 11.0421C14.1384 11.1949 14.0504 11.4658 14.1307 11.713L15.895 17.143C16.0746 17.6957 15.4419 18.1554 14.9717 17.8138L10.3527 14.4579C10.1424 14.3051 9.85762 14.3051 9.64733 14.4579L5.0283 17.8138C4.55807 18.1554 3.92538 17.6957 4.105 17.143L5.86931 11.713C5.94963 11.4657 5.86164 11.1949 5.65134 11.0421L1.03232 7.68622C0.562088 7.34458 0.803755 6.60081 1.38499 6.60081H7.09442C7.35436 6.60081 7.58473 6.43344 7.66505 6.18622L9.42937 0.756229Z" fill="#DADADA"/>
</svg>
