<svg width="65" height="65" viewBox="0 0 65 65" fill="none" xmlns="http://www.w3.org/2000/svg">
<rect width="65" height="65" rx="32.5" fill="#E8FFDC"/>
<path d="M46.8592 30.5047L32.723 16.3671C32.1661 15.8101 31.4364 15.5312 30.7067 15.5312C29.9769 15.5312 29.2465 15.8101 28.6903 16.3671L20.9487 24.1072C19.8348 25.2211 19.8348 27.0618 20.9487 28.1758L22.2318 29.494H25.1915L22.4289 26.6956C22.2354 26.5013 22.2067 26.2583 22.2067 26.1407C22.2067 26.0232 22.2354 25.7888 22.4289 25.5953L23.4511 24.6046L28.3089 29.494H32.9689L25.7807 22.27L30.1698 17.8637C30.3633 17.6702 30.5891 17.6337 30.7067 17.6337C30.8242 17.6337 31.05 17.658 31.2435 17.8508L45.3805 31.9863C45.5747 32.1806 45.6041 32.4042 45.6041 32.5225C45.6041 32.6401 45.5539 32.8651 45.3597 33.0594L44.5583 33.8414V36.8011L46.8406 34.5396C47.9538 33.4235 47.9739 31.6186 46.8592 30.5047Z" fill="#1B8C3B"/>
<path d="M40.2282 30.8184H20.2342C18.6594 30.8184 17.3125 32.0871 17.3125 33.6619V41.2243H43.0445V33.6619C43.0445 32.0871 41.803 30.8184 40.2282 30.8184ZM24.3 38.6495C23.7416 38.6495 23.2362 38.4273 22.8635 38.0689C22.4907 38.4273 21.9847 38.6495 21.4277 38.6495C20.2822 38.6495 19.3525 37.7212 19.3525 36.5736C19.3525 35.4274 20.2815 34.4985 21.4277 34.4985C21.9854 34.4985 22.4914 34.72 22.8635 35.0784C23.2362 34.72 23.7416 34.4985 24.3 34.4985C25.4461 34.4985 26.3751 35.4274 26.3751 36.5736C26.3751 37.7212 25.4461 38.6495 24.3 38.6495Z" fill="#1B8C3B"/>
<path d="M17.3125 44.6091C17.3125 46.184 18.6587 47.4692 20.2342 47.4692H40.2282C41.803 47.4692 43.0452 46.184 43.0452 44.6091V44.4414H17.3125V44.6091Z" fill="#1B8C3B"/>
</svg>
