<svg width="65" height="65" viewBox="0 0 65 65" fill="none" xmlns="http://www.w3.org/2000/svg">
<rect width="65" height="65" rx="32.5" fill="#E8FFDC"/>
<path d="M43.1696 20.4355H42.2821V42.2393C42.2821 43.6878 41.103 44.8668 39.6545 44.8668H30.6623H23.5117V45.6751C23.5117 46.6006 24.2629 47.3518 25.1884 47.3518H34.1774H43.1664C44.092 47.3518 44.8431 46.6006 44.8431 45.6751V22.1123C44.8432 21.1867 44.0951 20.4355 43.1696 20.4355Z" fill="#1B8C3B"/>
<path d="M30.6625 43.9162H39.6515C40.5771 43.9162 41.3283 43.1651 41.3283 42.2396V20.4359V18.6767C41.3283 17.7512 40.5771 17 39.6515 17H30.6625H27.6736V17.5547C27.6799 17.6117 27.6831 17.672 27.6831 17.7322V21.3867V22.3249C27.6831 23.6276 26.6245 24.6863 25.3218 24.6863H24.3836H20.729C20.6815 24.6863 20.6308 24.6831 20.5832 24.68H20V42.2396C20 43.1651 20.7512 43.9162 21.6767 43.9162H23.5151H30.6625ZM31.0017 38.2173H25.1411C24.7037 38.2173 24.3487 37.8623 24.3487 37.4249C24.3487 36.9875 24.7037 36.6325 25.1411 36.6325H31.0049C31.4423 36.6325 31.7973 36.9875 31.7973 37.4249C31.7973 37.8623 31.4391 38.2173 31.0017 38.2173ZM36.8655 34.1729H25.1411C24.7037 34.1729 24.3487 33.8179 24.3487 33.3805C24.3487 32.9431 24.7037 32.5881 25.1411 32.5881H36.8655C37.3029 32.5881 37.6579 32.9431 37.6579 33.3805C37.6579 33.8179 37.3029 34.1729 36.8655 34.1729ZM25.1411 28.2933H36.8655C37.3029 28.2933 37.6579 28.6483 37.6579 29.0857C37.6579 29.5231 37.3029 29.8781 36.8655 29.8781H25.1411C24.7037 29.8781 24.3487 29.5231 24.3487 29.0857C24.3487 28.6483 24.7037 28.2933 25.1411 28.2933Z" fill="#1B8C3B"/>
<path d="M20.7281 23.7354H25.3208C25.324 23.7354 25.3303 23.7354 25.3335 23.7354C26.1005 23.7291 26.7218 23.1079 26.7281 22.3408C26.7281 22.3376 26.7281 22.3313 26.7281 22.3281V17.7322C26.7281 17.3075 26.3795 17.0254 26.0182 17.0254C25.8438 17.0254 25.6695 17.0888 25.5237 17.2346L20.2273 22.531C19.7835 22.9747 20.0973 23.7354 20.7281 23.7354Z" fill="#1B8C3B"/>
</svg>
