<svg width="46" height="46" viewBox="0 0 46 46" fill="none" xmlns="http://www.w3.org/2000/svg">
<rect x="1.5" y="1.5" width="43" height="43" rx="3" fill="white" stroke="#6EC045" stroke-width="2"/>
<line x1="9.60156" y1="2.30005" x2="9.60156" y2="43.7001" stroke="#6EC045" stroke-width="2"/>
<line x1="36.6016" y1="2.30005" x2="36.6016" y2="43.7001" stroke="#6EC045" stroke-width="2"/>
<line x1="1.39844" y1="8.5" x2="9.49844" y2="8.5" stroke="#6EC045" stroke-width="2"/>
<line x1="1.39844" y1="15.7" x2="9.49844" y2="15.7" stroke="#6EC045" stroke-width="2"/>
<line x1="1.39844" y1="22.8999" x2="9.49844" y2="22.8999" stroke="#6EC045" stroke-width="2"/>
<line x1="1.39844" y1="30.1001" x2="9.49844" y2="30.1001" stroke="#6EC045" stroke-width="2"/>
<line x1="1.39844" y1="37.3" x2="9.49844" y2="37.3" stroke="#6EC045" stroke-width="2"/>
<line x1="36.5" y1="8.5" x2="44.6" y2="8.5" stroke="#6EC045" stroke-width="2"/>
<line x1="36.5" y1="15.7" x2="44.6" y2="15.7" stroke="#6EC045" stroke-width="2"/>
<line x1="36.5" y1="22.8999" x2="44.6" y2="22.8999" stroke="#6EC045" stroke-width="2"/>
<line x1="36.5" y1="30.1001" x2="44.6" y2="30.1001" stroke="#6EC045" stroke-width="2"/>
<line x1="36.5" y1="37.3" x2="44.6" y2="37.3" stroke="#6EC045" stroke-width="2"/>
<path d="M28.3155 22.7525L19.7308 16.7438C19.6399 16.6804 19.5221 16.6738 19.425 16.7252C19.3276 16.7771 19.2666 16.8793 19.2666 16.991V29.0085C19.2666 29.1203 19.3276 29.2227 19.425 29.2747C19.4682 29.2976 19.5156 29.309 19.5626 29.309C19.6215 29.309 19.6801 29.2909 19.7308 29.2558L28.3155 23.2471C28.3957 23.1909 28.4434 23.0986 28.4434 22.9998C28.4434 22.9009 28.3954 22.8087 28.3155 22.7525Z" fill="#6EC045"/>
</svg>
