<svg width="40" height="40" viewBox="0 0 40 40" fill="none" xmlns="http://www.w3.org/2000/svg">
<rect width="40" height="40" rx="4" fill="#FF0000"/>
<path d="M23.4467 25.8259V29.3583C23.4467 30.106 23.2259 30.4799 22.7843 30.4799C22.5239 30.4799 22.2691 30.3571 22.02 30.1116V25.0725C22.2691 24.827 22.5239 24.7042 22.7843 24.7042C23.2259 24.7042 23.4467 25.0781 23.4467 25.8259ZM29.1872 25.8426V26.6127H27.6586V25.8426C27.6586 25.0837 27.9134 24.7042 28.4229 24.7042C28.9324 24.7042 29.1872 25.0837 29.1872 25.8426ZM12.7809 22.1931H14.5982V20.6194H9.29925V22.1931H11.0825V31.7188H12.7809V22.1931ZM17.6722 31.7188H19.1838V23.4487H17.6722V29.7768C17.3325 30.2455 17.0099 30.4799 16.7041 30.4799C16.5003 30.4799 16.3815 30.3627 16.3475 30.1283C16.3362 30.0949 16.3305 29.8996 16.3305 29.5424V23.4487H14.819V29.9944C14.819 30.5413 14.8642 30.9487 14.9548 31.2165C15.0907 31.6295 15.419 31.8359 15.9399 31.8359C16.4834 31.8359 17.0608 31.4955 17.6722 30.8147V31.7188ZM24.9582 29.2411V25.9431C24.9582 25.1283 24.9073 24.5759 24.8054 24.2857C24.6129 23.6607 24.2109 23.3482 23.5995 23.3482C23.0334 23.3482 22.5069 23.6496 22.02 24.2522V20.6194H20.5085V31.7188H22.02V30.9152C22.5296 31.529 23.056 31.8359 23.5995 31.8359C24.2109 31.8359 24.6129 31.529 24.8054 30.9152C24.9073 30.6138 24.9582 30.0558 24.9582 29.2411ZM30.6987 29.0737V28.856H29.1532C29.1532 29.4252 29.1419 29.7656 29.1192 29.8772C29.04 30.279 28.8135 30.4799 28.4399 30.4799C27.919 30.4799 27.6586 30.0949 27.6586 29.3248V27.8683H30.6987V26.144C30.6987 25.2623 30.5459 24.615 30.2402 24.202C29.7986 23.6328 29.1985 23.3482 28.4399 23.3482C27.67 23.3482 27.0642 23.6328 26.6226 24.202C26.3056 24.615 26.1471 25.2623 26.1471 26.144V29.0402C26.1471 29.9219 26.3113 30.5692 26.6396 30.9821C27.0812 31.5513 27.6926 31.8359 28.4738 31.8359C29.2891 31.8359 29.9005 31.5402 30.3081 30.9487C30.5119 30.6473 30.6308 30.346 30.6647 30.0446C30.6874 29.9442 30.6987 29.6205 30.6987 29.0737ZM20.3726 13.7891V10.2734C20.3726 9.50335 20.1292 9.1183 19.6423 9.1183C19.1555 9.1183 18.912 9.50335 18.912 10.2734V13.7891C18.912 14.5703 19.1555 14.9609 19.6423 14.9609C20.1292 14.9609 20.3726 14.5703 20.3726 13.7891ZM32.5839 26.3616C32.5839 28.9732 32.4367 30.9263 32.1423 32.221C31.9838 32.8795 31.6555 33.4319 31.1573 33.8783C30.6591 34.3248 30.0816 34.5815 29.4249 34.6484C27.3416 34.8828 24.1996 35 19.999 35C15.7983 35 12.6564 34.8828 10.573 34.6484C9.91633 34.5815 9.33605 34.3248 8.8322 33.8783C8.32835 33.4319 8.00283 32.8795 7.85564 32.221C7.56125 30.971 7.41406 29.0179 7.41406 26.3616C7.41406 23.75 7.56125 21.7969 7.85564 20.5022C8.01415 19.8438 8.3425 19.2913 8.84069 18.8449C9.33888 18.3984 9.92199 18.1362 10.59 18.058C12.662 17.8348 15.7983 17.7232 19.999 17.7232C24.1996 17.7232 27.3416 17.8348 29.4249 18.058C30.0816 18.1362 30.6619 18.3984 31.1658 18.8449C31.6696 19.2913 31.9951 19.8438 32.1423 20.5022C32.4367 21.7522 32.5839 23.7054 32.5839 26.3616ZM15.6342 5H17.3665L15.3115 11.6797V16.2165H13.6131V11.6797C13.4546 10.8538 13.1093 9.67076 12.5771 8.13058C12.1582 6.98103 11.7902 5.9375 11.4732 5H13.2734L14.4793 9.4029L15.6342 5ZM21.9181 10.5748V13.5045C21.9181 14.4085 21.7596 15.067 21.4426 15.4799C21.0123 16.0491 20.4123 16.3337 19.6423 16.3337C18.8837 16.3337 18.2893 16.0491 17.859 15.4799C17.542 15.0558 17.3835 14.3973 17.3835 13.5045V10.5748C17.3835 9.68192 17.542 9.02902 17.859 8.61607C18.2893 8.04688 18.8837 7.76228 19.6423 7.76228C20.4123 7.76228 21.0123 8.04688 21.4426 8.61607C21.7596 9.02902 21.9181 9.68192 21.9181 10.5748ZM27.6077 7.86272V16.2165H26.0622V15.2958C25.4621 15.9877 24.879 16.3337 24.3128 16.3337C23.792 16.3337 23.458 16.1272 23.3108 15.7143C23.2202 15.4464 23.1749 15.0279 23.1749 14.4587V7.86272H24.7204V14.0067C24.7204 14.375 24.7261 14.5703 24.7374 14.5926C24.7714 14.8382 24.8903 14.9609 25.0941 14.9609C25.3998 14.9609 25.7225 14.721 26.0622 14.2411V7.86272H27.6077Z" fill="white"/>
</svg>
