<svg width="12" height="8" viewBox="0 0 12 8" fill="none" xmlns="http://www.w3.org/2000/svg">
<path d="M0.517151 0.947846C0.953151 0.501846 1.56015 0.466846 2.09315 0.947846L6.00115 4.69485L9.90915 0.947846C10.4422 0.466846 11.0502 0.501846 11.4832 0.947846C11.9192 1.39285 11.8912 2.14485 11.4832 2.56285C11.0772 2.98085 6.78815 7.06485 6.78815 7.06485C6.68602 7.1707 6.5636 7.25489 6.42822 7.31239C6.29283 7.36989 6.14724 7.39953 6.00015 7.39953C5.85306 7.39953 5.70747 7.36989 5.57209 7.31239C5.4367 7.25489 5.31429 7.1707 5.21215 7.06485C5.21215 7.06485 0.925151 2.98085 0.517151 2.56285C0.108151 2.14485 0.0811512 1.39285 0.517151 0.947846Z" fill="#838383"/>
</svg>
