<svg width="20" height="20" viewBox="0 0 20 20" fill="none" xmlns="http://www.w3.org/2000/svg">
<rect width="20" height="20" rx="3" fill="#FF0000"/>
<path d="M15.6503 7.16512C15.5144 6.66023 15.1164 6.26226 14.6116 6.1263C13.6893 5.8739 10.0002 5.8739 10.0002 5.8739C10.0002 5.8739 6.31112 5.8739 5.38884 6.11668C4.89375 6.25254 4.48597 6.66032 4.35011 7.16512C4.10742 8.08731 4.10742 9.99986 4.10742 9.99986C4.10742 9.99986 4.10742 11.922 4.35011 12.8346C4.48606 13.3394 4.88404 13.7375 5.38893 13.8734C6.32083 14.1258 10.0003 14.1258 10.0003 14.1258C10.0003 14.1258 13.6893 14.1258 14.6116 13.883C15.1165 13.7472 15.5144 13.3491 15.6504 12.8443C15.8931 11.922 15.8931 10.0096 15.8931 10.0096C15.8931 10.0096 15.9028 8.08731 15.6503 7.16512Z" fill="white"/>
<path d="M8.82617 11.7668L11.8939 9.99992L8.82617 8.23303V11.7668Z" fill="#FF0000"/>
</svg>
