<svg width="112" height="31" viewBox="0 0 112 31" fill="none" xmlns="http://www.w3.org/2000/svg">
<path d="M11.7342 15.1341C11.8615 15.1105 11.9456 14.9881 11.9219 14.8607C11.8982 14.7334 11.7758 14.6494 11.6485 14.6731C11.5212 14.6968 11.4372 14.8192 11.4608 14.9465C11.4845 15.0738 11.6069 15.1578 11.7342 15.1341Z" fill="white"/>
<path d="M12.6247 15.731C12.8793 15.6837 13.0474 15.4389 13 15.1843C12.9527 14.9296 12.7079 14.7616 12.4532 14.8089C12.1986 14.8563 12.0306 15.1011 12.0779 15.3557C12.1253 15.6103 12.37 15.7784 12.6247 15.731Z" fill="white"/>
<path d="M15.0781 3.7157C15.1563 3.74175 15.2475 3.7678 15.3256 3.80688C15.2475 3.78083 15.1563 3.75478 15.0781 3.7157Z" fill="white"/>
<path d="M14.5566 3.55933C14.6869 3.5984 14.8172 3.62446 14.9474 3.67656C14.8172 3.63748 14.6869 3.5984 14.5566 3.55933Z" fill="white"/>
<path d="M15.0772 3.71572C15.0381 3.7027 14.986 3.68967 14.9469 3.66362C14.8167 3.62454 14.6864 3.58546 14.5561 3.54639C14.478 3.7548 14.3998 3.96321 14.3217 4.17163C14.3217 4.18465 14.3087 4.21071 14.3087 4.22373C14.2566 4.39307 14.2044 4.5624 14.1523 4.74477L15.2986 3.76783C15.2074 3.76783 15.1423 3.74177 15.0772 3.71572Z" fill="white"/>
<path d="M12.8503 6.62049L14.2832 5.00528L13.5537 5.52631L13.8533 2.80391L13.0587 3.31192L13.1239 2.60852L12.668 3.98926L13.2932 3.48125L12.8503 6.62049Z" fill="white"/>
<path d="M15.0772 3.71572C15.0381 3.7027 14.986 3.68967 14.9469 3.66362C14.8167 3.62454 14.6864 3.58546 14.5561 3.54639C14.478 3.7548 14.3998 3.96321 14.3217 4.17163C14.3217 4.18465 14.3087 4.21071 14.3087 4.22373C14.2566 4.39307 14.2044 4.5624 14.1523 4.74477L15.2986 3.76783C15.2074 3.76783 15.1423 3.74177 15.0772 3.71572Z" fill="white"/>
<path d="M23.5706 13.8498C23.3101 7.87093 19.6758 2.76479 14.8954 1.70969C14.7912 1.68364 14.7 1.68364 14.5958 1.69667C14.5827 1.68364 14.5697 1.67062 14.5567 1.67062C14.4525 1.60549 14.3483 1.56641 14.231 1.55338L14.2962 0.836962C14.3352 0.446186 14.0747 0.0944881 13.697 0.016333C13.3192 -0.0618222 12.9285 0.146592 12.7982 0.511316L12.3944 1.63154C12.2902 1.67062 12.186 1.72272 12.1078 1.80088C12.0557 1.59246 11.9124 1.39707 11.717 1.29287C11.704 1.27984 11.691 1.27984 11.678 1.26682V1.0584C11.678 0.667626 11.3914 0.341979 11.0136 0.289876C10.6229 0.237773 10.2582 0.485264 10.167 0.849988L9.55475 3.14254C9.46357 3.46819 9.59383 3.80686 9.86737 3.98922C9.91948 4.01527 9.95856 4.04132 10.0107 4.06738L9.99763 4.90103C9.99763 5.21365 10.18 5.50022 10.4666 5.61745C10.5187 5.6435 10.5577 5.65653 10.6098 5.66956C10.6098 6.02125 10.6229 6.35993 10.662 6.72465C6.89748 6.89399 4.20113 7.92303 2.40356 9.85086C0.527834 11.8699 -0.227666 14.6834 0.0589032 18.7084C0.280343 21.7956 2.24725 24.7655 5.76423 27.3055C8.39545 29.2073 10.9876 30.2363 11.2742 30.3405L11.678 30.4968C11.7691 30.5359 11.8603 30.5489 11.9515 30.5489C12.0427 30.5489 12.1469 30.5359 12.2251 30.4968L12.6289 30.3405C12.9154 30.2233 15.5076 29.1943 18.1388 27.3055C21.6558 24.7655 23.6227 21.7956 23.8441 18.7084C23.9744 16.8197 23.8832 15.2305 23.5706 13.8498ZM23.0756 18.6433C22.5806 25.5731 12.7721 29.4548 12.3553 29.6111L11.9515 29.7674L11.5477 29.6111C11.1309 29.4548 1.32241 25.5731 0.827429 18.6433C0.553886 14.8528 1.23123 12.2216 2.96367 10.3719C4.73519 8.47012 7.53575 7.5062 11.5086 7.44107C11.3523 6.30782 11.3393 5.22668 11.4435 4.23671L10.7662 4.888L10.7792 2.94715L10.2842 3.33793L10.8964 1.04538L10.8834 2.28283L11.3393 1.97021V2.54335V3.59844L12.6289 2.34796V3.23372L13.5276 0.745781L13.3453 2.75176L14.1399 2.29586L13.9835 4.0283C14.0357 4.05435 14.0878 4.06738 14.1529 4.09343C14.3222 3.49424 14.5046 2.93413 14.739 2.43914C19.1288 3.41608 22.5936 8.18355 22.8151 13.941C23.1147 15.2826 23.2059 16.8327 23.0756 18.6433Z" fill="white"/>
<path d="M12.812 24.7915C12.3561 24.7654 11.8481 24.8045 11.275 24.9869C11.1187 25.0129 10.9363 25.052 10.8061 25.078C10.285 25.2734 9.71189 25.3907 9.13875 25.3907C8.07063 25.3907 7.00251 25.052 5.94741 24.3746C4.03261 23.1372 2.73003 21.0921 2.37833 18.7605V18.7344L2.3653 18.6433C2.33925 18.487 2.32623 18.3567 2.3132 18.2264L2.28715 17.8357L10.754 10.0332L12.0435 9.81174C12.0175 9.70753 11.9914 9.61635 11.9654 9.51214C10.1027 9.49911 8.3572 9.40793 6.80712 9.26465C2.56069 10.7235 1.66191 14.2405 1.97453 18.5521C2.41741 24.8566 11.9914 28.569 11.9914 28.569C11.9914 28.569 12.2259 28.4778 12.6297 28.2954C14.9092 26.7714 14.9353 25.3386 12.812 24.7915Z" fill="white"/>
<path d="M11.7298 8.67848C11.7168 8.6394 11.7168 8.5873 11.7038 8.54822C10.4403 8.56124 9.33305 8.66545 8.36914 8.84781C9.46331 8.91294 10.6096 8.96505 11.808 8.9911C11.7819 8.88689 11.7559 8.78268 11.7298 8.67848Z" fill="white"/>
<path d="M22.0984 14.3057C22.0202 12.3518 21.5252 10.5022 20.7176 8.89999C20.6525 8.76973 20.5874 8.63947 20.5092 8.50921C20.5092 8.50921 20.5092 8.50921 20.5092 8.49618C20.4441 8.36593 20.3659 8.24869 20.2878 8.11843L20.2748 8.10541C20.1966 7.98818 20.1315 7.87094 20.0533 7.75371C20.0533 7.74068 20.0403 7.74068 20.0403 7.72766C19.9621 7.61043 19.897 7.50622 19.8188 7.38899C19.8058 7.37596 19.8058 7.36293 19.7928 7.34991C19.7146 7.2457 19.6365 7.14149 19.5583 7.03729C19.5453 7.02426 19.5323 7.01124 19.5193 6.99821C19.4411 6.894 19.3629 6.80282 19.2848 6.71164C19.2718 6.69862 19.2587 6.67256 19.2457 6.65954C19.1676 6.56836 19.0894 6.47718 19.0112 6.386C18.9982 6.35994 18.9722 6.34692 18.9591 6.32087C18.881 6.24271 18.8028 6.15153 18.7247 6.07337C18.6986 6.04732 18.6856 6.0343 18.6595 6.00825C18.5814 5.93009 18.5032 5.85194 18.4251 5.77378C18.399 5.74773 18.373 5.72168 18.3469 5.69562C18.2688 5.6305 18.1906 5.55234 18.1125 5.48721C18.0864 5.46116 18.0473 5.43511 18.0213 5.40906C17.9431 5.34393 17.878 5.2788 17.7998 5.22669C17.7608 5.20064 17.7217 5.17459 17.6956 5.14854C17.6175 5.09644 17.5523 5.03131 17.4742 4.9792C17.4351 4.95315 17.396 4.9271 17.357 4.88802C17.2788 4.83592 17.2137 4.78381 17.1355 4.73171C17.0964 4.70566 17.0443 4.67961 17.0053 4.64053C16.9401 4.60145 16.862 4.54935 16.7968 4.51027C16.7447 4.48422 16.6926 4.45817 16.6405 4.41909C16.5754 4.38001 16.5103 4.34094 16.4451 4.30186C16.393 4.27581 16.3279 4.24975 16.2758 4.21068C16.2107 4.1716 16.1456 4.14555 16.0804 4.10647C16.0153 4.08042 15.9502 4.05437 15.8981 4.01529C15.8329 3.98924 15.7808 3.96319 15.7157 3.93713C15.4161 4.70566 14.9732 5.90404 14.7257 6.82887L14.882 5.05736L13.866 5.98219C13.6837 6.94611 13.5795 7.97515 13.5795 9.0563C13.5795 9.40799 13.5925 9.74667 13.6055 10.0853L11.2218 10.4891L3.47139 17.6403L3.36719 17.7445L4.65675 17.1063L4.34413 19.8157C4.10966 19.8417 3.8752 19.7636 3.69283 19.6203C4.20084 21.1573 5.20383 22.4729 6.5455 23.3457C8.79897 24.8046 10.6486 24.1142 11.352 23.5411C11.4172 23.9579 12.3811 24.2444 12.5765 23.4108C12.5765 23.4108 12.5765 23.4108 12.5895 23.4108C12.6807 23.3717 12.9672 23.2545 13.7879 23.2024C14.7778 23.1503 15.7808 23.0591 16.4321 22.512C16.6145 22.3557 16.7578 22.1864 16.875 22.017C17.865 20.3106 16.4191 17.8357 13.4232 19.0992C13.4232 19.0992 16.0413 17.471 17.3179 19.6072C17.6045 20.1674 17.9952 21.1052 17.4872 22.0952C17.878 22.1212 18.3339 22.1473 18.8549 22.1343C18.2297 22.6162 17.6956 23.007 17.1616 23.2936C17.5263 23.502 17.9692 23.7234 18.4642 23.9188C16.7708 24.1923 14.361 24.2835 12.6807 23.4759C12.6807 23.4759 12.6937 23.4759 12.6937 23.4889C12.6937 23.4889 12.7067 23.4889 12.7067 23.502C12.7198 23.502 12.7198 23.515 12.7328 23.515C12.7458 23.515 12.7458 23.528 12.7588 23.528C12.7719 23.528 12.7719 23.5411 12.7849 23.5411C12.7979 23.5411 12.7979 23.5541 12.8109 23.5541C12.824 23.5541 12.824 23.5671 12.837 23.5671C12.85 23.5671 12.85 23.5801 12.863 23.5801C12.8761 23.5801 12.8891 23.5932 12.8891 23.5932C12.9021 23.5932 12.9021 23.6062 12.9151 23.6062C12.9282 23.6062 12.9412 23.6192 12.9412 23.6192C12.9542 23.6192 12.9672 23.6322 12.9672 23.6322C12.9803 23.6322 12.9933 23.6453 13.0063 23.6453C13.0193 23.6453 13.0324 23.6583 13.0454 23.6583C13.0584 23.6583 13.0715 23.6713 13.0845 23.6713C13.0975 23.6713 13.1105 23.6843 13.1236 23.6843C13.1366 23.6843 13.1496 23.6974 13.1626 23.6974C13.1757 23.7104 13.1887 23.7104 13.2017 23.7234C13.2147 23.7234 13.2278 23.7364 13.2408 23.7364C13.3059 23.7625 13.371 23.8016 13.4362 23.8276C13.4492 23.8276 13.4492 23.8406 13.4622 23.8406C13.4753 23.8537 13.5013 23.8537 13.5274 23.8667C13.5404 23.8667 13.5534 23.8797 13.5664 23.8797C13.5795 23.8927 13.6055 23.8927 13.6316 23.9058C13.6446 23.9058 13.6576 23.9188 13.6706 23.9188C13.6967 23.9318 13.7097 23.9318 13.7358 23.9449C13.7488 23.9449 13.7618 23.9579 13.7748 23.9579C13.8009 23.9709 13.8139 23.9709 13.84 23.9839C13.853 23.9839 13.866 23.997 13.8791 23.997C13.9051 24.01 13.9181 24.01 13.9442 24.023C13.9572 24.023 13.9702 24.036 13.9833 24.036C14.0093 24.0491 14.0223 24.0491 14.0484 24.0621C14.0614 24.0621 14.0744 24.0751 14.0875 24.0751C14.1135 24.0881 14.1396 24.0881 14.1526 24.1012C14.1656 24.1012 14.1787 24.1142 14.1917 24.1142C14.2177 24.1272 14.2438 24.1272 14.2698 24.1402C14.2829 24.1402 14.2959 24.1533 14.3089 24.1533C14.335 24.1663 14.361 24.1663 14.3871 24.1793C14.4001 24.1793 14.4001 24.1793 14.4131 24.1923C14.5564 24.2444 14.6997 24.2835 14.856 24.3356H14.869C14.8951 24.3487 14.9342 24.3487 14.9732 24.3617C14.9863 24.3617 14.9993 24.3617 14.9993 24.3747C15.0253 24.3877 15.0644 24.3877 15.0905 24.4008C15.1035 24.4008 15.1165 24.4138 15.1295 24.4138C15.1556 24.4268 15.1947 24.4268 15.2207 24.4398C15.2337 24.4398 15.2468 24.4529 15.2598 24.4529C15.2858 24.4659 15.3249 24.4659 15.351 24.4789C15.364 24.4789 15.377 24.4919 15.3901 24.4919C15.4161 24.505 15.4552 24.505 15.4812 24.518C15.4943 24.518 15.5073 24.518 15.5203 24.531C15.5464 24.531 15.5854 24.544 15.6115 24.544C15.6245 24.544 15.6375 24.544 15.6506 24.5571C15.6897 24.5571 15.7157 24.5701 15.7548 24.5701C15.7678 24.5701 15.7808 24.5701 15.7939 24.5701C15.8329 24.5701 15.859 24.5831 15.8981 24.5831C15.9111 24.5831 15.9111 24.5831 15.9241 24.5831C16.1456 24.6092 16.354 24.6352 16.5754 24.6482H16.5884C16.6275 24.6482 16.6666 24.6482 16.7057 24.6482C16.7187 24.6482 16.7317 24.6482 16.7447 24.6482C16.7838 24.6482 16.8099 24.6482 16.849 24.6482C16.862 24.6482 16.875 24.6482 16.888 24.6482C16.9271 24.6482 16.9532 24.6482 16.9922 24.6482C17.0053 24.6482 17.0183 24.6482 17.0313 24.6482C17.0704 24.6482 17.0964 24.6482 17.1355 24.6482C17.1485 24.6482 17.1616 24.6482 17.1746 24.6482C17.2137 24.6482 17.2397 24.6482 17.2788 24.6352C17.2918 24.6352 17.3049 24.6352 17.3179 24.6352C17.357 24.6352 17.383 24.6352 17.4221 24.6222C17.4351 24.6222 17.4481 24.6222 17.4612 24.6222C17.5002 24.6222 17.5263 24.6092 17.5654 24.6092C17.5784 24.6092 17.5914 24.6092 17.6045 24.6092C17.6435 24.6092 17.6826 24.5961 17.7087 24.5961C17.7217 24.5961 17.7217 24.5961 17.7347 24.5961C17.9171 24.5701 18.0864 24.518 18.2688 24.4659C18.2688 24.4659 18.2688 24.4659 18.2818 24.4659C18.3209 24.4529 18.36 24.4398 18.386 24.4268C18.399 24.4268 18.4121 24.4138 18.4251 24.4138C18.4642 24.4008 18.4902 24.3877 18.5293 24.3747C18.5423 24.3747 18.5553 24.3617 18.5684 24.3617C18.5944 24.3487 18.6335 24.3356 18.6595 24.3226C18.6726 24.3226 18.6856 24.3096 18.6986 24.3096C18.7247 24.2966 18.7638 24.2835 18.7898 24.2705C18.8028 24.2575 18.8159 24.2575 18.8419 24.2444C18.868 24.2314 18.907 24.2184 18.9331 24.2054C18.9461 24.1923 18.9591 24.1923 18.9852 24.1793C19.0112 24.1663 19.0503 24.1533 19.0764 24.1272C19.0894 24.1142 19.1024 24.1142 19.1154 24.1012C19.1415 24.0881 19.1806 24.0621 19.2066 24.0491C19.2197 24.036 19.2327 24.036 19.2457 24.023C19.2718 24.01 19.3108 23.9839 19.3369 23.9579C19.3499 23.9449 19.3629 23.9449 19.376 23.9318C19.402 23.9058 19.4411 23.8927 19.4671 23.8667C19.4802 23.8667 19.4802 23.8537 19.4932 23.8537C19.6104 23.7625 19.7277 23.6713 19.8319 23.5541C19.389 23.4759 18.881 23.3326 18.373 23.1242C19.3369 22.9158 21.1605 21.7826 21.9551 20.8577L18.4121 21.3527C18.4121 21.3527 18.7507 21.1703 18.8028 21.1443C18.8289 21.1313 18.868 21.1052 18.894 21.0922C20.3138 20.2585 21.6685 18.982 21.5773 16.7676C21.5773 16.7416 21.5773 16.7025 21.5773 16.6764C21.2387 17.8748 19.6756 18.3307 18.2948 18.4089C21.916 15.96 18.6856 12.7817 18.3209 12.43C18.2557 12.3909 18.1906 12.3649 18.1255 12.3258C19.7277 12.7166 21.1866 13.2636 22.0984 14.3057ZM6.42826 19.9329C6.27195 20.0371 6.05051 19.985 5.95933 19.8157C5.85513 19.6593 5.90723 19.4379 6.07657 19.3467C6.23288 19.2425 6.45432 19.2946 6.5455 19.464C6.63668 19.6203 6.58457 19.8287 6.42826 19.9329ZM6.57155 18.5C6.41524 18.6043 6.1938 18.5521 6.10262 18.3828C5.99841 18.2265 6.05051 18.0051 6.21985 17.9139C6.37616 17.8097 6.5976 17.8618 6.68878 18.0311C6.77996 18.1874 6.72786 18.3958 6.57155 18.5ZM7.91321 19.0211C7.7569 19.1253 7.53546 19.0732 7.44428 18.9038C7.34007 18.7475 7.39218 18.5261 7.56151 18.4349C7.71782 18.3307 7.93926 18.3828 8.03045 18.5521C8.13465 18.7085 8.08255 18.9169 7.91321 19.0211ZM14.1005 20.4148C14.4913 20.2455 14.8951 20.1543 15.2598 20.2716C15.872 20.4539 16.0935 21.3006 15.364 21.7695C15.7027 21.4569 15.7027 21.4569 15.364 21.7695C15.1556 21.9519 14.7648 22.1082 14.1005 22.1473C12.7979 22.2385 11.352 23.2805 11.352 23.2805C11.352 23.2805 13.4753 20.7014 14.1005 20.4148ZM14.4392 13.0683C14.5043 13.1855 14.5694 13.3158 14.6215 13.459C15.0774 14.7356 14.4131 16.1293 13.1366 16.5852C11.8731 17.0411 10.4793 16.3768 10.0234 15.1263L8.06952 16.1033L12.9672 12.1304L16.8359 12.456L14.4392 13.0683ZM16.4712 10.6845L17.2137 10.1505L15.1165 10.3068V10.2938L17.2137 9.29076L15.1947 9.1605C15.1947 9.12143 15.2077 9.09537 15.2077 9.0563C15.2468 7.15452 16.354 5.65655 16.354 5.65655C16.3279 6.30784 16.3279 6.88098 16.3149 7.33688C18.0864 8.06633 19.4671 9.87693 19.91 12.0783C18.907 11.3879 17.7217 10.906 16.4712 10.6845Z" fill="white"/>
<path d="M5.9082 10.1765C6.76791 9.26473 6.76791 9.26473 6.76791 9.26473L8.35706 8.8479L11.7698 8.87395L12.0173 9.81181L6.05149 10.1765" fill="white"/>
<path d="M35.8805 12.8729V15.4781H39.8534V17.8227H35.8805V22.8377H33.3145V10.5022H40.4917V12.8729H35.8805Z" fill="white"/>
<path d="M49.1404 10.5022V18.956C49.1404 19.5682 49.0492 20.1283 48.8539 20.6103C48.6585 21.1052 48.3849 21.5221 48.0332 21.8738C47.6815 22.2255 47.2647 22.486 46.7958 22.6684C46.3138 22.8507 45.7928 22.9419 45.2066 22.9419C44.5032 22.9419 43.891 22.8247 43.383 22.6032C42.875 22.3818 42.4712 22.0692 42.1455 21.6914C41.8199 21.3137 41.5985 20.8578 41.4421 20.3497C41.2989 19.8417 41.2207 19.3077 41.2207 18.7476V10.5022H43.7738V18.8387C43.7738 19.3077 43.878 19.6985 44.0994 20.0111C44.3209 20.3237 44.6856 20.467 45.1936 20.467C45.5583 20.467 45.8709 20.3367 46.1445 20.0892C46.405 19.8287 46.5483 19.5031 46.5483 19.0862V10.5022H49.1404Z" fill="white"/>
<path d="M56.9301 22.8377L54.6376 18.7215L53.2959 16.1163L53.2438 16.1294V22.8377H50.6777V10.5022H52.9442L54.9632 14.1885L56.5784 17.1714L56.6306 17.1584V10.5022H59.1836V22.8507H56.9301V22.8377Z" fill="white"/>
<path d="M64.9026 10.5022C65.7363 10.5022 66.4397 10.6585 67.0258 10.9581C67.612 11.2707 68.0419 11.7787 68.3154 12.4821C68.4847 12.899 68.5759 13.407 68.602 14.0192C68.628 14.6314 68.641 15.3087 68.641 16.0512C68.641 17.1324 68.641 18.0442 68.628 18.7866C68.615 19.5421 68.5108 20.1804 68.3024 20.7145C68.1461 21.1313 67.9507 21.47 67.7032 21.7435C67.4557 22.0171 67.1821 22.2255 66.8565 22.3948C66.5309 22.5511 66.1922 22.6683 65.8144 22.7465C65.4367 22.8116 65.0589 22.8507 64.6551 22.8507H60.8125V10.5022H64.9026ZM66.088 15.6214C66.088 15.2697 66.0749 14.918 66.0359 14.5923C65.9968 14.2667 65.9317 13.9671 65.8144 13.7196C65.6972 13.4591 65.5409 13.2637 65.3194 13.1204C65.098 12.9771 64.8114 12.899 64.4467 12.899H63.3786V20.467H64.4597C65.111 20.467 65.5409 20.2976 65.7623 19.972C65.9838 19.6463 66.088 19.1904 66.088 18.6043V15.6214Z" fill="white"/>
<path d="M77.9412 10.5022V18.956C77.9412 19.5682 77.85 20.1283 77.6546 20.6103C77.4592 21.1052 77.1857 21.5221 76.834 21.8738C76.4823 22.2255 76.0655 22.486 75.5966 22.6684C75.1146 22.8507 74.5936 22.9419 74.0074 22.9419C73.304 22.9419 72.6918 22.8247 72.1838 22.6032C71.6758 22.3818 71.272 22.0692 70.9463 21.6914C70.6207 21.3137 70.3992 20.8578 70.2429 20.3497C70.0996 19.8417 70.0215 19.3077 70.0215 18.7476V10.5022H72.5745V18.8387C72.5745 19.3077 72.6788 19.6985 72.9002 20.0111C73.1216 20.3237 73.4864 20.467 73.9944 20.467C74.3591 20.467 74.6717 20.3367 74.9453 20.0892C75.2058 19.8287 75.3491 19.5031 75.3491 19.0862V10.5022H77.9412Z" fill="white"/>
<path d="M82.1482 15.0742C82.2524 14.9179 82.3566 14.7486 82.4738 14.5662C82.578 14.3839 82.7343 14.1234 82.9297 13.7977C83.1251 13.4721 83.3986 13.0552 83.7373 12.5342C84.076 12.0132 84.5319 11.3358 85.092 10.4891H88.14L84.7012 15.5432C85.3134 16.7546 85.9257 17.979 86.5509 19.1904C87.1631 20.4018 87.7884 21.6132 88.4136 22.8376H85.5088C85.092 22.017 84.7012 21.2094 84.3105 20.3888C83.9197 19.5682 83.5289 18.7475 83.1121 17.9269L82.07 19.5421V22.8376H79.5039V10.5022H82.07V15.0742H82.1482Z" fill="white"/>
<path d="M89.1953 22.8377V20.0371H91.8917V22.8377H89.1953Z" fill="white"/>
<path d="M100.828 10.5022V18.956C100.828 19.5682 100.737 20.1283 100.541 20.6103C100.346 21.1052 100.072 21.5221 99.7207 21.8738C99.369 22.2255 98.9522 22.486 98.4833 22.6684C98.0013 22.8507 97.4803 22.9419 96.8941 22.9419C96.1907 22.9419 95.5785 22.8247 95.0705 22.6032C94.5625 22.3818 94.1587 22.0692 93.833 21.6914C93.5074 21.3137 93.286 20.8578 93.1296 20.3497C92.9864 19.8417 92.9082 19.3077 92.9082 18.7476V10.5022H95.4613V18.8387C95.4613 19.3077 95.5655 19.6985 95.7869 20.0111C96.0084 20.3237 96.3731 20.467 96.8811 20.467C97.2458 20.467 97.5584 20.3367 97.832 20.0892C98.0925 19.8287 98.2358 19.5031 98.2358 19.0862V10.5022H100.828Z" fill="white"/>
<path d="M107.679 20.3237H104.748C104.644 20.7405 104.527 21.1574 104.422 21.5872C104.305 22.0171 104.201 22.4339 104.071 22.8507H101.361L104.93 10.5022H107.483L111.053 22.8507H108.291L107.679 20.3237ZM105.673 16.2596L105.321 18.0311H107.093L106.754 16.2727L106.259 13.8108H106.168L105.673 16.2596Z" fill="white"/>
</svg>
