<svg width="20" height="20" viewBox="0 0 20 20" fill="none" xmlns="http://www.w3.org/2000/svg">
<path d="M18.6207 20H1.3793C0.620703 20 0 19.3793 0 18.6207V1.3793C0 0.620703 0.620703 0 1.3793 0H18.6207C19.3793 0 20 0.620703 20 1.3793V18.6207C20 19.3793 19.3793 20 18.6207 20Z" fill="#4D6FA9"/>
<path d="M16.8965 3.44828V6.89656H13.793C13.4137 6.89656 13.1034 7.20691 13.1034 7.58621V9.6552H16.5517V13.1035H13.1034V20H9.65512V13.1034H6.89648V9.65516H9.65512V7.58617C9.65512 5.41375 11.3103 3.62066 13.4482 3.44824H16.8965V3.44828Z" fill="white"/>
</svg>
