<svg width="20" height="20" viewBox="0 0 20 20" fill="none" xmlns="http://www.w3.org/2000/svg">
<g clip-path="url(#clip0)">
<path d="M7.29102 14.6768V18.5418C7.29102 18.8118 7.46435 19.0509 7.72102 19.1359C7.78518 19.1568 7.85102 19.1668 7.91602 19.1668C8.11102 19.1668 8.29935 19.0751 8.41935 18.9118L10.6802 15.8351L7.29102 14.6768Z" fill="white"/>
<path d="M19.7375 0.115053C19.5459 -0.0207806 19.2942 -0.039114 19.0859 0.0700527L0.33587 9.86172C0.114204 9.97755 -0.0166296 10.2142 0.00170373 10.4634C0.0208704 10.7134 0.186704 10.9267 0.422537 11.0076L5.63504 12.7892L16.7359 3.29755L8.14587 13.6467L16.8817 16.6325C16.9467 16.6542 17.015 16.6659 17.0834 16.6659C17.1967 16.6659 17.3092 16.6351 17.4084 16.5751C17.5667 16.4784 17.6742 16.3159 17.7017 16.1334L19.9934 0.716719C20.0275 0.483386 19.9292 0.251719 19.7375 0.115053Z" fill="white"/>
</g>
<defs>
<clipPath id="clip0">
<rect width="20" height="20" fill="white"/>
</clipPath>
</defs>
</svg>
