<svg width="12" height="8" viewBox="0 0 12 8" fill="none" xmlns="http://www.w3.org/2000/svg">
<path d="M0.518128 0.947358C0.954128 0.501358 1.56113 0.466358 2.09413 0.947358L6.00213 4.69436L9.91013 0.947358C10.4431 0.466358 11.0511 0.501358 11.4841 0.947358C11.9201 1.39236 11.8921 2.14436 11.4841 2.56236C11.0781 2.98036 6.78913 7.06436 6.78913 7.06436C6.68699 7.17021 6.56458 7.2544 6.42919 7.3119C6.29381 7.36941 6.14822 7.39904 6.00113 7.39904C5.85404 7.39904 5.70845 7.36941 5.57306 7.3119C5.43768 7.2544 5.31526 7.17021 5.21313 7.06436C5.21313 7.06436 0.926128 2.98036 0.518128 2.56236C0.109128 2.14436 0.0821277 1.39236 0.518128 0.947358Z" fill="#838383"/>
</svg>
