<svg width="25" height="25" viewBox="0 0 25 25" fill="none" xmlns="http://www.w3.org/2000/svg">
<rect width="25" height="25" rx="12.5" fill="#E8FFDC"/>
<g clip-path="url(#clip0)">
<path d="M12.4997 4.34766C9.06234 4.34766 6.26562 7.14437 6.26562 10.5817V16.3361C6.26562 17.1295 6.91097 17.7748 7.70422 17.7748C8.4976 17.7748 9.14294 17.1295 9.14294 16.3361V11.5408C9.14294 10.7475 8.4976 10.1022 7.70422 10.1022C7.54276 10.1022 7.39001 10.1349 7.24484 10.1841C7.44947 7.46107 9.7256 5.30672 12.4997 5.30672C15.2723 5.30672 17.5478 7.45908 17.7542 10.1803C17.61 10.1309 17.4563 10.1022 17.2951 10.1022C16.5017 10.1022 15.8564 10.7475 15.8564 11.5408V16.3361C15.8564 17.1295 16.5017 17.7748 17.2951 17.7748C17.464 17.7748 17.6239 17.7402 17.7746 17.6865V18.2543C17.7746 18.5189 17.5592 18.7339 17.2951 18.7339H13.8499C13.6513 18.1768 13.124 17.7748 12.4997 17.7748C11.7064 17.7748 11.0611 18.4202 11.0611 19.2134C11.0611 20.0067 11.7064 20.652 12.4997 20.652C13.124 20.652 13.6513 20.2498 13.8499 19.6929H17.2951C18.0884 19.6929 18.7337 19.0476 18.7337 18.2543C18.7337 15.3699 18.7337 13.4692 18.7337 10.5817C18.7337 7.14437 15.937 4.34766 12.4997 4.34766V4.34766Z" fill="#1B8C3B"/>
<path d="M19.6914 11.1504V16.7281C20.2483 16.5296 20.6505 16.0023 20.6505 15.3779V12.5007C20.6505 11.8763 20.2483 11.349 19.6914 11.1504Z" fill="#1B8C3B"/>
<path d="M4.34766 12.5007V15.3779C4.34766 16.0023 4.74982 16.5296 5.30672 16.7281V11.1504C4.74982 11.349 4.34766 11.8763 4.34766 12.5007Z" fill="#1B8C3B"/>
</g>
<defs>
<clipPath id="clip0">
<rect width="16.3043" height="16.3043" fill="white" transform="translate(4.34766 4.34766)"/>
</clipPath>
</defs>
</svg>
