<svg width="66" height="71" viewBox="0 0 66 71" fill="none" xmlns="http://www.w3.org/2000/svg">
<path d="M18.8101 46.7481H57.9428C62.3801 46.7481 66 43.1293 66 38.6934V22.2336C66 22.219 66 22.1898 66 22.1752C66 22.1315 66 22.1023 66 22.0585C66 22.0293 66 22.0001 65.9854 21.971C65.9854 21.9418 65.9708 21.898 65.9708 21.8688C65.9708 21.8396 65.9562 21.8104 65.9562 21.7813C65.9416 21.7521 65.9416 21.7229 65.927 21.6791C65.9124 21.6499 65.9124 21.6208 65.8978 21.5916C65.8832 21.5624 65.8832 21.5332 65.8686 21.504C65.854 21.4748 65.8394 21.4456 65.8248 21.4019C65.8102 21.3727 65.7956 21.3435 65.7811 21.3289C65.7665 21.2997 65.7519 21.2705 65.7373 21.2414C65.7227 21.2122 65.7081 21.1976 65.6935 21.1684C65.6789 21.1392 65.6497 21.11 65.6351 21.0808C65.6205 21.0517 65.6059 21.0371 65.5767 21.0079C65.5621 20.9787 65.5329 20.9641 65.5183 20.9349C65.5037 20.9057 65.4745 20.8912 65.4599 20.862C65.4453 20.8328 65.4161 20.8182 65.4016 20.8036C65.3724 20.7744 65.3578 20.7598 65.3286 20.7306C65.2994 20.716 65.2848 20.6869 65.2556 20.6723C65.2264 20.6577 65.1972 20.6285 65.168 20.6139C65.1388 20.5993 65.1242 20.5847 65.095 20.5701C65.0658 20.5555 65.0366 20.5409 65.0075 20.5118C64.9783 20.4972 64.9491 20.4826 64.9199 20.468C64.8907 20.4534 64.8615 20.4388 64.8323 20.4242C64.8031 20.4096 64.7739 20.395 64.7447 20.3804C64.7155 20.3658 64.6863 20.3658 64.6571 20.3512C64.6279 20.3367 64.5842 20.3221 64.555 20.3221C64.5258 20.3221 64.4966 20.3075 64.482 20.3075C64.4382 20.2929 64.409 20.2929 64.3652 20.2929C64.3506 20.2929 64.336 20.2783 64.3068 20.2783L14.7085 13.4347V6.51805C14.7085 6.44509 14.7085 6.37213 14.6939 6.31377C14.6939 6.29917 14.6939 6.28458 14.6793 6.2554C14.6793 6.21162 14.6647 6.16785 14.6647 6.12407C14.6501 6.08029 14.6501 6.05111 14.6355 6.00733C14.6355 5.97815 14.621 5.96356 14.621 5.93437C14.6064 5.8906 14.5918 5.84682 14.5772 5.80305C14.5772 5.78845 14.5626 5.75927 14.5626 5.74468C14.548 5.7009 14.5334 5.67172 14.5042 5.62794C14.4896 5.61335 14.4896 5.58417 14.475 5.56957C14.4604 5.54039 14.4458 5.51121 14.4166 5.48202C14.402 5.45284 14.3874 5.43825 14.3728 5.40906C14.3582 5.37988 14.3436 5.36529 14.329 5.3361C14.3144 5.30692 14.2852 5.27774 14.2706 5.24855C14.256 5.23396 14.2414 5.21937 14.2269 5.20478C14.1977 5.17559 14.1685 5.14641 14.1393 5.11722C14.1247 5.10263 14.1101 5.08804 14.0955 5.07345C14.0663 5.04426 14.0371 5.01508 13.9933 4.9859C13.9787 4.9713 13.9495 4.95671 13.9349 4.94212C13.9057 4.91294 13.8765 4.89834 13.8473 4.86916C13.8036 4.83998 13.7598 4.81079 13.7306 4.7962C13.716 4.78161 13.7014 4.78161 13.6868 4.76702C13.6284 4.73783 13.5554 4.70865 13.497 4.67946L2.73955 0.155952C1.7324 -0.267216 0.579291 0.199728 0.155998 1.20657C-0.267295 2.21342 0.199787 3.36619 1.20693 3.78935L10.7529 7.81674V16.747V18.1625V29.0189V38.7225V50.9798C10.7529 55.0656 13.8182 58.4509 17.7738 58.9616C17.0585 60.1582 16.6352 61.559 16.6352 63.0474C16.6352 67.4396 20.2113 71 24.5902 71C28.9691 71 32.5452 67.425 32.5452 63.0474C32.5452 61.5882 32.1511 60.2019 31.4505 59.0346H49.1704C48.4698 60.2165 48.0757 61.5882 48.0757 63.0474C48.0757 67.4396 51.6518 71 56.0307 71C60.4096 71 63.9857 67.425 63.9857 63.0474C63.9857 58.6698 60.4096 55.0947 56.0307 55.0947H18.8101C16.5331 55.0947 14.6939 53.2416 14.6939 50.9798V45.6391C15.8908 46.3396 17.3067 46.7481 18.8101 46.7481ZM28.6188 63.0328C28.6188 65.2508 26.8089 67.0456 24.6048 67.0456C22.4008 67.0456 20.5908 65.2362 20.5908 63.0328C20.5908 60.8294 22.4008 59.02 24.6048 59.02C26.8089 59.02 28.6188 60.8148 28.6188 63.0328ZM60.0593 63.0328C60.0593 65.2508 58.2494 67.0456 56.0453 67.0456C53.8413 67.0456 52.0313 65.2362 52.0313 63.0328C52.0313 60.8294 53.8413 59.02 56.0453 59.02C58.2494 59.02 60.0593 60.8148 60.0593 63.0328ZM57.9428 42.8083H18.8101C16.5331 42.8083 14.6939 40.9551 14.6939 38.6934V28.9897V18.1333V17.4037L62.059 23.9263V38.6788C62.059 40.9697 60.2053 42.8083 57.9428 42.8083Z" fill="#838383"/>
</svg>
