<svg width="25" height="25" viewBox="0 0 25 25" fill="none" xmlns="http://www.w3.org/2000/svg">
<rect width="25" height="25" rx="12.5" fill="#E8FFDC"/>
<g clip-path="url(#clip0)">
<path d="M15.4905 18.3369L15.2751 19.2175C14.6289 19.4726 14.1127 19.6667 13.7283 19.8002C13.3435 19.9341 12.8964 20.0007 12.387 20.0007C11.6046 20.0007 10.9961 19.809 10.5621 19.4283C10.1281 19.0462 9.91108 18.5619 9.91108 17.9744C9.91108 17.7469 9.92683 17.513 9.95958 17.2747C9.9926 17.0361 10.0451 16.7673 10.117 16.4669L10.9246 13.6085C10.9964 13.3347 11.0575 13.0754 11.1064 12.8301C11.156 12.5864 11.1799 12.3622 11.1799 12.1603C11.1799 11.7952 11.1043 11.5399 10.9539 11.3963C10.8034 11.2532 10.5163 11.1805 10.09 11.1805C9.88123 11.1805 9.66665 11.214 9.44793 11.2786C9.22824 11.3436 9.04047 11.4063 8.88281 11.4646L9.09877 10.5834C9.62783 10.3679 10.1335 10.1835 10.6173 10.0304C11.101 9.87689 11.5581 9.80006 11.9904 9.80006C12.7673 9.80006 13.3669 9.98784 13.7879 10.3634C14.2089 10.7392 14.4193 11.2264 14.4193 11.8268C14.4193 11.951 14.4055 12.1698 14.3758 12.4826C14.3468 12.7962 14.2927 13.0834 14.214 13.3447L13.4098 16.1917C13.3439 16.4204 13.2847 16.6818 13.2331 16.976C13.1799 17.2682 13.1545 17.4915 13.1545 17.6412C13.1545 18.0193 13.2388 18.2774 13.4078 18.4146C13.578 18.5518 13.8712 18.62 14.2876 18.62C14.4831 18.62 14.7056 18.5854 14.9528 18.5173C15.1993 18.4491 15.379 18.3893 15.4905 18.3369ZM15.6945 6.38435C15.6945 6.88038 15.5075 7.30401 15.1319 7.65234C14.7571 8.00191 14.3056 8.17684 13.7774 8.17684C13.2475 8.17684 12.7948 8.00191 12.4158 7.65234C12.0375 7.30387 11.848 6.88038 11.848 6.38435C11.848 5.88928 12.0375 5.46496 12.4158 5.11221C12.7941 4.76001 13.2476 4.58398 13.7774 4.58398C14.3055 4.58398 14.7571 4.76043 15.1319 5.11221C15.5078 5.46496 15.6945 5.88942 15.6945 6.38435Z" fill="#1B8C3B"/>
</g>
<defs>
<clipPath id="clip0">
<rect width="15.4167" height="15.4167" fill="white" transform="translate(4.58203 4.58398)"/>
</clipPath>
</defs>
</svg>
