<svg width="25" height="25" viewBox="0 0 25 25" fill="none" xmlns="http://www.w3.org/2000/svg">
<circle cx="12.5" cy="12.5" r="12.5" fill="#E8FFDC"/>
<path d="M11.5706 10.9208C12.1156 10.3297 12.4159 9.53679 12.4159 8.68792C12.4159 7.07169 11.2614 5.43555 9.05462 5.43555C8.02762 5.43555 7.16121 5.7883 6.54895 6.45564C6.00661 7.04684 5.70801 7.83958 5.70801 8.68792C5.70801 10.3043 6.85755 11.9404 9.05462 11.9404C10.0855 11.9404 10.9557 11.5879 11.5706 10.9208ZM9.05462 6.94779C10.2638 6.94779 10.8144 7.85041 10.8144 8.68906C10.8144 9.14526 10.6609 9.56758 10.3819 9.87808C10.0707 10.2249 9.61838 10.4083 9.07423 10.4083C7.8345 10.4083 7.26973 9.50572 7.26973 8.66716C7.26973 7.81147 7.82172 6.94779 9.05462 6.94779Z" fill="#1B8C3B"/>
<path d="M17.0819 6.68979C16.8819 6.69341 16.6089 6.8181 16.4751 6.9668L6.54758 18.0045C6.41386 18.1533 6.50859 18.3619 6.70858 18.3619H8.00792C8.20791 18.3619 8.48069 18.2399 8.6142 18.091L18.4804 7.05554C18.6138 6.90648 18.605 6.66397 18.2745 6.66406L17.0819 6.68979Z" fill="#1B8C3B"/>
<path d="M15.9948 13.1816C14.9876 13.1816 14.1377 13.5279 13.537 14.1825C13.005 14.7622 12.7119 15.54 12.7119 16.3722C12.7119 17.9577 13.8396 19.5627 15.9949 19.5627C17.0064 19.5627 17.8598 19.2169 18.4631 18.5625C18.9978 17.9826 19.2923 17.2048 19.2923 16.3722C19.2922 14.7868 18.1596 13.1816 15.9948 13.1816ZM16.0143 18.0986C14.8081 18.0986 14.2586 17.1929 14.2586 16.3517C14.2586 15.8936 14.412 15.4697 14.6908 15.158C15.0015 14.8102 15.4524 14.6264 15.9949 14.6264C17.2011 14.6264 17.7504 15.532 17.7504 16.3734C17.7504 16.8314 17.5969 17.2554 17.3184 17.5671C17.0075 17.9148 16.5566 18.0986 16.0143 18.0986Z" fill="#1B8C3B"/>
</svg>
