<svg width="19" height="19" viewBox="0 0 19 19" fill="none" xmlns="http://www.w3.org/2000/svg">
<path d="M18.7395 7.39369C18.7004 7.27374 18.5967 7.18626 18.4718 7.16804L12.4776 6.29691L9.79697 0.865376C9.7413 0.752053 9.62599 0.680481 9.50008 0.680481C9.37416 0.680481 9.25852 0.752053 9.20319 0.865376L6.52221 6.29724L0.528038 7.16837C0.403118 7.18659 0.299735 7.27374 0.260304 7.39402C0.221536 7.51364 0.253677 7.64552 0.344137 7.73333L4.68188 11.9614L3.65767 17.9317C3.63646 18.056 3.68749 18.1815 3.78921 18.2558C3.8916 18.3307 4.02712 18.3403 4.13813 18.281L9.50008 15.4625L14.8614 18.281C14.9097 18.3065 14.9631 18.3191 15.0158 18.3191C15.0844 18.3191 15.1526 18.2978 15.2106 18.2558C15.3127 18.1815 15.3637 18.056 15.3422 17.9317L14.3183 11.9617L18.656 7.73333C18.7462 7.64486 18.7786 7.51331 18.7395 7.39369Z" fill="#DADADA"/>
</svg>
