<svg width="26" height="26" viewBox="0 0 26 26" fill="none" xmlns="http://www.w3.org/2000/svg">
<g clip-path="url(#clip0)">
<path d="M21.6941 15.9699C21.4769 15.9699 21.2613 15.8777 21.1105 15.6986C20.84 15.3764 20.8814 14.896 21.2036 14.6252C21.4944 14.3806 21.6662 13.9793 21.6628 13.5517C21.6596 13.1365 21.4954 12.7661 21.2125 12.5358C20.8864 12.2702 20.8374 11.7904 21.103 11.4641C21.3688 11.138 21.8485 11.089 22.1748 11.3546C22.8107 11.8727 23.1795 12.6691 23.1862 13.5398C23.1932 14.4292 22.8278 15.2499 22.1839 15.7912C22.0411 15.9114 21.8671 15.9699 21.6941 15.9699Z" fill="#6EC045"/>
<path d="M23.9553 17.3095C23.7413 17.3095 23.5282 17.2196 23.3777 17.0446C23.1033 16.7257 23.1394 16.2446 23.4582 15.9703C24.1031 15.4157 24.4836 14.5024 24.4764 13.5272C24.4693 12.5719 24.1013 11.7201 23.4669 11.1905C23.144 10.9209 23.1008 10.4405 23.3703 10.1176C23.6399 9.79462 24.1204 9.75138 24.4433 10.021C25.422 10.8382 25.9893 12.1119 25.9999 13.5159C26.0106 14.9543 25.4462 16.2698 24.4518 17.1254C24.308 17.249 24.1313 17.3095 23.9553 17.3095Z" fill="#6EC045"/>
<path d="M4.30592 15.9699C4.13294 15.9699 3.95898 15.9114 3.81615 15.7914C3.17226 15.2499 2.80688 14.4294 2.81382 13.5398C2.82056 12.6691 3.18932 11.8727 3.82528 11.3548C4.15139 11.089 4.63123 11.138 4.89685 11.4643C5.16265 11.7904 5.11366 12.2702 4.78735 12.5358C4.50448 12.7663 4.34043 13.1365 4.33726 13.5517C4.33389 13.9793 4.50567 14.3806 4.79647 14.6252C5.11842 14.896 5.16007 15.3766 4.88931 15.6986C4.73875 15.8777 4.52313 15.9699 4.30592 15.9699Z" fill="#6EC045"/>
<path d="M2.0445 17.3095C1.86855 17.3095 1.692 17.249 1.54819 17.1254C0.553587 16.2698 -0.0105619 14.9543 0.000149814 13.5159C0.0104648 12.1119 0.577986 10.8382 1.55672 10.021C1.87966 9.75138 2.36009 9.79462 2.62967 10.1176C2.89925 10.4405 2.85601 10.9209 2.53307 11.1905C1.8985 11.7201 1.53053 12.5717 1.52359 13.5272C1.51625 14.5024 1.89691 15.4157 2.5416 15.9703C2.86057 16.2446 2.89667 16.7257 2.62233 17.0446C2.47177 17.2198 2.25873 17.3095 2.0445 17.3095Z" fill="#6EC045"/>
<path d="M18.9182 17.6479H7.08156C6.21312 17.6479 5.50635 18.3545 5.50635 19.2231V19.2908C5.50635 20.1594 6.21312 20.866 7.08156 20.866H10.4774C10.6472 22.1065 11.7134 23.0658 13 23.0658C14.2866 23.0658 15.3528 22.1065 15.5226 20.866H18.9184C19.7868 20.866 20.4934 20.1594 20.4934 19.2908V19.2231C20.4934 18.3545 19.7868 17.6479 18.9182 17.6479Z" fill="#6EC045"/>
<path d="M18.845 11.4813C18.845 8.97758 17.2208 6.84596 14.9706 6.08483V4.91607C14.9706 3.82942 14.0866 2.94531 13 2.94531C11.9132 2.94531 11.0292 3.82942 11.0292 4.91607V6.08483C8.779 6.84596 7.15479 8.97738 7.15479 11.4813V16.1245H18.845V11.4813ZM13.4471 5.40563H12.5527V4.91587C12.5527 4.6693 12.7532 4.46875 13 4.46875C13.2466 4.46875 13.4473 4.6693 13.4473 4.91587V5.40563H13.4471Z" fill="#6EC045"/>
</g>
<defs>
<clipPath id="clip0">
<rect width="26" height="26" fill="white"/>
</clipPath>
</defs>
</svg>
