<svg width="35" height="33" viewBox="0 0 35 33" fill="none" xmlns="http://www.w3.org/2000/svg">
<g clip-path="url(#clip0)">
<path d="M15.9732 15.6239L2.44874 23.5946C0.376396 19.9356 -0.187579 15.5862 0.880798 11.5028C1.94918 7.41945 4.56245 3.93626 8.1461 1.81902L15.9732 15.6239Z" fill="#00AF00"/>
<path d="M12.3452 3.17804C14.9377 1.80948 17.8732 1.22712 20.7919 1.50234C23.7105 1.77757 26.4854 2.89841 28.7764 4.72748C31.0674 6.55654 32.7749 9.01433 33.6897 11.7995C34.6044 14.5848 34.6866 17.5764 33.9261 20.4076C33.1657 23.2388 31.5957 25.7867 29.4085 27.7387C27.2214 29.6908 24.5122 30.9623 21.6131 31.3974C18.714 31.8324 15.7509 31.4121 13.0872 30.1879C10.4234 28.9638 8.17471 26.989 6.61676 24.5057L19.3776 16.5L12.3452 3.17804Z" fill="#FFDD00"/>
</g>
<defs>
<clipPath id="clip0">
<rect width="35" height="33" fill="white"/>
</clipPath>
</defs>
</svg>
