<svg width="20" height="20" viewBox="0 0 20 20" fill="none" xmlns="http://www.w3.org/2000/svg">
<path d="M20 2.98913H5.25L4.8279 0.533966H1.09058C0.487319 0.533966 0 1.02219 0 1.625V2.71558H2.99004L4.91395 13.9062C4.95652 14.1526 5.19339 14.3524 5.44384 14.3524H18.3637C18.9669 14.3524 19.4552 13.8646 19.4552 13.2604V12.1707H6.8288L6.56295 10.6245H16.5457C17.7505 10.6245 18.8881 9.66078 19.087 8.47328L20 2.98913Z" fill="#6EC045"/>
<path d="M8.81796 19.4665C9.85975 19.4665 10.7043 18.6219 10.7043 17.5802C10.7043 16.5384 9.85975 15.6938 8.81796 15.6938C7.77618 15.6938 6.93164 16.5384 6.93164 17.5802C6.93164 18.6219 7.77618 19.4665 8.81796 19.4665Z" fill="#6EC045"/>
<path d="M13.4792 17.5797C13.4792 18.6209 14.323 19.4656 15.3642 19.4656C16.4063 19.4656 17.2519 18.6209 17.2519 17.5797C17.2519 16.5385 16.4063 15.6929 15.3642 15.6929C14.323 15.6929 13.4792 16.5389 13.4792 17.5797Z" fill="#6EC045"/>
</svg>
