<svg width="12" height="8" viewBox="0 0 12 8" fill="none" xmlns="http://www.w3.org/2000/svg">
<path d="M0.517151 0.947358C0.953151 0.501358 1.56015 0.466358 2.09315 0.947358L6.00115 4.69436L9.90915 0.947358C10.4422 0.466358 11.0502 0.501358 11.4832 0.947358C11.9192 1.39236 11.8912 2.14436 11.4832 2.56236C11.0772 2.98036 6.78815 7.06436 6.78815 7.06436C6.68602 7.17021 6.5636 7.2544 6.42822 7.3119C6.29283 7.36941 6.14724 7.39904 6.00015 7.39904C5.85306 7.39904 5.70747 7.36941 5.57209 7.3119C5.4367 7.2544 5.31429 7.17021 5.21215 7.06436C5.21215 7.06436 0.925151 2.98036 0.517151 2.56236C0.108151 2.14436 0.0811512 1.39236 0.517151 0.947358Z" fill="#838383"/>
</svg>
