<svg width="30" height="30" viewBox="0 0 30 30" fill="none" xmlns="http://www.w3.org/2000/svg">
<circle cx="14.9977" cy="14.9996" r="14.4" fill="white"/>
<path d="M15.0198 10.3574C16.5476 10.3574 17.9297 11.1438 18.7218 12.2273L20.5991 10.3308C19.4763 8.86633 17.3153 7.70508 15.0198 7.70508C11.0005 7.70508 7.70386 10.9675 7.70386 14.9989C7.70386 19.0304 11.0005 22.2928 15.0198 22.2928C18.3516 22.2928 21.1545 20.0516 22.0139 16.9882C22.199 16.3515 22.2916 15.6884 22.2916 14.9989V14.3359H15.6808V16.9877H19.1845C18.4574 18.5526 16.8575 19.6405 15.0198 19.6405C12.4681 19.6405 10.3482 17.5584 10.3482 14.9989C10.3482 12.4395 12.4681 10.3574 15.0198 10.3574Z" fill="#629DFF"/>
</svg>
