<svg width="16" height="16" viewBox="0 0 16 16" fill="none" xmlns="http://www.w3.org/2000/svg">
<circle cx="8" cy="8" r="8" fill="#FFF494"/>
<path d="M3.96436 5.06506V7.26628H6.16557" stroke="#E3CD00" stroke-width="1.2" stroke-linecap="round" stroke-linejoin="round"/>
<path d="M12.0354 10.9351V8.73389H9.83423" stroke="#E3CD00" stroke-width="1.2" stroke-linecap="round" stroke-linejoin="round"/>
<path d="M11.1146 6.89945C10.9286 6.37364 10.6123 5.90354 10.1955 5.53301C9.77857 5.16248 9.27462 4.90359 8.73062 4.7805C8.18662 4.65741 7.6203 4.67414 7.08451 4.82912C6.54872 4.9841 6.06092 5.27227 5.66663 5.66676L3.96436 7.26631M12.0355 8.73379L10.3332 10.3333C9.93892 10.7278 9.45112 11.016 8.91533 11.171C8.37954 11.326 7.81322 11.3427 7.26922 11.2196C6.72522 11.0965 6.22126 10.8376 5.80438 10.4671C5.38749 10.0966 5.07126 9.62646 4.8852 9.10066" stroke="#E3CD00" stroke-width="1.2" stroke-linecap="round" stroke-linejoin="round"/>
</svg>
