<svg width="30" height="30" viewBox="0 0 30 30" fill="none" xmlns="http://www.w3.org/2000/svg">
<path d="M14.9977 0.599609C7.04466 0.599609 0.597656 7.04661 0.597656 14.9996C0.597656 22.9526 7.04466 29.3996 14.9977 29.3996C22.9507 29.3996 29.3977 22.9526 29.3977 14.9996C29.3977 7.04661 22.9507 0.599609 14.9977 0.599609ZM20.8552 12.3956C20.8612 12.5186 20.8627 12.6416 20.8627 12.7616C20.8627 16.5116 18.0112 20.8331 12.7942 20.8331C11.2526 20.8357 9.74311 20.3929 8.44716 19.5581C8.66766 19.5851 8.89416 19.5956 9.12366 19.5956C10.4527 19.5956 11.6752 19.1441 12.6457 18.3821C12.0542 18.3705 11.4812 18.1747 11.0063 17.8219C10.5315 17.4691 10.1785 16.977 9.99666 16.4141C10.4214 16.4949 10.8589 16.4779 11.2762 16.3646C10.6342 16.2348 10.057 15.887 9.64222 15.3801C9.22748 14.8732 9.00082 14.2385 9.00066 13.5836V13.5491C9.38316 13.7606 9.82116 13.8896 10.2862 13.9046C9.68435 13.504 9.25834 12.8886 9.09522 12.1843C8.93211 11.48 9.04423 10.74 9.40866 10.1156C10.1211 10.9916 11.0095 11.7082 12.0165 12.2191C13.0235 12.7299 14.1265 13.0236 15.2542 13.0811C15.1108 12.4726 15.1725 11.8337 15.4297 11.2639C15.6868 10.694 16.1251 10.2251 16.6763 9.93001C17.2274 9.63492 17.8607 9.53019 18.4775 9.63212C19.0943 9.73404 19.6602 10.0369 20.0872 10.4936C20.7219 10.368 21.3306 10.1352 21.8872 9.80511C21.6756 10.4623 21.2327 11.0204 20.6407 11.3756C21.2029 11.3079 21.752 11.1567 22.2697 10.9271C21.8894 11.497 21.4104 11.9943 20.8552 12.3956Z" fill="white"/>
</svg>
