<svg width="10" height="10" viewBox="0 0 10 10" fill="none" xmlns="http://www.w3.org/2000/svg">
<mask id="path-3-inside-1" fill="white">
<path d="M8.39373 1.375H1.59651C0.88583 1.375 0.307617 1.9531 0.307617 2.66389V6.82365C0.307617 7.53284 0.883312 8.11002 1.59193 8.11254V10.0002L4.30469 8.11254H8.39373C9.1044 8.11254 9.68262 7.53432 9.68262 6.82365V2.66389C9.68262 1.9531 9.1044 1.375 8.39373 1.375ZM9.1333 6.82365C9.1333 7.2314 8.80154 7.56322 8.39373 7.56322H4.13235L2.14125 8.94876V7.56322H1.59651C1.1887 7.56322 0.856934 7.2314 0.856934 6.82365V2.66389C0.856934 2.25602 1.1887 1.92432 1.59651 1.92432H8.39373C8.80154 1.92432 9.1333 2.25602 9.1333 2.66389V6.82365Z"/>
</mask>
<path d="M8.39373 1.375H1.59651C0.88583 1.375 0.307617 1.9531 0.307617 2.66389V6.82365C0.307617 7.53284 0.883312 8.11002 1.59193 8.11254V10.0002L4.30469 8.11254H8.39373C9.1044 8.11254 9.68262 7.53432 9.68262 6.82365V2.66389C9.68262 1.9531 9.1044 1.375 8.39373 1.375ZM9.1333 6.82365C9.1333 7.2314 8.80154 7.56322 8.39373 7.56322H4.13235L2.14125 8.94876V7.56322H1.59651C1.1887 7.56322 0.856934 7.2314 0.856934 6.82365V2.66389C0.856934 2.25602 1.1887 1.92432 1.59651 1.92432H8.39373C8.80154 1.92432 9.1333 2.25602 9.1333 2.66389V6.82365Z" fill="white"/>
<path d="M1.59193 8.11254H2.59095V7.11706L1.59548 7.11352L1.59193 8.11254ZM1.59193 10.0002H0.592907V11.9124L2.16254 10.8202L1.59193 10.0002ZM4.30469 8.11254V7.11351H3.99132L3.73409 7.2925L4.30469 8.11254ZM4.13235 7.56322V6.5642H3.81896L3.56172 6.7432L4.13235 7.56322ZM2.14125 8.94876H1.14222V10.861L2.71187 9.76878L2.14125 8.94876ZM2.14125 7.56322H3.14027V6.5642H2.14125V7.56322ZM8.39373 0.375977H1.59651V2.37402H8.39373V0.375977ZM1.59651 0.375977C0.334142 0.375977 -0.691406 1.4013 -0.691406 2.66389H1.30664C1.30664 2.5049 1.43752 2.37402 1.59651 2.37402V0.375977ZM-0.691406 2.66389V6.82365H1.30664V2.66389H-0.691406ZM-0.691406 6.82365C-0.691406 8.08348 0.329686 9.10708 1.58838 9.11155L1.59548 7.11352C1.43694 7.11296 1.30664 6.9822 1.30664 6.82365H-0.691406ZM0.592907 8.11254V10.0002H2.59095V8.11254H0.592907ZM2.16254 10.8202L4.8753 8.93257L3.73409 7.2925L1.02132 9.18015L2.16254 10.8202ZM4.30469 9.11156H8.39373V7.11351H4.30469V9.11156ZM8.39373 9.11156C9.65615 9.11156 10.6816 8.08607 10.6816 6.82365H8.68359C8.68359 6.98258 8.55266 7.11351 8.39373 7.11351V9.11156ZM10.6816 6.82365V2.66389H8.68359V6.82365H10.6816ZM10.6816 2.66389C10.6816 1.4013 9.65609 0.375977 8.39373 0.375977V2.37402C8.55272 2.37402 8.68359 2.5049 8.68359 2.66389H10.6816ZM8.13428 6.82365C8.13428 6.6797 8.24974 6.5642 8.39373 6.5642V8.56224C9.35333 8.56224 10.1323 7.78309 10.1323 6.82365H8.13428ZM8.39373 6.5642H4.13235V8.56224H8.39373V6.5642ZM3.56172 6.7432L1.57062 8.12873L2.71187 9.76878L4.70297 8.38324L3.56172 6.7432ZM3.14027 8.94876V7.56322H1.14222V8.94876H3.14027ZM2.14125 6.5642H1.59651V8.56224H2.14125V6.5642ZM1.59651 6.5642C1.74049 6.5642 1.85596 6.6797 1.85596 6.82365H-0.14209C-0.14209 7.78309 0.636902 8.56224 1.59651 8.56224V6.5642ZM1.85596 6.82365V2.66389H-0.14209V6.82365H1.85596ZM1.85596 2.66389C1.85596 2.80782 1.74039 2.92334 1.59651 2.92334V0.925293C0.637003 0.925293 -0.14209 1.70423 -0.14209 2.66389H1.85596ZM1.59651 2.92334H8.39373V0.925293H1.59651V2.92334ZM8.39373 2.92334C8.24984 2.92334 8.13428 2.80782 8.13428 2.66389H10.1323C10.1323 1.70423 9.35323 0.925293 8.39373 0.925293V2.92334ZM8.13428 2.66389V6.82365H10.1323V2.66389H8.13428Z" fill="#838383" mask="url(#path-3-inside-1)"/>
<mask id="path-5-inside-2" fill="white">
<path d="M2.81543 3.31641H7.17208V3.86572H2.81543V3.31641Z"/>
</mask>
<path d="M2.81543 3.31641H7.17208V3.86572H2.81543V3.31641Z" fill="white"/>
<path d="M2.81543 3.31641V2.31738H1.81641V3.31641H2.81543ZM7.17208 3.31641H8.1711V2.31738H7.17208V3.31641ZM7.17208 3.86572V4.86475H8.1711V3.86572H7.17208ZM2.81543 3.86572H1.81641V4.86475H2.81543V3.86572ZM2.81543 4.31543H7.17208V2.31738H2.81543V4.31543ZM6.17306 3.31641V3.86572H8.1711V3.31641H6.17306ZM7.17208 2.8667H2.81543V4.86475H7.17208V2.8667ZM3.81445 3.86572V3.31641H1.81641V3.86572H3.81445Z" fill="#838383" mask="url(#path-5-inside-2)"/>
<mask id="path-7-inside-3" fill="white">
<path d="M2.81543 4.48828H7.17208V5.0376H2.81543V4.48828Z"/>
</mask>
<path d="M2.81543 4.48828H7.17208V5.0376H2.81543V4.48828Z" fill="white"/>
<path d="M2.81543 4.48828V3.48926H1.81641V4.48828H2.81543ZM7.17208 4.48828H8.1711V3.48926H7.17208V4.48828ZM7.17208 5.0376V6.03662H8.1711V5.0376H7.17208ZM2.81543 5.0376H1.81641V6.03662H2.81543V5.0376ZM2.81543 5.4873H7.17208V3.48926H2.81543V5.4873ZM6.17306 4.48828V5.0376H8.1711V4.48828H6.17306ZM7.17208 4.03857H2.81543V6.03662H7.17208V4.03857ZM3.81445 5.0376V4.48828H1.81641V5.0376H3.81445Z" fill="#838383" mask="url(#path-7-inside-3)"/>
<mask id="path-9-inside-4" fill="white">
<path d="M2.81543 5.66016H7.17208V6.20947H2.81543V5.66016Z"/>
</mask>
<path d="M2.81543 5.66016H7.17208V6.20947H2.81543V5.66016Z" fill="white"/>
<path d="M2.81543 5.66016V4.66113H1.81641V5.66016H2.81543ZM7.17208 5.66016H8.1711V4.66113H7.17208V5.66016ZM7.17208 6.20947V7.2085H8.1711V6.20947H7.17208ZM2.81543 6.20947H1.81641V7.2085H2.81543V6.20947ZM2.81543 6.65918H7.17208V4.66113H2.81543V6.65918ZM6.17306 5.66016V6.20947H8.1711V5.66016H6.17306ZM7.17208 5.21045H2.81543V7.2085H7.17208V5.21045ZM3.81445 6.20947V5.66016H1.81641V6.20947H3.81445Z" fill="#838383" mask="url(#path-9-inside-4)"/>
</svg>
