<svg width="10" height="10" viewBox="0 0 10 10" fill="none" xmlns="http://www.w3.org/2000/svg">
<path d="M9.35412 4.57614C8.84901 3.92851 8.19473 3.39282 7.46206 3.02701C6.71414 2.6536 5.90953 2.45985 5.0696 2.44969C5.04646 2.44906 4.95358 2.44906 4.93045 2.44969C4.09053 2.45987 3.2859 2.6536 2.53799 3.02701C1.80531 3.39282 1.15107 3.92849 0.645943 4.57614C0.451352 4.82563 0.451352 5.17412 0.645943 5.4236C1.15105 6.07124 1.80531 6.60693 2.53799 6.97273C3.2859 7.34615 4.09051 7.53989 4.93045 7.55005C4.95358 7.55069 5.04646 7.55069 5.0696 7.55005C5.90952 7.53988 6.71414 7.34615 7.46206 6.97273C8.19473 6.60693 8.84899 6.07125 9.35412 5.4236C9.54871 5.17408 9.54871 4.82563 9.35412 4.57614ZM2.70155 6.64516C2.01741 6.30359 1.40643 5.80331 0.934647 5.19843C0.843469 5.08152 0.843469 4.91823 0.934647 4.80132C1.40641 4.19644 2.01739 3.69616 2.70155 3.35458C2.89586 3.25759 3.09428 3.1737 3.29638 3.10269C2.77645 3.57006 2.44888 4.24738 2.44888 4.99986C2.44888 5.75239 2.77647 6.42976 3.29645 6.89711C3.09435 6.8261 2.89588 6.74218 2.70155 6.64516ZM5.00004 7.18488C3.7952 7.18488 2.815 6.20469 2.815 4.99985C2.815 3.795 3.7952 2.81483 5.00004 2.81483C6.20488 2.81483 7.18508 3.79502 7.18508 4.99986C7.18508 6.20471 6.20488 7.18488 5.00004 7.18488ZM9.06543 5.19841C8.59367 5.80329 7.98269 6.30357 7.29853 6.64515C7.10445 6.74204 6.90615 6.82555 6.7043 6.8965C7.22387 6.42915 7.55119 5.75203 7.55119 4.99985C7.55119 4.24725 7.22354 3.56984 6.70352 3.10248C6.90567 3.17351 7.10418 3.2575 7.29854 3.35455C7.98269 3.69613 8.59367 4.1964 9.06545 4.80128C9.15661 4.91821 9.15661 5.0815 9.06543 5.19841Z" fill="white" stroke="#838383" stroke-width="0.3"/>
<path d="M5.00148 4.06445C4.48587 4.06445 4.06641 4.48392 4.06641 4.99953C4.06641 5.51513 4.48587 5.9346 5.00148 5.9346C5.51708 5.9346 5.93655 5.51513 5.93655 4.99953C5.93657 4.48392 5.5171 4.06445 5.00148 4.06445ZM5.00148 5.5685C4.68776 5.5685 4.43251 5.31328 4.43251 4.99953C4.43251 4.68579 4.68772 4.43057 5.00148 4.43057C5.3152 4.43057 5.57043 4.68579 5.57043 4.99953C5.57045 5.31328 5.3152 5.5685 5.00148 5.5685Z" fill="white" stroke="#838383" stroke-width="0.3"/>
</svg>
