<svg width="40" height="40" viewBox="0 0 40 40" fill="none" xmlns="http://www.w3.org/2000/svg">
<path d="M37.2414 40H2.75859C1.24141 40 0 38.7586 0 37.2414V2.75859C0 1.24141 1.24141 0 2.75859 0H37.2414C38.7586 0 40 1.24141 40 2.75859V37.2414C40 38.7586 38.7586 40 37.2414 40Z" fill="#4D6FA9"/>
<path d="M33.7949 6.89852V13.7951H27.588C26.8294 13.7951 26.2087 14.4158 26.2087 15.1744V19.3123H33.1053V26.2089H26.2087V40.002H19.3122V26.2088H13.7949V19.3123H19.3122V15.1743C19.3122 10.8295 22.6225 7.24328 26.8984 6.89844H33.7949V6.89852Z" fill="white"/>
</svg>
