<svg width="40" height="40" viewBox="0 0 40 40" fill="none" xmlns="http://www.w3.org/2000/svg">
<rect width="40" height="40" rx="3" fill="#FF0000"/>
<path d="M31.2984 14.3285C31.0267 13.3188 30.2306 12.5228 29.221 12.2509C27.3764 11.7461 19.9981 11.7461 19.9981 11.7461C19.9981 11.7461 12.62 11.7461 10.7755 12.2316C9.7853 12.5034 8.96975 13.3189 8.69802 14.3285C8.21265 16.1729 8.21265 19.998 8.21265 19.998C8.21265 19.998 8.21265 23.8423 8.69802 25.6675C8.96993 26.6771 9.76588 27.4732 10.7757 27.7451C12.6395 28.2499 19.9983 28.2499 19.9983 28.2499C19.9983 28.2499 27.3764 28.2499 29.221 27.7644C30.2307 27.4926 31.0267 26.6965 31.2986 25.6869C31.784 23.8423 31.784 20.0174 31.784 20.0174C31.784 20.0174 31.8034 16.1729 31.2984 14.3285Z" fill="white"/>
<path d="M17.6497 23.5324L23.7851 19.9986L17.6497 16.4648V23.5324Z" fill="#FF0000"/>
</svg>
