<svg width="70" height="70" viewBox="0 0 70 70" fill="none" xmlns="http://www.w3.org/2000/svg">
<path d="M37.9557 60.9217C49.9917 59.5735 59.6377 49.952 61.0104 37.9161C62.8121 22.1786 50.58 8.78214 35.247 8.61055V1.55076C35.247 1.15854 34.7568 0.950182 34.4258 1.19531L19.8895 11.8708C19.6444 12.0547 19.6444 12.4101 19.8895 12.5939L34.4258 23.2694C34.7568 23.5146 35.247 23.2939 35.247 22.914V15.8665C46.0206 16.038 54.6492 25.206 53.9138 36.1634C53.2887 45.5887 45.6039 53.2368 36.1785 53.8374C26.1894 54.4747 17.6956 47.3414 16.1758 37.9038C15.8939 36.1511 14.3618 34.8764 12.5969 34.8764C10.4029 34.8764 8.687 36.8252 9.03019 38.9946C11.1628 52.4401 23.5788 62.5273 37.9557 60.9217Z" fill="#6EC045"/>
</svg>
