<svg width="10" height="10" viewBox="0 0 10 10" fill="none" xmlns="http://www.w3.org/2000/svg">
<path d="M7.64869 1.41822C7.64869 1.52438 7.56373 1.6105 7.45503 1.6105C7.34696 1.6105 7.2619 1.52494 7.26172 1.41828V0.693657C7.26172 0.585359 7.34744 0.5 7.45503 0.5C7.56278 0.5 7.64869 0.585864 7.64869 0.693657V1.41822Z" fill="white" stroke="#838383"/>
<path d="M0.572266 3.16465V1.6885L0.987554 1.69367C1.059 2.48594 1.72561 3.10871 2.53715 3.10871C3.3465 3.10871 4.01215 2.48894 4.08653 1.69976H5.91789C5.99207 2.48835 6.65561 3.10871 7.46659 3.10871C8.27654 3.10871 8.94132 2.48869 9.01562 1.69976H9.41937L9.42115 3.16465H9.2258H0.776912H0.572266Z" fill="white" stroke="#838383"/>
<path d="M2.72096 1.41822C2.72096 1.52406 2.63598 1.6105 2.52696 1.6105C2.41856 1.6105 2.33398 1.52502 2.33398 1.41856V0.693657C2.33398 0.585198 2.41987 0.5 2.52696 0.5C2.63501 0.5 2.72096 0.586165 2.72096 0.693657V1.41822Z" fill="white" stroke="#838383"/>
<mask id="path-4-inside-1" fill="white">
<path d="M4.70521 4.42053H3.5957V5.39989H4.70521V4.42053Z"/>
</mask>
<path d="M4.70521 4.42053H3.5957V5.39989H4.70521V4.42053Z" fill="white"/>
<path d="M3.5957 4.42053V3.42053H2.5957V4.42053H3.5957ZM4.70521 4.42053H5.70521V3.42053H4.70521V4.42053ZM4.70521 5.39989V6.39989H5.70521V5.39989H4.70521ZM3.5957 5.39989H2.5957V6.39989H3.5957V5.39989ZM3.5957 5.42053H4.70521V3.42053H3.5957V5.42053ZM3.70521 4.42053V5.39989H5.70521V4.42053H3.70521ZM4.70521 4.39989H3.5957V6.39989H4.70521V4.39989ZM4.5957 5.39989V4.42053H2.5957V5.39989H4.5957Z" fill="#838383" mask="url(#path-4-inside-1)"/>
<mask id="path-6-inside-2" fill="white">
<path d="M6.49921 4.42053H5.38867V5.39989H6.49921V4.42053Z"/>
</mask>
<path d="M6.49921 4.42053H5.38867V5.39989H6.49921V4.42053Z" fill="white"/>
<path d="M5.38867 4.42053V3.42053H4.38867V4.42053H5.38867ZM6.49921 4.42053H7.49921V3.42053H6.49921V4.42053ZM6.49921 5.39989V6.39989H7.49921V5.39989H6.49921ZM5.38867 5.39989H4.38867V6.39989H5.38867V5.39989ZM5.38867 5.42053H6.49921V3.42053H5.38867V5.42053ZM5.49921 4.42053V5.39989H7.49921V4.42053H5.49921ZM6.49921 4.39989H5.38867V6.39989H6.49921V4.39989ZM6.38867 5.39989V4.42053H4.38867V5.39989H6.38867Z" fill="#838383" mask="url(#path-6-inside-2)"/>
<mask id="path-8-inside-3" fill="white">
<path d="M8.16224 4.42053H7.05273V5.39989H8.16224V4.42053Z"/>
</mask>
<path d="M8.16224 4.42053H7.05273V5.39989H8.16224V4.42053Z" fill="white"/>
<path d="M7.05273 4.42053V3.42053H6.05273V4.42053H7.05273ZM8.16224 4.42053H9.16224V3.42053H8.16224V4.42053ZM8.16224 5.39989V6.39989H9.16224V5.39989H8.16224ZM7.05273 5.39989H6.05273V6.39989H7.05273V5.39989ZM7.05273 5.42053H8.16224V3.42053H7.05273V5.42053ZM7.16224 4.42053V5.39989H9.16224V4.42053H7.16224ZM8.16224 4.39989H7.05273V6.39989H8.16224V4.39989ZM8.05273 5.39989V4.42053H6.05273V5.39989H8.05273Z" fill="#838383" mask="url(#path-8-inside-3)"/>
<mask id="path-10-inside-4" fill="white">
<path d="M4.70521 6.04694H3.5957V7.02561H4.70521V6.04694Z"/>
</mask>
<path d="M4.70521 6.04694H3.5957V7.02561H4.70521V6.04694Z" fill="white"/>
<path d="M3.5957 6.04694V5.04694H2.5957V6.04694H3.5957ZM4.70521 6.04694H5.70521V5.04694H4.70521V6.04694ZM4.70521 7.02561V8.02561H5.70521V7.02561H4.70521ZM3.5957 7.02561H2.5957V8.02561H3.5957V7.02561ZM3.5957 7.04694H4.70521V5.04694H3.5957V7.04694ZM3.70521 6.04694V7.02561H5.70521V6.04694H3.70521ZM4.70521 6.02561H3.5957V8.02561H4.70521V6.02561ZM4.5957 7.02561V6.04694H2.5957V7.02561H4.5957Z" fill="#838383" mask="url(#path-10-inside-4)"/>
<mask id="path-12-inside-5" fill="white">
<path d="M6.49921 6.04694H5.38867V7.02561H6.49921V6.04694Z"/>
</mask>
<path d="M6.49921 6.04694H5.38867V7.02561H6.49921V6.04694Z" fill="white"/>
<path d="M5.38867 6.04694V5.04694H4.38867V6.04694H5.38867ZM6.49921 6.04694H7.49921V5.04694H6.49921V6.04694ZM6.49921 7.02561V8.02561H7.49921V7.02561H6.49921ZM5.38867 7.02561H4.38867V8.02561H5.38867V7.02561ZM5.38867 7.04694H6.49921V5.04694H5.38867V7.04694ZM5.49921 6.04694V7.02561H7.49921V6.04694H5.49921ZM6.49921 6.02561H5.38867V8.02561H6.49921V6.02561ZM6.38867 7.02561V6.04694H4.38867V7.02561H6.38867Z" fill="#838383" mask="url(#path-12-inside-5)"/>
<mask id="path-14-inside-6" fill="white">
<path d="M8.16224 6.04694H7.05273V7.02561H8.16224V6.04694Z"/>
</mask>
<path d="M8.16224 6.04694H7.05273V7.02561H8.16224V6.04694Z" fill="white"/>
<path d="M7.05273 6.04694V5.04694H6.05273V6.04694H7.05273ZM8.16224 6.04694H9.16224V5.04694H8.16224V6.04694ZM8.16224 7.02561V8.02561H9.16224V7.02561H8.16224ZM7.05273 7.02561H6.05273V8.02561H7.05273V7.02561ZM7.05273 7.04694H8.16224V5.04694H7.05273V7.04694ZM7.16224 6.04694V7.02561H9.16224V6.04694H7.16224ZM8.16224 6.02561H7.05273V8.02561H8.16224V6.02561ZM8.05273 7.02561V6.04694H6.05273V7.02561H8.05273Z" fill="#838383" mask="url(#path-14-inside-6)"/>
<mask id="path-16-inside-7" fill="white">
<path d="M4.70521 7.70544H3.5957V8.68412H4.70521V7.70544Z"/>
</mask>
<path d="M4.70521 7.70544H3.5957V8.68412H4.70521V7.70544Z" fill="white"/>
<path d="M3.5957 7.70544V6.70544H2.5957V7.70544H3.5957ZM4.70521 7.70544H5.70521V6.70544H4.70521V7.70544ZM4.70521 8.68412V9.68412H5.70521V8.68412H4.70521ZM3.5957 8.68412H2.5957V9.68412H3.5957V8.68412ZM3.5957 8.70544H4.70521V6.70544H3.5957V8.70544ZM3.70521 7.70544V8.68412H5.70521V7.70544H3.70521ZM4.70521 7.68412H3.5957V9.68412H4.70521V7.68412ZM4.5957 8.68412V7.70544H2.5957V8.68412H4.5957Z" fill="#838383" mask="url(#path-16-inside-7)"/>
<mask id="path-18-inside-8" fill="white">
<path d="M2.94281 6.04694H1.83398V7.02561H2.94281V6.04694Z"/>
</mask>
<path d="M2.94281 6.04694H1.83398V7.02561H2.94281V6.04694Z" fill="white"/>
<path d="M1.83398 6.04694V5.04694H0.833984V6.04694H1.83398ZM2.94281 6.04694H3.94281V5.04694H2.94281V6.04694ZM2.94281 7.02561V8.02561H3.94281V7.02561H2.94281ZM1.83398 7.02561H0.833984V8.02561H1.83398V7.02561ZM1.83398 7.04694H2.94281V5.04694H1.83398V7.04694ZM1.94281 6.04694V7.02561H3.94281V6.04694H1.94281ZM2.94281 6.02561H1.83398V8.02561H2.94281V6.02561ZM2.83398 7.02561V6.04694H0.833984V7.02561H2.83398Z" fill="#838383" mask="url(#path-18-inside-8)"/>
<mask id="path-20-inside-9" fill="white">
<path d="M2.94281 7.70544H1.83398V8.68412H2.94281V7.70544Z"/>
</mask>
<path d="M2.94281 7.70544H1.83398V8.68412H2.94281V7.70544Z" fill="white"/>
<path d="M1.83398 7.70544V6.70544H0.833984V7.70544H1.83398ZM2.94281 7.70544H3.94281V6.70544H2.94281V7.70544ZM2.94281 8.68412V9.68412H3.94281V8.68412H2.94281ZM1.83398 8.68412H0.833984V9.68412H1.83398V8.68412ZM1.83398 8.70544H2.94281V6.70544H1.83398V8.70544ZM1.94281 7.70544V8.68412H3.94281V7.70544H1.94281ZM2.94281 7.68412H1.83398V9.68412H2.94281V7.68412ZM2.83398 8.68412V7.70544H0.833984V8.68412H2.83398Z" fill="#838383" mask="url(#path-20-inside-9)"/>
<mask id="path-22-inside-10" fill="white">
<path d="M6.49921 7.70544H5.38867V8.68412H6.49921V7.70544Z"/>
</mask>
<path d="M6.49921 7.70544H5.38867V8.68412H6.49921V7.70544Z" fill="white"/>
<path d="M5.38867 7.70544V6.70544H4.38867V7.70544H5.38867ZM6.49921 7.70544H7.49921V6.70544H6.49921V7.70544ZM6.49921 8.68412V9.68412H7.49921V8.68412H6.49921ZM5.38867 8.68412H4.38867V9.68412H5.38867V8.68412ZM5.38867 8.70544H6.49921V6.70544H5.38867V8.70544ZM5.49921 7.70544V8.68412H7.49921V7.70544H5.49921ZM6.49921 7.68412H5.38867V9.68412H6.49921V7.68412ZM6.38867 8.68412V7.70544H4.38867V8.68412H6.38867Z" fill="#838383" mask="url(#path-22-inside-10)"/>
<mask id="path-24-inside-11" fill="white">
<path d="M8.16224 7.70544H7.05273V8.68412H8.16224V7.70544Z"/>
</mask>
<path d="M8.16224 7.70544H7.05273V8.68412H8.16224V7.70544Z" fill="white"/>
<path d="M7.05273 7.70544V6.70544H6.05273V7.70544H7.05273ZM8.16224 7.70544H9.16224V6.70544H8.16224V7.70544ZM8.16224 8.68412V9.68412H9.16224V8.68412H8.16224ZM7.05273 8.68412H6.05273V9.68412H7.05273V8.68412ZM7.05273 8.70544H8.16224V6.70544H7.05273V8.70544ZM7.16224 7.70544V8.68412H9.16224V7.70544H7.16224ZM8.16224 7.68412H7.05273V9.68412H8.16224V7.68412ZM8.05273 8.68412V7.70544H6.05273V8.68412H8.05273Z" fill="#838383" mask="url(#path-24-inside-11)"/>
</svg>
