<svg width="10" height="10" viewBox="0 0 10 10" fill="none" xmlns="http://www.w3.org/2000/svg">
<mask id="path-1-inside-1" fill="white">
<path d="M8.3947 1.37482H1.59748C0.886806 1.37482 0.308594 1.95292 0.308594 2.66371V6.82346C0.308594 7.53265 0.884289 8.10984 1.59291 8.11235V10L4.30567 8.11235H8.3947C9.10538 8.11235 9.68359 7.53414 9.68359 6.82346V2.66371C9.68359 1.95292 9.10538 1.37482 8.3947 1.37482ZM9.13428 6.82346C9.13428 7.23122 8.80251 7.56304 8.3947 7.56304H4.13332L2.14222 8.94857V7.56304H1.59748C1.18967 7.56304 0.85791 7.23122 0.85791 6.82346V2.66371C0.85791 2.25584 1.18967 1.92413 1.59748 1.92413H8.3947C8.80251 1.92413 9.13428 2.25584 9.13428 2.66371V6.82346Z"/>
</mask>
<path d="M8.3947 1.37482H1.59748C0.886806 1.37482 0.308594 1.95292 0.308594 2.66371V6.82346C0.308594 7.53265 0.884289 8.10984 1.59291 8.11235V10L4.30567 8.11235H8.3947C9.10538 8.11235 9.68359 7.53414 9.68359 6.82346V2.66371C9.68359 1.95292 9.10538 1.37482 8.3947 1.37482ZM9.13428 6.82346C9.13428 7.23122 8.80251 7.56304 8.3947 7.56304H4.13332L2.14222 8.94857V7.56304H1.59748C1.18967 7.56304 0.85791 7.23122 0.85791 6.82346V2.66371C0.85791 2.25584 1.18967 1.92413 1.59748 1.92413H8.3947C8.80251 1.92413 9.13428 2.25584 9.13428 2.66371V6.82346Z" fill="white"/>
<path d="M1.59291 8.11235H2.59193V7.11687L1.59646 7.11334L1.59291 8.11235ZM1.59291 10H0.593883V11.9122L2.16352 10.82L1.59291 10ZM4.30567 8.11235V7.11333H3.99229L3.73506 7.29232L4.30567 8.11235ZM4.13332 7.56304V6.56401H3.81994L3.5627 6.74302L4.13332 7.56304ZM2.14222 8.94857H1.1432V10.8609L2.71285 9.76859L2.14222 8.94857ZM2.14222 7.56304H3.14125V6.56401H2.14222V7.56304ZM8.3947 0.375794H1.59748V2.37384H8.3947V0.375794ZM1.59748 0.375794C0.335119 0.375794 -0.69043 1.40111 -0.69043 2.66371H1.30762C1.30762 2.50472 1.43849 2.37384 1.59748 2.37384V0.375794ZM-0.69043 2.66371V6.82346H1.30762V2.66371H-0.69043ZM-0.69043 6.82346C-0.69043 8.08329 0.330663 9.1069 1.58936 9.11137L1.59646 7.11334C1.43791 7.11277 1.30762 6.98201 1.30762 6.82346H-0.69043ZM0.593883 8.11235V10H2.59193V8.11235H0.593883ZM2.16352 10.82L4.87628 8.93239L3.73506 7.29232L1.0223 9.17997L2.16352 10.82ZM4.30567 9.11138H8.3947V7.11333H4.30567V9.11138ZM8.3947 9.11138C9.65713 9.11138 10.6826 8.08589 10.6826 6.82346H8.68457C8.68457 6.9824 8.55363 7.11333 8.3947 7.11333V9.11138ZM10.6826 6.82346V2.66371H8.68457V6.82346H10.6826ZM10.6826 2.66371C10.6826 1.40111 9.65707 0.375794 8.3947 0.375794V2.37384C8.55369 2.37384 8.68457 2.50472 8.68457 2.66371H10.6826ZM8.13525 6.82346C8.13525 6.67952 8.25072 6.56401 8.3947 6.56401V8.56206C9.35431 8.56206 10.1333 7.78291 10.1333 6.82346H8.13525ZM8.3947 6.56401H4.13332V8.56206H8.3947V6.56401ZM3.5627 6.74302L1.5716 8.12855L2.71285 9.76859L4.70395 8.38306L3.5627 6.74302ZM3.14125 8.94857V7.56304H1.1432V8.94857H3.14125ZM2.14222 6.56401H1.59748V8.56206H2.14222V6.56401ZM1.59748 6.56401C1.74147 6.56401 1.85693 6.67952 1.85693 6.82346H-0.141113C-0.141113 7.78291 0.637879 8.56206 1.59748 8.56206V6.56401ZM1.85693 6.82346V2.66371H-0.141113V6.82346H1.85693ZM1.85693 2.66371C1.85693 2.80764 1.74137 2.92316 1.59748 2.92316V0.92511C0.637979 0.92511 -0.141113 1.70404 -0.141113 2.66371H1.85693ZM1.59748 2.92316H8.3947V0.92511H1.59748V2.92316ZM8.3947 2.92316C8.25082 2.92316 8.13525 2.80764 8.13525 2.66371H10.1333C10.1333 1.70404 9.35421 0.92511 8.3947 0.92511V2.92316ZM8.13525 2.66371V6.82346H10.1333V2.66371H8.13525Z" fill="#838383" mask="url(#path-1-inside-1)"/>
<mask id="path-3-inside-2" fill="white">
<path d="M2.81836 3.31573H7.17501V3.86505H2.81836V3.31573Z"/>
</mask>
<path d="M2.81836 3.31573H7.17501V3.86505H2.81836V3.31573Z" fill="white"/>
<path d="M2.81836 3.31573V2.31671H1.81934V3.31573H2.81836ZM7.17501 3.31573H8.17403V2.31671H7.17501V3.31573ZM7.17501 3.86505V4.86407H8.17403V3.86505H7.17501ZM2.81836 3.86505H1.81934V4.86407H2.81836V3.86505ZM2.81836 4.31476H7.17501V2.31671H2.81836V4.31476ZM6.17599 3.31573V3.86505H8.17403V3.31573H6.17599ZM7.17501 2.86603H2.81836V4.86407H7.17501V2.86603ZM3.81738 3.86505V3.31573H1.81934V3.86505H3.81738Z" fill="#838383" mask="url(#path-3-inside-2)"/>
<mask id="path-5-inside-3" fill="white">
<path d="M2.81836 4.48761H7.17501V5.03693H2.81836V4.48761Z"/>
</mask>
<path d="M2.81836 4.48761H7.17501V5.03693H2.81836V4.48761Z" fill="white"/>
<path d="M2.81836 4.48761V3.48859H1.81934V4.48761H2.81836ZM7.17501 4.48761H8.17403V3.48859H7.17501V4.48761ZM7.17501 5.03693V6.03595H8.17403V5.03693H7.17501ZM2.81836 5.03693H1.81934V6.03595H2.81836V5.03693ZM2.81836 5.48663H7.17501V3.48859H2.81836V5.48663ZM6.17599 4.48761V5.03693H8.17403V4.48761H6.17599ZM7.17501 4.0379H2.81836V6.03595H7.17501V4.0379ZM3.81738 5.03693V4.48761H1.81934V5.03693H3.81738Z" fill="#838383" mask="url(#path-5-inside-3)"/>
<mask id="path-7-inside-4" fill="white">
<path d="M2.81836 5.65948H7.17501V6.2088H2.81836V5.65948Z"/>
</mask>
<path d="M2.81836 5.65948H7.17501V6.2088H2.81836V5.65948Z" fill="white"/>
<path d="M2.81836 5.65948V4.66046H1.81934V5.65948H2.81836ZM7.17501 5.65948H8.17403V4.66046H7.17501V5.65948ZM7.17501 6.2088V7.20782H8.17403V6.2088H7.17501ZM2.81836 6.2088H1.81934V7.20782H2.81836V6.2088ZM2.81836 6.65851H7.17501V4.66046H2.81836V6.65851ZM6.17599 5.65948V6.2088H8.17403V5.65948H6.17599ZM7.17501 5.20978H2.81836V7.20782H7.17501V5.20978ZM3.81738 6.2088V5.65948H1.81934V6.2088H3.81738Z" fill="#838383" mask="url(#path-7-inside-4)"/>
</svg>
