<svg width="69" height="78" viewBox="0 0 69 78" fill="none" xmlns="http://www.w3.org/2000/svg">
<path d="M6.18024 67.0648C-0.109662 67.0013 0.0232909 66.9174 0.00090368 67.2187C-0.0304689 67.6385 0.764201 67.3202 0.954264 67.999L0.955178 68.0057C0.974367 68.6091 0.927004 76.2681 0.923958 76.7442C0.917257 76.7925 0.863497 77.0862 0.543527 77.2611C0.450933 77.3118 0.404331 77.4187 0.430525 77.5209C0.456567 77.6231 0.548706 77.6947 0.654245 77.6947H0.702522C1.67203 77.6947 2.98404 77.7228 3.728 77.857C4.25372 77.9519 4.76801 78 5.25673 78C5.25703 78 5.25688 78 5.25703 78C9.05707 78 11.0605 75.0952 11.075 72.2259C11.0875 69.7643 9.56101 67.0991 6.18024 67.0648ZM2.87195 67.9424C9.57106 67.5123 9.68163 72.5776 8.67329 75.0566C8.14559 76.354 6.29674 77.1293 4.8137 77.1293C3.89628 77.1292 3.22649 76.8391 2.9248 76.3117L2.87195 67.9424Z" fill="white"/>
<path d="M15.0723 72.4433C15.0723 76.0575 18.0303 77.9486 20.952 77.9486C23.7855 77.9486 26.7968 75.9279 26.7968 72.1833C26.7968 65.0503 15.0723 64.8679 15.0723 72.4433ZM17.1716 72.4207C17.1716 69.7707 17.9351 67.6389 20.6097 67.6389C22.7077 67.6389 24.6184 69.7958 24.6184 72.1692C24.6636 74.3025 24.1898 76.8942 21.6777 77.1364C19.0788 77.1326 17.5627 75.5429 17.1724 72.4252L17.1716 72.4207Z" fill="white"/>
<path d="M39.4923 66.924C39.2608 66.9977 38.9801 67.0472 38.794 67.0472C38.6023 67.0472 31.6886 67.0373 31.2732 67.0367C30.9868 66.8867 30.541 66.7039 30.4717 67.0193L30.1851 68.3231C30.1612 68.4318 30.2182 68.5421 30.3207 68.5855C30.423 68.6286 30.5419 68.5928 30.6033 68.4999C30.7279 68.3112 30.9155 68.1684 31.1762 68.0636C31.8454 68.0368 33.6419 68.0337 34.0368 68.0333L33.9957 76.8091C33.9951 76.822 33.9774 77.1258 33.6944 77.2981C33.4958 77.419 33.5817 77.7263 33.8144 77.7263C33.8161 77.7263 36.2757 77.7152 36.2775 77.7152C36.5198 77.7142 36.5965 77.385 36.3789 77.2774C36.1771 77.1773 36.0701 77.0264 36.0528 76.8302C36.0433 76.4221 35.9823 69.4668 35.9699 68.0351L38.4871 68.0948C38.5097 68.0959 39.0409 68.126 39.2291 68.6554C39.2661 68.7597 39.3726 68.8229 39.4819 68.8062C39.7245 68.7689 39.6796 68.5949 39.7126 67.5062C39.7652 67.3871 39.8083 67.222 39.7903 67.1082C39.7684 66.9683 39.6273 66.8816 39.4923 66.924Z" fill="white"/>
<path d="M53.5287 74.4762C52.9096 74.4664 51.6186 74.4652 51.3442 74.4651C51.3354 74.4431 48.2503 66.8121 48.2503 66.8121C48.1667 66.6146 47.8982 66.6323 47.8238 66.8152L43.7916 76.732C43.7899 76.7356 43.6107 77.0938 43.1738 77.3032C42.9526 77.4092 43.0294 77.742 43.2732 77.7424C43.2857 77.7424 45.1012 77.7453 45.1012 77.7453C45.361 77.7453 45.4204 77.3817 45.1776 77.2964C45.0496 77.2321 44.9908 77.1418 45.027 77.0032C45.1565 76.5582 45.5016 75.5924 45.5852 75.3598L49.6085 75.3703L50.3992 77.2441C50.4024 77.2519 50.4108 77.2869 50.3847 77.3259C50.2503 77.4726 50.3527 77.71 50.5516 77.7129C50.5679 77.7132 52.8466 77.7453 52.8466 77.7453C52.9826 77.7453 53.0805 77.6377 53.0805 77.5145C53.0805 77.4132 53.0152 77.327 52.9242 77.2959C52.6218 77.15 52.4949 77.0114 51.7176 75.3632C52.4043 75.3778 52.5339 75.0683 53.5547 74.9361C53.6747 74.9206 53.7625 74.8149 53.7556 74.6941C53.7488 74.5734 53.6498 74.4782 53.5287 74.4762ZM47.6549 69.9625L49.2748 74.4508L45.8985 74.4897L47.6549 69.9625Z" fill="white"/>
<path d="M67.8901 75.3142C67.6681 75.8 67.3941 76.2769 66.7089 76.3046C66.3519 76.3186 64.4511 76.3938 63.2572 76.385C70.417 70.9242 68.5104 66.8129 64.2446 66.8129C63.3094 66.8129 62.3696 67.0381 61.666 67.4309C61.5981 67.4688 61.5539 67.5382 61.5483 67.6156C61.5303 67.8629 61.578 68.3626 61.6902 69.1008C61.706 69.2053 61.7909 69.2857 61.8961 69.2959C62.0004 69.3053 62.1 69.2433 62.1358 69.144C62.5473 67.9966 63.3743 67.5879 64.011 67.5879C64.922 67.5879 65.8745 68.3698 65.9321 69.8641C66.0603 73.1896 62.0093 76.3281 61.1011 77.1925C60.9472 77.3253 60.8264 77.4652 60.954 77.6264C60.954 77.9165 61.3212 77.9535 61.4031 77.7167C62.1824 77.7121 66.4121 77.6877 67.195 77.6963C67.7625 77.7374 68.0432 77.4075 68.0556 77.0387L68.3279 75.4492C68.3732 75.1837 68.0016 75.0703 67.8901 75.3142Z" fill="white"/>
<path d="M64.463 14.0723C64.2259 2.79442 64.2111 5.2322 64.4421 1.71723C64.4558 1.50884 64.2993 1.32878 64.0922 1.31454C47.3885 0.165848 46.7556 0.0334012 45.4612 0.0334012C22.6741 0.0315638 34.6373 -0.342809 4.2215 1.46107C4.01483 1.47347 3.8569 1.65109 3.86771 1.85872C5.82794 39.6699 5.75636 33.5017 4.755 58.7018C4.74784 58.8827 4.86923 59.0434 5.04467 59.085C7.32108 59.6261 6.91764 59.4131 12.2278 59.417C12.2365 59.4196 22.1792 58.328 22.1881 58.3271C22.2351 58.3349 35.9372 60.5958 35.9849 60.5958C35.9954 60.5958 36.0057 60.5954 36.0162 60.5944C52.0747 59.2415 47.4718 59.5684 57.8319 58.9911L63.9152 60.2282C64.1519 60.276 64.3689 60.0921 64.3663 59.853C64.2346 47.5396 64.463 14.0723 64.463 14.0723ZM39.7695 13.1747C39.8147 13.1637 39.8794 13.1478 39.9602 13.1262L44.29 12.1451C46.5079 11.5864 46.8357 11.4503 48.7336 10.5532H48.7338C49.6101 10.8588 52.0128 12.1955 52.6218 12.9629C53.0243 13.471 52.9978 13.584 52.8713 14.128C52.8469 14.2324 52.819 14.3526 52.7898 14.4946C52.7878 14.5039 52.7863 14.5136 52.7849 14.5231L51.8327 22.0142C50.8906 22.0491 50.812 21.9765 50.5514 21.7354C50.4439 21.6355 50.3101 21.5115 50.074 21.3524C48.6413 20.3856 43.9527 16.8978 42.4722 15.6972L39.5617 13.3462L39.5852 13.3234C39.6167 13.2918 39.6448 13.2494 39.6633 13.2089C39.678 13.1974 39.7355 13.1831 39.7695 13.1747ZM46.5169 50.8921C46.4318 50.8066 10.1322 12.1176 10.1056 12.0641L13.2769 9.61825L57.5942 39.1211C57.2279 40.1762 57.0817 41.3871 56.8615 42.3926C56.0829 45.9439 55.0817 47.4977 53.5161 50.8718C51.2752 50.9614 46.6712 50.9441 46.5169 50.8921ZM13.4962 40.4249C13.9042 39.439 14.4651 37.853 14.9366 37.0496C17.2546 38.5059 26.3097 47.6529 27.0972 48.888C26.661 49.0508 24.7874 49.3307 21.6746 50.5809C19.7023 51.3719 17.84 52.1223 16.0412 51.5086C15.8618 51.4478 15.3836 51.0398 14.6745 50.4244C13.3794 49.3003 12.2065 48.4905 11.5245 48.0858C10.3613 47.3954 10.5425 47.541 13.4962 40.4249Z" fill="white"/>
<path d="M8.30998 40.313C8.0258 25.6541 8.34318 33.6391 6.65881 1.32385L4.03204 1.47874C3.82537 1.49107 3.66745 1.66773 3.67826 1.87424L5.07678 28.7065C5.35456 43.0393 5.43055 36.7583 4.56552 58.4116C4.55837 58.5916 4.67974 58.7514 4.85519 58.7928C6.13979 59.0966 6.67373 59.1647 7.57744 59.1647C7.54912 59.068 7.5179 60.1366 8.30998 40.313Z" fill="white"/>
<path d="M28.7934 49.479C28.7934 49.479 30.3294 48.9502 29.0667 47.5644C23.9128 41.816 20.7731 39.7335 17.7889 36.4595C16.5418 35.1094 14.748 36.8757 14.748 36.8757C26.411 47.243 24.0745 45.7423 26.1304 47.7273C26.4033 47.9908 26.6186 48.1988 26.9083 48.6505C26.8544 48.6705 26.616 48.7306 26.2862 48.8139C21.4338 50.0384 20.7058 50.8696 18.5391 51.3339C20.5611 52.9825 24.1266 50.9712 26.6686 50.0959C27.2764 49.8868 28.0815 49.6649 28.7934 49.479Z" fill="white"/>
<path d="M59.6102 35.8841C59.6101 35.884 17.2428 8.86516 17.2428 8.86516C15.8234 7.96008 14.2927 8.39564 13.0879 9.59206L57.404 38.9362C57.0377 39.9857 56.8915 41.19 56.6713 42.1902C55.8927 45.7223 54.8916 47.2678 53.326 50.6237C53.326 50.6237 57.3395 51.3953 58.5632 48.6791C61.4344 42.5685 60.7715 41.4159 61.4556 39.4865C61.3744 38.3982 61.5256 37.1058 59.6102 35.8841Z" fill="white"/>
<path d="M52.601 14.4422C52.599 14.4515 52.5975 14.4611 52.5961 14.4706L51.644 21.9214C51.644 21.9214 55.4111 24.2481 55.8844 20.4225C55.8846 20.4213 55.8847 20.4201 55.8849 20.4189L56.6642 14.1201C56.6656 14.1105 56.6671 14.1008 56.6692 14.0912C56.6989 13.9468 56.7275 13.8247 56.7524 13.7185C56.8817 13.1654 56.9088 13.0504 56.4973 12.5338C56.0647 11.9917 54.1267 10.5607 52.6828 9.63279C51.3199 8.71902 49.7013 9.81782 49.7013 9.81782C49.2973 10.1274 48.9362 10.3979 48.5449 10.522C49.5347 11.0573 52.0425 12.4297 52.4328 12.9188C52.8354 13.4241 52.8089 13.5365 52.6823 14.0776C52.6579 14.1817 52.6301 14.3012 52.601 14.4422Z" fill="white"/>
</svg>
