<svg width="216" height="50" viewBox="0 0 216 50" fill="none" xmlns="http://www.w3.org/2000/svg">
<path d="M123.428 0.088077C124.337 0.31541 125.019 0.989343 125.884 1.31568C126.034 1.36261 126.131 1.50774 126.117 1.66474C126.096 1.99841 126.166 2.33061 126.319 2.62835C126.471 3.10208 126.537 3.59855 126.51 4.09575C126.46 4.89948 126.313 5.12689 125.546 5.32335C125.316 5.34021 125.143 5.53828 125.161 5.76921C125.165 5.82861 125.181 5.88435 125.209 5.93715C125.209 6.02148 125.253 6.10141 125.271 6.18868C125.264 6.35294 125.297 6.51721 125.368 6.66688C125.561 6.71308 125.759 6.71308 125.951 6.66688C126.437 6.60528 126.897 6.40362 127.388 6.33534C127.585 6.19535 127.69 5.96068 127.664 5.72161C127.664 5.57414 127.664 5.42675 127.726 5.27942C127.734 5.18115 127.82 5.10781 127.918 5.11661C127.925 5.11735 127.934 5.11735 127.941 5.12028C128.028 5.13781 128.089 5.22075 128.082 5.31095C128.082 5.44515 128.082 5.58082 128.118 5.71502C128.103 5.88742 128.231 6.03915 128.404 6.05455C128.425 6.05536 128.447 6.05536 128.469 6.05308C128.554 6.02742 128.649 6.06042 128.702 6.13302C128.794 6.5379 129.113 6.41608 129.359 6.42048H138.739C138.996 6.42048 139.29 6.36622 139.259 6.78349C139.25 6.84436 139.289 6.90082 139.35 6.91182C139.358 6.91182 139.364 6.91256 139.371 6.91256C139.492 6.91256 139.498 6.81502 139.498 6.72775C139.498 6.28035 139.498 5.83822 139.498 5.39089C139.498 5.22442 139.457 5.02129 139.732 5.01623C140.008 5.00882 139.984 5.20029 139.984 5.37915C139.984 5.70336 139.984 6.02236 139.984 6.34209C139.984 6.55696 139.984 6.84003 140.395 6.74836C140.653 6.68669 140.697 6.9317 140.623 7.12302C140.518 7.41049 140.623 7.48455 140.892 7.48455H143.127C143.164 7.49335 143.202 7.49335 143.237 7.48455C143.851 7.14069 144.465 7.48455 145.08 7.40543C145.38 7.35549 145.453 7.55283 145.46 7.81749C145.496 7.98916 145.388 8.15783 145.215 8.19743C145.173 8.20542 145.128 8.20696 145.086 8.19743C144.643 8.1615 144.195 8.19002 143.759 8.28462C143.532 8.35722 143.329 8.08743 143.059 8.10576C142.145 8.08523 141.229 8.11163 140.316 8.18496C140.083 8.22749 139.844 8.22749 139.61 8.18496C139.333 8.12915 139.179 8.13655 139.199 8.47316C139.217 8.81122 138.996 8.71443 138.824 8.71443C137.707 8.71443 136.588 8.71443 135.478 8.71443C135.142 8.69609 134.812 8.7753 134.52 8.9403C134.474 8.95496 134.432 8.98136 134.397 9.01582C134.142 9.48875 133.777 9.89429 133.336 10.2001C133.265 10.2867 133.23 10.4003 133.244 10.5118C133.227 11.1842 133.337 11.8538 133.569 12.483C133.655 12.7763 133.643 12.9677 133.292 12.9992C132.954 12.9992 132.678 13.2742 132.678 13.613C132.615 14.0259 132.529 14.4351 132.42 14.8399C132.331 15.351 132.006 15.791 131.543 16.0241C131.36 16.1297 131.197 16.2676 131.065 16.429C130.779 16.8161 130.315 17.026 129.836 16.987C129.242 16.8975 128.657 16.7554 128.087 16.5639C127.257 16.1972 126.46 15.7785 125.668 15.3363C125.46 15.2204 125.275 15.0664 125.263 15.491C125.167 15.6817 125.111 15.8899 125.098 16.104C125.246 16.2669 125.434 16.39 125.643 16.4604C126 16.7435 126.195 17.1835 126.165 17.6374C126.165 18.5541 126.067 19.4795 125.993 20.3824C125.993 20.6515 125.993 20.9272 125.95 21.1977C125.882 21.8432 125.62 22.4511 125.195 22.941C125.014 23.1044 124.747 23.1243 124.545 22.9901C124.366 22.9475 124.182 22.7393 123.999 22.9292C123.836 23.1192 123.778 23.3766 123.838 23.6171C123.928 24.2662 124.218 24.8704 124.666 25.3485C125.926 26.8408 126.894 28.5568 127.522 30.4063C127.73 30.9402 127.927 31.4748 128.134 32.002C128.162 32.178 128.302 32.3166 128.48 32.3408C128.638 32.3731 128.741 32.5286 128.707 32.6884C128.705 32.698 128.704 32.7053 128.701 32.7141C128.711 33.0463 128.791 33.3726 128.935 33.6726C129.064 34.1661 129.08 34.6802 128.982 35.181C128.913 36.5061 128.764 37.824 128.54 39.1286C128.53 39.4145 128.571 39.6976 128.657 39.9697C128.82 40.626 128.731 41.3176 128.405 41.9086C128.375 41.9519 128.358 42.001 128.355 42.0516C128.355 42.9286 128.16 43.8072 128.355 44.6777C128.39 44.8603 128.468 45.029 128.583 45.1749L129.768 46.5631C129.967 46.8044 130.245 46.9664 130.553 47.0229C130.929 47.105 131.286 47.2554 131.61 47.4651C132.013 47.7306 132.176 48.2432 132.001 48.6934C131.934 48.8159 131.803 48.8885 131.664 48.8841C130.156 49.1334 128.613 49.0388 127.147 48.6076C126.748 48.4866 126.329 48.4617 125.918 48.5328C125.54 48.6054 125.15 48.582 124.783 48.4653C124.553 48.4191 124.4 48.2006 124.433 47.9682C124.474 47.0903 124.683 46.228 125.047 45.4264C125.142 45.144 125.162 44.842 125.108 44.5494C125.108 43.9348 125.022 43.321 124.979 42.7086C125.01 42.5334 124.939 42.3566 124.796 42.254C124.724 42.202 124.679 42.1206 124.672 42.0325C124.291 40.4808 124.085 38.8924 124.058 37.2945C124.037 37.0187 124.13 36.7482 124.317 36.545C124.427 36.427 124.493 36.2722 124.5 36.1101C124.537 35.7896 124.568 35.4956 124.579 35.1458C124.672 34.7329 124.41 34.3223 123.998 34.2306C123.895 34.2078 123.792 34.2049 123.69 34.2248C123.149 34.2871 122.627 34.0114 122.37 33.531C121.756 32.5124 121.039 31.5305 120.369 30.531C120.273 30.3352 120.077 30.2112 119.859 30.2112C119.372 30.2501 118.92 29.9554 118.761 29.4926C118.688 29.3268 118.582 29.1729 118.429 28.8796C118.28 29.508 117.943 30.0786 117.466 30.5171C117.297 30.7767 117.169 31.059 117.085 31.3582C116.651 32.277 116.358 33.2546 116.213 34.2615C116.205 34.6494 115.963 34.9941 115.6 35.1327C115.422 35.2259 115.292 35.3879 115.239 35.5808C115.097 36.0222 114.803 36.3977 114.409 36.6434C114.241 36.8112 114.122 37.0239 114.065 37.2579C113.808 37.6444 113.741 38.1284 113.881 38.5698C113.916 38.7297 113.906 38.8947 113.85 39.048C113.754 39.4205 113.625 39.7858 113.464 40.1348C113.009 41.0272 112.624 41.9556 112.31 42.9082C112.241 43.2734 111.969 43.5646 111.61 43.657C111.513 43.6812 111.431 43.7494 111.389 43.8418C110.726 45.073 110.484 46.4869 110.702 47.8685C110.726 47.9763 110.767 48.0797 110.824 48.1758C110.959 48.4266 111.018 48.7118 110.997 48.9978C110.965 49.5375 110.904 49.6108 110.383 49.6432C109.473 49.7642 108.549 49.7436 107.645 49.5794C107.392 49.5486 107.201 49.3381 107.19 49.0844C107.083 48.4354 107.116 47.7702 107.294 47.1381C107.634 45.9105 107.909 44.7188 108.24 43.5037C108.299 43.4054 108.299 43.2829 108.24 43.184C107.681 42.521 107.977 41.8229 108.204 41.1519C108.345 40.8094 108.525 40.4802 108.738 40.1758C108.926 39.895 109.027 39.5679 109.032 39.2298C109.056 38.5559 109.269 37.9003 109.646 37.34C109.94 36.8128 110.303 36.3155 110.591 35.7934C110.881 35.272 111.536 34.6333 111.444 33.8662C111.249 32.1788 111.684 30.5699 111.937 28.9566C112.017 28.7204 111.964 28.4586 111.796 28.2753C111.7 28.1887 111.658 28.0575 111.685 27.9306C111.733 27.7018 111.694 27.4628 111.575 27.2626C111.433 26.9913 111.863 26.7713 111.752 26.5564C111.565 26.3855 111.482 26.1281 111.531 25.881C111.61 25.683 111.648 25.4754 111.716 25.2657C111.747 25.1161 111.857 24.9966 112.004 24.9533C112.416 24.9049 112.33 24.646 112.323 24.3387C112.323 23.1112 111.949 21.8836 111.98 20.6061C111.901 20.0788 112.248 19.5794 112.771 19.4716C112.839 19.4716 112.907 19.435 113.072 19.3858L111.808 19.11C111.585 19.0858 111.425 18.885 111.447 18.6627C111.449 18.6553 111.45 18.6458 111.451 18.6355C111.451 18.3143 111.486 17.9932 111.557 17.6786C111.755 16.7186 111.848 15.7426 111.838 14.7635C111.832 14.652 111.832 14.542 111.838 14.432C111.832 14.094 112.101 13.8131 112.441 13.8057C112.485 13.8043 112.531 13.8079 112.575 13.8182C112.897 13.8277 113.216 13.8043 113.534 13.7507C113.757 13.7383 113.928 13.5476 113.916 13.324C113.913 13.277 113.902 13.2302 113.883 13.1861C113.645 11.9277 113.702 10.6327 114.049 9.39914C114.303 8.20967 114.93 7.13387 115.841 6.32867C116.515 5.76481 117.384 5.48754 118.26 5.555C118.446 5.57488 118.617 5.66574 118.738 5.80581C118.812 5.88134 118.886 6.00454 119.015 5.9114C119.158 5.8476 119.229 5.68554 119.181 5.53814C119.125 5.37094 119.083 5.20593 119.027 5.0402C118.616 3.34547 119.271 1.56934 120.685 0.546339C121.07 0.315339 121.482 0.13266 121.912 0H123.397L123.428 0.088077ZM130.751 10.522C130.259 10.522 129.854 10.522 129.45 10.522C129.161 10.522 129.069 10.7236 129.211 10.9708C129.352 11.215 129.481 11.4372 129.609 11.677C129.739 11.9161 129.763 11.9044 129.892 11.7187L130.751 10.522ZM130.475 10.2653C130.935 10.2653 130.985 10.2095 131.003 9.85909C131.041 9.68741 130.93 9.51808 130.758 9.47914C130.707 9.46888 130.654 9.47035 130.604 9.48362C130.192 9.48362 130.12 9.57675 130.126 10.0974C130.144 10.3929 130.378 10.1971 130.475 10.2653Z" fill="white"/>
<path d="M0.214844 28.8817C0.57271 27.5118 1.81278 26.5578 3.22958 26.5608H10.6318C12.0787 26.5358 13.3386 27.5398 13.6392 28.9558C13.7324 29.3914 13.7067 29.428 13.2594 29.428H4.11398C3.57938 29.428 3.57938 29.428 3.57938 29.9567C3.57938 31.8025 3.57938 33.644 3.57938 35.4817C3.57938 36.0947 3.57938 36.0947 4.16238 36.0947H13.1611C13.7382 36.0947 13.7749 36.1314 13.6334 36.7085C13.3254 38.0659 12.1227 39.0324 10.7301 39.0405C8.23824 39.0405 5.74638 39.0405 3.25451 39.0405C1.91911 39.0779 0.721577 38.2273 0.313844 36.9535C0.313844 36.8743 0.246377 36.7943 0.215577 36.7144V28.8816H0.214844V28.8817Z" fill="white"/>
<path d="M139.112 36.2114C140.75 36.2114 142.384 36.2114 144.023 36.2114C144.361 36.2114 144.49 36.119 144.471 35.7685C144.471 35.3138 144.471 34.8547 144.471 34.3935C144.471 34.2409 144.471 34.0811 144.243 34.1001C143.194 34.1911 142.138 34.1001 141.088 34.1368C139.676 34.1368 138.262 34.1368 136.847 34.1368C135.365 34.2145 134.054 33.1871 133.777 31.7293C133.599 30.751 133.611 29.7463 133.814 28.7724C134.136 27.4693 135.296 26.5497 136.638 26.5321C139.241 26.5321 141.844 26.5321 144.446 26.5321C145.808 26.5636 146.981 27.5067 147.3 28.8341C147.405 29.2696 147.38 29.3123 146.932 29.3123H137.037C136.916 29.2851 136.795 29.3629 136.767 29.4853C136.76 29.5175 136.76 29.5499 136.767 29.582C136.767 30.0903 136.767 30.6007 136.767 31.103C136.748 31.2211 136.828 31.3318 136.945 31.3494C136.969 31.3553 136.995 31.3553 137.02 31.3494H137.314C139.719 31.3494 142.127 31.3861 144.527 31.3494C146.174 31.3237 147.531 32.6364 147.559 34.2827C147.559 34.3128 147.559 34.3451 147.559 34.3765C147.528 34.9346 147.559 35.4927 147.559 36.0515C147.545 37.6568 146.26 38.9621 144.655 38.9987C141.966 38.9987 139.275 38.9987 136.583 38.9987C135.207 38.9643 134.032 37.9933 133.742 36.6462C133.656 36.2553 133.679 36.2172 134.091 36.2172H139.113L139.112 36.2114Z" fill="white"/>
<path d="M22.1582 39.0222H18.2921C16.6443 39.0706 15.2715 37.7755 15.2224 36.1277C15.2202 36.0698 15.2202 36.011 15.2224 35.9524C15.2224 33.8338 15.2224 31.7144 15.2224 29.5952C15.2026 27.9613 16.4991 26.6171 18.1322 26.5804C20.8199 26.5518 23.5084 26.5518 26.1981 26.5804C27.8188 26.6178 29.1124 27.9473 29.1007 29.5703C29.1007 31.7394 29.1007 33.9079 29.1007 36.0764C29.0845 37.6934 27.7836 39.0024 26.1666 39.0289C24.8349 39.0346 23.4965 39.0222 22.1582 39.0222ZM22.1582 36.2421C23.2883 36.2421 24.411 36.2421 25.5396 36.2421C25.7383 36.3044 25.9487 36.1944 26.0104 35.9972C26.0316 35.9268 26.0331 35.852 26.0125 35.7801C26.0125 33.7891 26.0125 31.793 26.0125 29.796C26.0705 29.5973 25.9561 29.3906 25.7574 29.3326C25.6936 29.3143 25.6246 29.3127 25.5587 29.3297C23.2912 29.3297 21.0237 29.3297 18.7578 29.3297C18.427 29.3297 18.3038 29.4089 18.3038 29.7667C18.3038 31.7701 18.3038 33.7788 18.3038 35.7874C18.2503 35.9869 18.3691 36.1915 18.5678 36.245C18.6367 36.2648 18.7079 36.2618 18.7761 36.2421C19.912 36.2113 21.0413 36.2113 22.1641 36.2113L22.1582 36.2421Z" fill="white"/>
<path d="M59.437 34.6633C59.437 34.4301 59.437 34.2966 59.437 34.1603C59.437 32.6613 59.437 31.158 59.437 29.662C59.3886 28.1235 60.5106 26.7991 62.0329 26.5915C62.5375 26.5057 62.5734 26.535 62.5734 27.0697C62.5734 30.8617 62.5734 34.6567 62.5734 38.451C62.5734 38.5236 62.5734 38.5984 62.5734 38.671C62.605 38.8243 62.5052 38.9731 62.3519 39.0047C62.3137 39.0127 62.2749 39.0127 62.236 39.0025C61.4316 39.0025 60.6212 39.0025 59.8175 39.0025C59.6174 38.9951 59.4296 38.9005 59.3012 38.7451L54.0293 33.7533L51.0644 30.9366C50.9903 30.8611 50.9302 30.7144 50.8062 30.7775C50.73 30.8595 50.7058 30.9776 50.7446 31.0847C50.7446 33.5399 50.7446 35.9943 50.7446 38.4503C50.7446 39.0332 50.7446 39.0332 50.18 39.0641H48.1728C47.6141 39.0641 47.6074 39.0641 47.6074 38.5111C47.6074 36.5135 47.6074 34.5203 47.6074 32.5271C47.6074 30.7172 47.6074 28.9088 47.6074 27.1004C47.6074 26.6157 47.6074 26.6025 48.112 26.5959C49.9446 26.5637 51.7068 27.3035 52.9674 28.6345C54.9679 30.5925 57.0374 32.4765 59.1054 34.3986L59.437 34.6633Z" fill="white"/>
<path d="M92.3074 32.805C92.3074 30.8829 92.3074 28.9616 92.3074 27.0402C92.2487 26.8283 92.3741 26.6098 92.5875 26.5511C92.6535 26.532 92.7246 26.532 92.7913 26.5489C95.633 26.5489 98.4703 26.5489 101.312 26.5489C101.831 26.5511 102.349 26.604 102.859 26.7081C104.338 27.011 105.068 27.8088 105.284 29.373C105.413 30.4195 105.382 31.4792 105.19 32.5154C104.994 33.6587 104.165 34.2468 103.195 34.6883C102.815 34.8599 102.803 34.8482 103.091 35.1745L106.417 39.0289C106.519 39.081 106.573 39.1939 106.554 39.3054C106.472 39.3854 106.354 39.4117 106.246 39.3737H103.133C102.669 39.381 102.227 39.1661 101.943 38.7958L97.1113 32.8058L96.9522 32.6027C96.8305 32.4436 96.8671 32.3556 97.0755 32.3512H100.757C100.906 32.3512 101.06 32.3512 101.206 32.3512C101.676 32.4237 102.113 32.1018 102.187 31.6332C102.196 31.5679 102.199 31.5027 102.194 31.436C102.259 30.9564 102.245 30.4702 102.158 29.9942C102.113 29.7038 101.893 29.4736 101.605 29.4164C101.364 29.3592 101.115 29.332 100.867 29.3372C99.2043 29.3372 97.5477 29.3372 95.8845 29.3372C95.6858 29.2785 95.4767 29.3922 95.4196 29.5909C95.3991 29.6584 95.3991 29.7296 95.4174 29.797C95.4174 32.7003 95.4174 35.5977 95.4174 38.5009C95.4174 39.0231 95.4174 39.0231 94.9129 39.0231H92.8331C92.3286 39.0231 92.3235 39.0231 92.3235 38.5009C92.3089 36.6014 92.303 34.7021 92.3074 32.805Z" fill="white"/>
<path d="M162.548 32.7735C162.548 30.8631 162.548 28.9557 162.548 27.0461C162.488 26.8335 162.61 26.6135 162.821 26.5526C162.889 26.5343 162.959 26.5321 163.026 26.5481C165.874 26.5481 168.729 26.5481 171.582 26.5481C172.103 26.5503 172.621 26.6061 173.13 26.7147C174.458 26.8863 175.467 27.9914 175.517 29.329C175.658 30.3989 175.627 31.4849 175.425 32.5461C175.223 33.6695 174.401 34.2526 173.443 34.6874C173.056 34.8663 173.044 34.8473 173.331 35.1663L176.266 38.4259L176.53 38.7383C176.593 38.7816 176.628 38.8534 176.621 38.9304C176.585 39.0389 176.482 39.0097 176.395 39.0097H173.233C172.759 39.0199 172.304 38.8095 172.006 38.4398L167.29 32.7367C167.217 32.6501 167.078 32.5518 167.157 32.4221C167.251 32.3429 167.382 32.315 167.5 32.3539C168.764 32.3539 170.028 32.3539 171.293 32.3539C172.103 32.3539 172.312 32.1779 172.41 31.3851C172.482 30.9069 172.466 30.4185 172.367 29.9426C172.32 29.6976 172.127 29.5063 171.882 29.4586C171.643 29.3897 171.395 29.3574 171.146 29.3589C169.469 29.3589 167.8 29.3589 166.124 29.3589C165.93 29.3113 165.734 29.4285 165.685 29.6222C165.668 29.6852 165.67 29.7513 165.689 29.8135C165.689 32.7043 165.689 35.5892 165.689 38.4808C165.689 39.0454 165.689 39.0454 165.142 39.0454C164.424 39.0454 163.707 39.0454 162.987 39.0454C162.791 39.096 162.59 38.9794 162.54 38.7821C162.523 38.7198 162.523 38.6546 162.541 38.5914C162.554 36.6455 162.548 34.708 162.548 32.7735Z" fill="white"/>
<path d="M200.5 32.8292C200.5 30.9093 200.5 28.9873 200.5 27.0652C200.5 26.5739 200.5 26.5607 200.998 26.5607H212.076C212.587 26.5607 212.653 26.6531 212.549 27.1744C212.313 28.4607 211.18 29.3847 209.873 29.359C207.952 29.359 206.032 29.359 204.11 29.359C203.76 29.359 203.613 29.4463 203.643 29.8137C203.672 30.1855 203.672 30.5603 203.643 30.9299C203.643 31.2987 203.736 31.4204 204.116 31.4204C206.295 31.4204 208.481 31.4204 210.66 31.4204C211.274 31.4204 211.274 31.4519 211.157 32.0349C210.928 33.3058 209.817 34.2299 208.524 34.2203C207.039 34.2203 205.547 34.2203 204.062 34.2203C203.883 34.1675 203.694 34.2679 203.642 34.4477C203.622 34.5144 203.622 34.5855 203.644 34.6508C203.668 35.0468 203.668 35.445 203.644 35.841C203.644 36.1857 203.75 36.289 204.087 36.289C206.542 36.289 209.046 36.289 211.527 36.289C211.784 36.289 212.049 36.289 212.307 36.289C212.465 36.2502 212.624 36.3485 212.662 36.5069C212.676 36.5648 212.672 36.6257 212.65 36.6821C212.505 37.9787 211.449 38.9848 210.146 39.064C207.076 39.064 203.97 39.064 200.889 39.064C200.513 39.064 200.502 38.8615 200.502 38.5903C200.504 36.6565 200.504 34.7366 200.5 32.8292Z" fill="white"/>
<path d="M78.4667 32.7793C78.4667 30.8859 78.4667 28.9873 78.4667 27.0901C78.4667 26.5607 78.4667 26.5607 78.9713 26.5607H90.0497C90.5652 26.5607 90.5843 26.5607 90.4985 27.0901C90.2968 28.4109 89.1455 29.3796 87.8086 29.3481C85.8755 29.3481 83.9424 29.3481 82.0079 29.3481C81.6463 29.3481 81.5291 29.4654 81.5547 29.8144C81.5789 30.2111 81.5789 30.6101 81.5547 31.0061C81.5547 31.3177 81.6588 31.405 81.9602 31.405C84.1631 31.405 86.3734 31.405 88.5756 31.405C89.1901 31.405 89.2209 31.4659 89.086 32.0188C88.8491 33.3058 87.7044 34.2217 86.3961 34.1733C84.9243 34.1733 83.4452 34.1733 81.9712 34.1733C81.6397 34.1733 81.5283 34.2716 81.5546 34.5957C81.5788 34.9228 81.5546 35.3401 81.5546 35.7133C81.5546 36.2289 81.5546 36.2347 82.0577 36.2347H89.0493C89.4357 36.2347 89.8163 36.2347 90.2028 36.2347C90.4793 36.2347 90.6024 36.3029 90.5716 36.6218C90.4374 37.9653 89.3183 38.9943 87.969 39.0147C84.955 39.0147 81.9469 39.0147 78.9336 39.0147C78.7253 39.0756 78.5075 38.956 78.4474 38.7464C78.4254 38.6738 78.4269 38.5968 78.4489 38.5242C78.4718 36.622 78.4667 34.6992 78.4667 32.7793Z" fill="white"/>
<path d="M185.239 32.7668C185.239 30.858 185.239 28.9484 185.239 27.0394C185.185 26.8253 185.312 26.609 185.526 26.5525C185.594 26.5356 185.664 26.5356 185.73 26.5554C186.461 26.5554 187.19 26.5554 187.922 26.5554C188.128 26.5026 188.339 26.6251 188.393 26.8319C188.409 26.8935 188.409 26.9588 188.395 27.0218C188.395 28.2502 188.395 29.477 188.395 30.7406C188.31 30.9114 188.378 31.1168 188.549 31.2018C188.717 31.2862 188.923 31.2187 189.009 31.0478C190.77 29.6619 192.539 28.2744 194.294 26.8803C194.559 26.6566 194.898 26.5408 195.245 26.5554C196.387 26.5554 197.528 26.5554 198.664 26.5554C198.786 26.5554 198.977 26.4799 199.025 26.6346C199.01 26.7718 198.917 26.8891 198.786 26.9346L192.587 32.329C192.25 32.6245 192.256 32.6245 192.587 32.8886L199.984 38.6657C200.077 38.7383 200.247 38.7882 200.192 38.9298C200.137 39.069 199.972 38.9972 199.854 38.9972H195.914C195.502 39.0023 195.102 38.8638 194.778 38.6107L189.217 34.3794L188.892 34.1352C188.793 34.0348 188.647 33.9981 188.51 34.0362C188.392 34.111 188.34 34.2606 188.389 34.3919C188.389 35.7427 188.389 37.0935 188.389 38.4428C188.389 38.9965 188.389 38.9965 187.83 38.9965H185.785C185.246 38.9965 185.246 38.9965 185.246 38.467C185.238 36.5743 185.235 34.6735 185.239 32.7668Z" fill="white"/>
<path d="M31.3184 31.5033C31.3184 30.0007 31.3184 28.5018 31.3184 27.0036C31.3184 26.5681 31.3616 26.5357 31.7966 26.6113C33.382 26.8188 34.5414 28.2121 34.4608 29.8086C34.4608 31.7799 34.4608 33.7495 34.4608 35.7207C34.4608 36.2421 34.4608 36.248 34.9704 36.248C37.1916 36.248 39.4078 36.248 41.6239 36.248C41.8314 36.3067 42.0492 36.1842 42.1086 35.9767C42.1277 35.907 42.1277 35.8337 42.1086 35.7625C42.1086 32.8733 42.1086 29.9861 42.1086 27.0954C42.1086 26.5615 42.1086 26.5615 42.6491 26.557H44.6548C45.2686 26.557 45.2686 26.557 45.2686 27.1708C45.2686 29.9611 45.2686 32.75 45.2686 35.5374C45.27 35.8345 45.2509 36.1321 45.215 36.427C45.042 37.8666 43.8533 38.9702 42.4034 39.0361C39.6659 39.0361 36.9218 39.0721 34.1842 39.0361C32.579 38.9628 31.3184 37.6348 31.3287 36.028C31.3184 34.5041 31.3184 33.0016 31.3184 31.5033Z" fill="white"/>
<path d="M71.5475 26.5608H77.071C77.544 26.5608 77.5492 26.5608 77.4948 27.0462C77.3195 28.3552 76.2063 29.3357 74.8856 29.3416C74.0694 29.3416 73.2473 29.3416 72.4305 29.3416C72.0616 29.3416 71.9692 29.4654 71.9758 29.8145C71.9758 32.7053 71.9758 35.5903 71.9758 38.4817C71.9758 39.0281 71.9758 39.0347 71.417 39.0347H69.374C68.8335 39.0347 68.8335 39.0346 68.8335 38.5001C68.8335 35.6364 68.8335 32.7852 68.8335 29.9501C68.8335 29.3364 68.8335 29.3364 68.2198 29.3364H63.8506C63.3584 29.3364 63.346 29.3364 63.4201 28.826C63.61 27.5162 64.7356 26.546 66.0601 26.5497H71.5292L71.5475 26.5608Z" fill="white"/>
<path d="M155.875 26.5608H161.007C161.455 26.5608 161.523 26.6532 161.45 27.0946C161.243 28.3743 160.152 29.3188 158.859 29.3416C158.177 29.3416 157.496 29.3416 156.816 29.3416C156.261 29.3416 156.255 29.3416 156.255 29.8813C156.255 32.7464 156.255 35.6108 156.255 38.4759C156.255 39.0215 156.255 39.0215 155.702 39.0215H153.696C153.169 39.0215 153.169 39.0215 153.169 38.4759C153.169 35.6108 153.169 32.7464 153.169 29.8813C153.169 29.3416 153.169 29.3416 152.609 29.3416H148.558C148.11 29.3416 148.055 29.2683 148.142 28.8385C148.345 27.4738 149.549 26.4853 150.927 26.5557H155.876V26.5608H155.875Z" fill="white"/>
<path d="M181.988 32.7852C181.988 34.6926 181.988 36.6014 181.988 38.5132C181.988 39.0111 181.988 39.0221 181.498 39.0221C180.742 39.0221 179.987 39.0221 179.226 39.0221C179.051 39.0646 178.876 38.9568 178.833 38.783C178.821 38.7324 178.821 38.6789 178.833 38.6283C178.833 34.7372 178.833 30.8513 178.833 26.9676C178.793 26.7806 178.911 26.6002 179.098 26.5598C179.148 26.5488 179.201 26.5488 179.25 26.5613C180.006 26.5613 180.761 26.5613 181.516 26.5613C181.722 26.5078 181.933 26.6317 181.988 26.8363C182.005 26.9016 182.005 26.9697 181.988 27.035C181.982 28.9425 181.988 30.8631 181.988 32.7852Z" fill="white"/>
<path d="M190.636 44.3682C190.636 45.3443 190.636 46.3262 190.636 47.3023C190.636 47.677 190.468 47.7269 190.162 47.7269C189.968 47.7856 189.763 47.677 189.704 47.482C189.685 47.4203 189.682 47.3529 189.696 47.2906C189.696 46.0615 189.696 44.8354 189.696 43.651C189.649 43.4589 189.767 43.2682 189.957 43.219C190.014 43.2036 190.074 43.2051 190.132 43.2212C191.445 43.2645 191.065 43.0107 191.679 44.1665L192.961 46.5837C192.961 45.6207 192.961 44.6637 192.961 43.6994C192.961 43.5447 192.887 43.3371 193.078 43.2689C193.302 43.1853 193.548 43.1853 193.771 43.2689C193.868 43.3319 193.913 43.4537 193.882 43.5644C193.882 44.8398 193.882 46.1165 193.882 47.3881C193.906 47.548 193.796 47.6998 193.637 47.724C193.607 47.7299 193.578 47.7299 193.551 47.7261C192.426 47.7878 192.432 47.7929 191.912 46.8044C191.494 45.9954 191.059 45.1917 190.636 44.3682Z" fill="white"/>
<path d="M151.463 45.4616C151.463 44.8471 151.463 44.2349 151.463 43.6203C151.411 43.4414 151.513 43.2528 151.692 43.2023C151.747 43.1862 151.806 43.1832 151.861 43.1964C152.651 43.1686 153.443 43.1899 154.23 43.2647C154.676 43.2867 155.021 43.6672 154.997 44.1146C154.997 44.1161 154.997 44.1161 154.997 44.1175C155.096 44.5224 154.984 44.9506 154.696 45.2521C154.574 45.3562 154.642 45.4126 154.734 45.4735C155.181 45.9289 155.278 46.6256 154.973 47.1866C154.844 47.4329 154.599 47.5995 154.323 47.6287C153.46 47.7101 152.595 47.7314 151.733 47.6896C151.488 47.6896 151.468 47.518 151.468 47.3281C151.465 46.7179 151.463 46.096 151.463 45.4616ZM153.206 46.8784H153.758C154.127 46.8784 154.152 46.621 154.152 46.3387C154.152 46.0564 154.103 45.8174 153.746 45.8056C153.39 45.7924 153.059 45.8056 152.709 45.8056C152.563 45.7696 152.418 45.859 152.384 46.0043C152.373 46.0454 152.373 46.0879 152.384 46.1282C152.384 47.014 152.309 46.8836 153.12 46.8974H153.193L153.206 46.8784ZM153.157 44.0668C152.359 44.0668 152.366 44.0668 152.395 44.773C152.366 44.9131 152.455 45.0481 152.594 45.0803C152.627 45.0877 152.662 45.0877 152.696 45.0803C152.991 45.0803 153.31 45.0803 153.579 45.0803C153.821 45.1119 154.044 44.9424 154.076 44.7004C154.084 44.6424 154.08 44.5845 154.065 44.528C154.082 44.2948 153.908 44.091 153.675 44.0734C153.636 44.0697 153.599 44.0726 153.562 44.08H153.157V44.0668H153.157Z" fill="white"/>
<path d="M138.505 45.3018C139.53 45.3018 139.53 45.3018 139.525 46.3145C139.531 46.5214 139.511 46.7267 139.469 46.927C139.41 47.3068 139.113 47.606 138.733 47.6647C138.024 47.7967 137.298 47.7967 136.589 47.6647C136.118 47.5965 135.75 47.2196 135.7 46.7436C135.553 45.9141 135.553 45.0635 135.7 44.2349C135.752 43.7443 136.137 43.3556 136.627 43.3013C137.336 43.173 138.06 43.173 138.769 43.3013C139.273 43.4246 139.594 43.9181 139.506 44.4307C139.501 44.5326 139.427 44.6169 139.327 44.6389C139.017 44.7753 138.656 44.6331 138.519 44.3243C138.514 44.3111 138.509 44.2994 138.506 44.2884C138.448 44.1623 138.329 44.0743 138.192 44.0559C137.786 43.9672 137.365 43.9782 136.964 44.0875C136.778 44.1329 136.641 44.2936 136.627 44.4857C136.52 45.134 136.52 45.7948 136.627 46.4438C136.649 46.6608 136.816 46.8338 137.032 46.8669C137.407 46.9615 137.798 46.9615 138.173 46.8669C138.473 46.7914 138.659 46.4944 138.596 46.193C138.588 46.0808 138.491 45.9964 138.38 46.0068C138.374 46.0068 138.369 46.0068 138.364 46.0075C138.205 46.0075 138.039 46.0075 137.88 46.0075C137.716 46.0559 137.546 45.9628 137.498 45.8014C137.483 45.7501 137.481 45.6965 137.493 45.646C137.462 45.4794 137.57 45.3196 137.737 45.2873C137.787 45.2777 137.837 45.2814 137.887 45.2961C138.081 45.3135 138.291 45.3018 138.505 45.3018Z" fill="white"/>
<path d="M171.681 47.7444C171.421 47.7416 171.159 47.7269 170.901 47.6961C170.284 47.6961 169.784 47.1952 169.784 46.5799C169.784 46.5748 169.784 46.5696 169.784 46.566C169.668 45.8452 169.668 45.1096 169.784 44.3865C169.921 43.5769 170.115 43.3804 170.927 43.2579C171.477 43.164 172.039 43.164 172.591 43.2579C173.168 43.2799 173.625 43.7529 173.628 44.3315C173.743 45.0656 173.743 45.8136 173.628 46.5469C173.504 47.3514 173.173 47.633 172.29 47.6998C172.08 47.6998 171.866 47.6998 171.675 47.6998L171.681 47.7444ZM172.731 45.4484C172.731 45.1675 172.731 44.8771 172.731 44.5955C172.759 44.3286 172.566 44.091 172.298 44.0623C172.294 44.0623 172.287 44.0623 172.283 44.0602C171.94 44.014 171.593 44.014 171.252 44.0602C170.945 44.0623 170.701 44.311 170.702 44.616C170.702 44.6351 170.702 44.6564 170.705 44.6747C170.705 45.2335 170.705 45.7923 170.705 46.3445C170.677 46.632 170.889 46.8857 171.176 46.9114C171.189 46.9143 171.202 46.9143 171.214 46.9143C171.568 46.9722 171.929 46.9722 172.283 46.9143C172.542 46.8901 172.737 46.665 172.726 46.406C172.738 46.0687 172.731 45.7541 172.731 45.4182V45.4483H172.731V45.4484Z" fill="white"/>
<path d="M145.735 45.5474C145.721 45.1646 145.739 44.779 145.791 44.3991C145.932 43.6136 146.098 43.3981 146.89 43.2698C147.514 43.1642 148.154 43.1759 148.773 43.3064C149.193 43.3724 149.523 43.698 149.589 44.1175C149.792 45.04 149.792 45.9949 149.589 46.9152C149.506 47.2906 149.202 47.5744 148.822 47.6331C148.191 47.7709 147.539 47.7878 146.901 47.6836C146.103 47.5663 145.833 47.2157 145.773 46.3203C145.717 46.0695 145.735 45.8063 145.735 45.5474ZM146.675 45.4865C146.675 45.7549 146.675 46.0321 146.675 46.3006C146.648 46.6138 146.876 46.8866 147.187 46.9144C147.203 46.9152 147.218 46.9152 147.234 46.9152C147.575 46.9628 147.921 46.9628 148.264 46.9152C148.511 46.8961 148.702 46.69 148.7 46.4429C148.747 46.0492 148.772 45.6546 148.774 45.2586C148.774 44.1594 148.547 43.9628 147.437 44.031C147.314 44.0457 147.194 44.0655 147.074 44.0912C146.886 44.1227 146.742 44.2766 146.725 44.4666C146.668 44.8031 146.653 45.1448 146.675 45.4865Z" fill="white"/>
<path d="M197.442 47.7269C197.071 47.7541 196.697 47.7202 196.337 47.6278C195.853 47.4277 195.574 46.9158 195.669 46.4002C195.743 46.1415 195.962 46.2169 196.136 46.2169C196.307 46.2169 196.565 46.1415 196.571 46.4244C196.552 46.7104 196.766 46.9546 197.049 46.9753C197.114 46.9803 197.178 46.9715 197.24 46.9524C197.425 46.9524 197.615 46.9524 197.799 46.9524C198.254 46.9524 198.339 46.8432 198.345 46.3936C198.352 45.9457 198.254 45.8972 197.806 45.873C197.462 45.873 197.112 45.8297 196.768 45.7922C196.19 45.8348 195.687 45.3985 195.647 44.8191C195.64 44.7179 195.647 44.6167 195.669 44.5155C195.571 43.9068 195.984 43.3326 196.593 43.2336C196.709 43.2146 196.829 43.2146 196.946 43.2336C197.44 43.1874 197.938 43.208 198.425 43.2938C198.925 43.3934 199.256 43.8665 199.18 44.368C199.189 44.4832 199.11 44.5873 198.997 44.6079C198.677 44.7201 198.327 44.5536 198.213 44.2346C198.213 44.2317 198.213 44.2288 198.21 44.2272C198.048 43.9948 197.751 43.9053 197.487 44.0065C197.196 43.9024 196.872 43.997 196.683 44.2382C196.533 44.4729 196.601 44.7846 196.835 44.9349C196.926 44.9921 197.035 45.0207 197.143 45.0112C197.609 45.0544 198.081 45.0911 198.542 45.171C198.969 45.2026 199.288 45.5751 199.256 46.0005C199.256 46.0078 199.255 46.0166 199.254 46.0239C199.254 46.0738 199.254 46.1236 199.254 46.1721C199.254 47.4606 199.008 47.7187 197.726 47.7304H197.431L197.442 47.7269Z" fill="white"/>
<path d="M158.599 43.2264C159.417 43.2264 159.293 43.1721 159.521 43.8409C159.907 44.9644 160.288 46.0871 160.657 47.2172C160.705 47.3653 160.909 47.561 160.657 47.6894C160.369 47.8104 160.038 47.7422 159.821 47.5177C159.736 46.8306 159.269 46.8365 158.765 46.9048C158.656 46.9164 158.544 46.9164 158.434 46.9048C158.119 46.7779 157.762 46.9334 157.638 47.2472C157.608 47.3176 157.594 47.3931 157.593 47.4702C157.355 47.743 156.967 47.828 156.636 47.6777C156.582 47.5904 156.582 47.4819 156.636 47.3953C157.066 46.1061 157.507 44.8177 157.925 43.5226C158.047 43.0791 158.38 43.2895 158.599 43.2264ZM158.711 44.2465H158.631C158.452 44.7811 158.28 45.32 158.103 45.8531C158.035 46.0563 158.103 46.1289 158.305 46.1289H159.078C159.275 46.1289 159.31 46.038 159.257 45.873L158.711 44.2465Z" fill="white"/>
<path d="M209.203 45.419C209.203 44.8044 209.203 44.1906 209.203 43.5761C209.16 43.4023 209.268 43.2256 209.443 43.1831C209.492 43.1714 209.547 43.1714 209.596 43.1831C210.39 43.1831 211.184 43.1831 211.978 43.1831C212.291 43.1831 212.353 43.3305 212.353 43.6003C212.353 43.8702 212.304 44.0374 211.991 44.0308C211.518 44.0308 211.052 44.0308 210.579 44.0308C210.413 43.9832 210.239 44.077 210.19 44.2427C210.174 44.3014 210.174 44.3637 210.193 44.4216C210.201 44.5214 210.201 44.6204 210.193 44.7172C210.157 44.8609 210.248 45.0076 210.393 45.0427C210.434 45.053 210.476 45.053 210.517 45.0427C210.977 45.0427 211.432 45.0427 211.892 45.0427C212.041 45.0112 212.189 45.1058 212.219 45.2561C212.229 45.2972 212.227 45.339 212.218 45.38C212.218 45.6125 212.168 45.7614 211.892 45.7614C211.432 45.7614 210.977 45.7614 210.517 45.7614C210.365 45.7305 210.216 45.831 210.186 45.9835C210.179 46.0202 210.179 46.0561 210.186 46.092C210.155 46.8532 210.15 46.8532 210.904 46.8532C211.279 46.8532 211.647 46.8532 212.021 46.8532C212.395 46.8532 212.359 47.0563 212.359 47.2961C212.359 47.5352 212.31 47.6987 212.015 47.6943C211.199 47.6943 210.382 47.6943 209.56 47.6943C209.395 47.7288 209.238 47.6247 209.203 47.4611C209.195 47.4215 209.195 47.3783 209.203 47.3387C209.211 46.725 209.203 46.0812 209.203 45.419Z" fill="white"/>
<path d="M184.775 45.4726C184.775 44.8602 184.775 44.2457 184.775 43.6319C184.729 43.4581 184.834 43.2798 185.007 43.2352C185.058 43.2205 185.112 43.2205 185.16 43.233C185.942 43.233 186.722 43.233 187.499 43.233C187.806 43.233 187.868 43.3796 187.868 43.6444C187.868 43.9076 187.806 44.091 187.481 44.0799C187.008 44.0799 186.543 44.0799 186.069 44.0799C185.913 44.0315 185.748 44.1195 185.7 44.275C185.684 44.3315 185.684 44.3916 185.7 44.4488C185.711 44.5338 185.711 44.6211 185.7 44.7054C185.658 45.0259 185.817 45.1124 186.113 45.1C186.542 45.1 186.977 45.1 187.412 45.1C187.571 45.0582 187.731 45.152 187.771 45.3112C187.782 45.3544 187.784 45.3992 187.775 45.444C187.813 45.6126 187.707 45.779 187.538 45.818C187.494 45.8282 187.447 45.8282 187.401 45.818C186.939 45.818 186.485 45.818 186.026 45.818C185.881 45.782 185.735 45.8708 185.699 46.0167C185.688 46.06 185.688 46.1054 185.699 46.1494C185.699 47.0332 185.626 46.904 186.444 46.9158C186.798 46.9158 187.162 46.9158 187.518 46.9158C187.874 46.9158 187.861 47.1065 187.861 47.3521C187.861 47.597 187.861 47.765 187.53 47.765C186.725 47.765 185.922 47.765 185.118 47.765C184.954 47.7936 184.797 47.6872 184.767 47.5237C184.76 47.4856 184.76 47.446 184.767 47.4078C184.775 46.739 184.775 46.1054 184.775 45.4726Z" fill="white"/>
<path d="M205.645 46.7318C205.988 45.6626 206.307 44.6638 206.633 43.6621C206.757 43.2925 207.157 43.093 207.527 43.2162C207.551 43.2266 207.574 43.2338 207.597 43.2449C207.769 43.3248 207.69 43.4539 207.659 43.5654C207.5 44.0875 207.326 44.6016 207.161 45.1237C206.921 45.8666 206.676 46.6042 206.448 47.3515C206.416 47.5949 206.194 47.7644 205.953 47.7321H205.951C204.767 47.7005 205.055 47.9037 204.723 46.8308C204.392 45.7566 204.061 44.7812 203.749 43.7604C203.699 43.6086 203.484 43.3864 203.79 43.258C204.1 43.1106 204.472 43.2287 204.637 43.5286C204.938 44.4299 205.252 45.3399 205.528 46.2463C205.553 46.3688 205.595 46.5155 205.645 46.7318Z" fill="white"/>
<path d="M180.176 45.4191C180.176 44.8046 180.176 44.1908 180.176 43.5762C180.128 43.4024 180.229 43.2235 180.402 43.1751C180.453 43.1634 180.506 43.1604 180.557 43.1714C181.314 43.1714 182.07 43.1714 182.822 43.1714C183.136 43.1714 183.196 43.3174 183.19 43.588C183.183 43.8586 183.154 44.0309 182.835 44.0184C182.386 44.0184 181.944 44.0184 181.497 44.0184C181.214 44.0184 181.072 44.0976 181.104 44.3983C181.114 44.4716 181.114 44.5458 181.104 44.6212C181.048 44.982 181.226 45.0678 181.551 45.0554C181.877 45.0437 182.295 45.0554 182.668 45.0554C183.043 45.0554 183.043 45.2226 183.05 45.4983C183.091 45.6721 182.982 45.8482 182.808 45.89C182.761 45.9009 182.71 45.9025 182.664 45.89C182.251 45.89 181.846 45.89 181.435 45.89C181.286 45.8554 181.138 45.9494 181.105 46.099C181.096 46.1357 181.096 46.1767 181.104 46.2163C181.104 46.5705 181.104 46.9335 181.104 47.2973C181.104 47.6581 180.925 47.6955 180.643 47.6881C180.36 47.6837 180.153 47.6882 180.165 47.3083C180.194 46.7142 180.176 46.0813 180.176 45.4191Z" fill="white"/>
<path d="M175.487 45.4792C175.487 44.8647 175.487 44.2516 175.487 43.6371C175.442 43.4626 175.547 43.2858 175.722 43.2433C175.769 43.2301 175.819 43.2279 175.868 43.2374C176.61 43.2374 177.353 43.2374 178.101 43.2374C178.288 43.2016 178.469 43.3211 178.506 43.5074C178.517 43.5616 178.516 43.6158 178.5 43.6687C178.542 43.8564 178.423 44.0449 178.235 44.0866C178.185 44.0962 178.133 44.0962 178.083 44.0866C177.648 44.0866 177.218 44.0866 176.781 44.0866C176.625 44.0404 176.462 44.1307 176.417 44.2868C176.402 44.3418 176.402 44.4027 176.421 44.4591C176.428 44.5838 176.428 44.7099 176.421 44.8346C176.396 44.9681 176.486 45.0949 176.62 45.1184C176.652 45.125 176.684 45.1228 176.715 45.1155C177.139 45.1155 177.555 45.1155 177.98 45.1155C178.403 45.1155 178.361 45.2753 178.366 45.5584C178.412 45.7329 178.309 45.9111 178.135 45.9573C178.082 45.9712 178.027 45.9719 177.974 45.9573C177.561 45.9573 177.157 45.9573 176.746 45.9573C176.597 45.9236 176.449 46.016 176.414 46.1656C176.405 46.2067 176.405 46.2477 176.414 46.2888C176.414 46.6635 176.414 47.0324 176.414 47.4057C176.414 47.7803 176.199 47.7627 175.948 47.7561C175.696 47.7511 175.469 47.7561 175.475 47.4123C175.5 46.7435 175.487 46.1128 175.487 45.4792Z" fill="white"/>
<path d="M162.395 45.4865C162.395 44.872 162.395 44.2208 162.395 43.5886C162.395 43.2337 162.59 43.2212 162.849 43.2265C163.107 43.2338 163.34 43.2265 163.333 43.6011C163.333 44.5537 163.333 45.5107 163.333 46.4619C163.333 46.7626 163.412 46.8909 163.733 46.8732C164.162 46.8732 164.597 46.8732 165.032 46.8732C165.346 46.8732 165.359 47.0507 165.359 47.2854C165.359 47.5171 165.359 47.7386 165.032 47.732C164.266 47.732 163.498 47.732 162.725 47.732C162.572 47.7569 162.428 47.6528 162.403 47.4988C162.397 47.4621 162.398 47.4247 162.407 47.3895C162.4 46.7508 162.395 46.1172 162.395 45.4865Z" fill="white"/>
<path d="M141.334 45.4865C141.334 44.872 141.334 44.2208 141.334 43.5886C141.334 43.2374 141.519 43.214 141.783 43.2212C142.045 43.2264 142.286 43.2212 142.28 43.5828C142.28 44.5457 142.28 45.5158 142.28 46.4794C142.235 46.6466 142.337 46.8182 142.504 46.8615C142.556 46.877 142.614 46.8754 142.667 46.8608C143.102 46.8608 143.533 46.8608 143.968 46.8608C144.275 46.8608 144.306 47.0324 144.3 47.2657C144.293 47.4989 144.3 47.7269 143.975 47.7203C143.208 47.7203 142.439 47.7203 141.666 47.7203C141.513 47.7467 141.366 47.6448 141.34 47.4907C141.333 47.4549 141.334 47.4167 141.341 47.3815C141.341 46.7508 141.334 46.1172 141.334 45.4865Z" fill="white"/>
<path d="M202.009 45.4726C202.009 46.0871 202.009 46.7009 202.009 47.3132C202.009 47.6762 201.831 47.7136 201.543 47.7136C201.254 47.7136 201.057 47.7136 201.065 47.3331C201.065 46.0857 201.065 44.8353 201.065 43.5828C201.065 43.2015 201.279 43.214 201.543 43.2088C201.806 43.2014 202.016 43.2513 202.004 43.6077C201.997 44.2391 202.009 44.8536 202.009 45.4726Z" fill="white"/>
<path d="M215.783 27.6665C215.783 28.3448 215.235 28.8934 214.556 28.8934C213.878 28.8934 213.328 28.3448 213.328 27.6665C213.328 26.989 213.878 26.4382 214.556 26.4382C215.235 26.4382 215.783 26.9889 215.783 27.6665ZM215.256 28.342C215.314 28.2606 215.368 28.177 215.416 28.089C215.626 27.6599 215.496 27.1415 215.109 26.8621C214.727 26.5864 214.201 26.6399 213.88 26.9846C213.493 27.3483 213.473 27.96 213.838 28.3464C214.201 28.7358 214.812 28.7549 215.2 28.3897L215.256 28.342Z" fill="white"/>
<path d="M215.213 28.3963C214.983 28.3955 214.781 28.2467 214.71 28.0275C214.685 27.9137 214.587 27.8317 214.47 27.8266C214.316 27.8266 214.379 28.0033 214.36 28.103C214.341 28.1998 214.36 28.3304 214.237 28.3347C214.115 28.3422 214.096 28.1881 214.096 28.0891C214.096 27.8199 214.096 27.5441 214.096 27.2736C214.096 27.1446 214.096 26.9671 214.256 26.948C214.52 26.8667 214.804 26.907 215.036 27.0588C215.177 27.1578 215.215 27.35 215.122 27.4944C214.79 27.8501 215.048 28.1074 215.251 28.3421L215.213 28.3963Z" fill="white"/>
</svg>
