<svg width="123" height="35" viewBox="0 0 123 35" fill="none" xmlns="http://www.w3.org/2000/svg">
<path d="M0 17.1547C0 26.5917 0.0233397 34.3093 0.0544592 34.3093C0.101139 34.3093 6.44175 33.1346 7.21974 32.979L7.62429 32.9012V26.5995V20.3055H10.0361H12.4478V19.1541C12.4478 18.5239 12.4712 16.8824 12.5023 15.4976L12.549 12.9924H10.0905H7.62429V10.2306V7.46872H10.4639C12.0277 7.46872 13.3036 7.45316 13.3036 7.42982C13.3036 7.34424 13.926 0.700219 13.9649 0.365682L14.0116 3.00063e-05H7.0019H0V17.1547Z" fill="white"/>
<path d="M116.372 1.0039L110.164 1.51737V17.0149V32.5124L110.421 32.5513C110.646 32.5902 122.666 33.4616 122.908 33.4538C122.978 33.4538 123.001 32.6291 123.001 29.6028V25.7517H120.356H117.711V22.951V20.1502H119.967H122.223V16.8049V13.4595H119.889H117.555V11.2422V9.02496L117.734 8.99384C117.827 8.9705 118.621 8.93939 119.5 8.90827C120.379 8.88493 121.523 8.84603 122.052 8.81491L123.001 8.76823V4.62155V0.467089L122.791 0.474868C122.666 0.482647 119.78 0.716046 116.372 1.0039Z" fill="white"/>
<path d="M76.5157 2.0768C76.5935 2.85479 77.4804 14.5791 77.4649 14.5946C77.4571 14.6102 76.3134 11.8017 74.9208 8.35517C73.536 4.90868 72.369 2.05346 72.3379 1.999C72.2912 1.91342 70.144 2.3102 66.6197 3.05707L66.2852 3.12709V16.5007V29.8743H69.7472H73.2093L73.1704 29.3142C73.0926 28.2717 72.8047 19.6516 72.8358 19.3092C72.8592 19.0058 73.0926 19.5349 75.302 24.8719C76.6402 28.1161 77.776 30.8001 77.8072 30.8468C77.8538 30.8935 78.9353 30.8235 80.7713 30.6679C82.3662 30.5278 83.6732 30.4034 83.6732 30.3956C83.681 30.3878 83.6421 24.7785 83.5876 17.9322C83.5332 11.0859 83.4865 4.62082 83.4865 3.55498L83.4787 1.63335H79.9778H76.469L76.5157 2.0768Z" fill="white"/>
<path d="M21.7445 2.10782C17.0922 2.41902 14.5326 5.60099 13.7235 12.0583C13.5601 13.3964 13.4901 17.9399 13.6068 19.527C13.9958 24.6773 15.3884 28.0226 17.8624 29.7264C19.1927 30.6367 21.1922 31.1268 23.1683 31.0101C25.4166 30.8856 26.9493 30.2477 28.3263 28.8706C29.4544 27.7425 30.069 26.6845 30.6603 24.8795C31.485 22.3589 31.8584 18.5934 31.6717 14.6723C31.4616 10.2845 30.8003 7.55374 29.4388 5.46095C28.1396 3.4693 26.0857 2.27898 23.6895 2.13116C23.3083 2.10782 22.9037 2.08448 22.7948 2.06892C22.6859 2.06114 22.2191 2.0767 21.7445 2.10782ZM22.8415 8.22281C23.4094 8.83742 23.6506 11.2881 23.6506 16.5317C23.6506 22.989 23.2461 25.6731 22.3591 25.0974C21.9779 24.8406 21.6901 23.5881 21.55 21.5109C21.4489 19.9938 21.4489 13.0463 21.55 11.5915C21.6979 9.53761 21.9624 8.40175 22.3591 8.12945C22.577 7.97385 22.6159 7.98163 22.8415 8.22281Z" fill="white"/>
<path d="M32.6758 16.2526V30.4198H36.2467H39.8099L39.8566 29.4317C39.8877 28.8793 39.95 27.09 39.9967 25.4406C40.0433 23.7913 40.1056 22.3442 40.1367 22.2275C40.1756 22.0642 40.5101 23.1144 41.5371 26.6621C42.2839 29.2216 42.9141 31.3456 42.9452 31.3767C43.0075 31.4467 50.305 30.871 50.3828 30.7932C50.4061 30.7621 49.597 28.218 48.5856 25.1216L46.7496 19.5046L47.1386 19.1623C48.4301 18.0342 49.4959 15.8558 49.7993 13.7008C49.9316 12.7594 49.846 10.4254 49.6437 9.56188C48.8657 6.17763 46.8041 3.54803 44.1745 2.56776C43.0308 2.14764 43.1242 2.15543 37.7171 2.12431L32.6758 2.09318V16.2526ZM40.6968 8.79945C41.2492 9.07174 41.7004 9.77193 41.9416 10.7366C42.105 11.3824 42.0817 13.4285 41.9027 14.082C41.5682 15.3112 40.9769 16.027 40.09 16.2993L39.9111 16.3459V12.456V8.55827L40.1678 8.61273C40.3001 8.63607 40.5412 8.72165 40.6968 8.79945Z" fill="white"/>
<path d="M50.0254 5.79568V9.41333H52.0093H53.9931V19.8384V30.2634H57.7275H61.4618V20.4608V10.6581H63.4846H65.5074V7.04047V3.42282L65.3362 3.3917C65.1728 3.3528 50.3366 2.17026 50.1265 2.17804C50.0487 2.17804 50.0254 2.95603 50.0254 5.79568Z" fill="white"/>
<path d="M85.1133 17.0765V31.197H88.9643H92.8154V17.0765V2.95603H88.9643H85.1133V17.0765Z" fill="white"/>
<path d="M101.605 3.93631C97.3887 4.16192 93.88 4.34864 93.81 4.34864C93.6777 4.35642 93.6699 4.58204 93.6699 8.01297V11.6695H95.6538H97.6377V21.9001V32.1306H101.411H105.184V21.4722V10.8137H107.285H109.385V7.15718C109.385 5.14219 109.362 3.50841 109.331 3.50841C109.292 3.51619 105.822 3.70291 101.605 3.93631Z" fill="white"/>
</svg>
