<svg width="18" height="16" viewBox="0 0 18 16" fill="none" xmlns="http://www.w3.org/2000/svg">
<path d="M17.4307 3.31676C17.1558 2.68028 16.7594 2.1035 16.2638 1.61872C15.7678 1.13249 15.1829 0.746089 14.5411 0.480532C13.8756 0.204072 13.1618 0.0625647 12.4411 0.0642234C11.4301 0.0642234 10.4437 0.341079 9.58643 0.864028C9.38135 0.989126 9.18652 1.12653 9.00195 1.27623C8.81738 1.12653 8.62256 0.989126 8.41748 0.864028C7.56025 0.341079 6.57383 0.0642234 5.56279 0.0642234C4.83477 0.0642234 4.1293 0.203677 3.46279 0.480532C2.81885 0.747133 2.23848 1.13063 1.74014 1.61872C1.24384 2.10295 0.847386 2.67986 0.573242 3.31676C0.288184 3.97916 0.142578 4.68258 0.142578 5.40651C0.142578 6.08942 0.282031 6.80104 0.558887 7.52496C0.790625 8.12994 1.12285 8.75748 1.54736 9.39117C2.22002 10.394 3.14492 11.4399 4.29336 12.5002C6.19648 14.2577 8.08115 15.4717 8.16113 15.521L8.64717 15.8327C8.8625 15.9701 9.13936 15.9701 9.35469 15.8327L9.84072 15.521C9.9207 15.4697 11.8033 14.2577 13.7085 12.5002C14.8569 11.4399 15.7818 10.394 16.4545 9.39117C16.879 8.75748 17.2133 8.12994 17.443 7.52496C17.7198 6.80104 17.8593 6.08942 17.8593 5.40651C17.8613 4.68258 17.7157 3.97916 17.4307 3.31676Z" fill="#DADADA"/>
</svg>
