<svg width="22" height="20" viewBox="0 0 22 20" fill="none" xmlns="http://www.w3.org/2000/svg">
<path d="M20.7708 8.6875H20.3468C20.3468 8.6875 18.1168 4.41305 18.0953 4.38473C17.9842 4.19875 17.7816 4.07386 17.5492 4.07386H12.2727V1.60795C12.2727 1.1687 11.9431 0.8125 11.5038 0.8125H10.4697C10.0303 0.8125 9.64773 1.1687 9.64773 1.60795V4.07386H4.50376C4.27141 4.07386 4.06873 4.19875 3.95768 4.38473C3.9362 4.41297 1.70615 8.6875 1.70615 8.6875H1.36172C0.924216 8.6875 0.5 9.00568 0.5 9.44318V9.96023C0.5 12.1348 2.26289 13.8977 4.4375 13.8977C6.61211 13.8977 8.375 12.1348 8.375 9.96023V9.44318C8.375 9.00568 8.08331 8.6875 7.64581 8.6875H7.22183L5.48241 5.34659H9.64773V16.5625H5.21967C4.78042 16.5625 4.39773 16.9186 4.39773 17.358V18.392C4.39773 18.8314 4.78042 19.1875 5.21967 19.1875H16.7538C17.1931 19.1875 17.5227 18.8314 17.5227 18.392V17.358C17.5227 16.9186 17.193 16.5625 16.7538 16.5625H12.2727V5.34659H16.5706L14.8311 8.6875H14.4867C14.0492 8.6875 13.625 9.00568 13.625 9.44318V9.96023C13.625 12.1348 15.3879 13.8977 17.5625 13.8977C19.7371 13.8977 21.5 12.1348 21.5 9.96023V9.44318C21.5 9.00568 21.2083 8.6875 20.7708 8.6875ZM5.78699 8.6875H3.14099L4.46399 6.14658L5.78699 8.6875ZM16.266 8.6875L17.589 6.14658L18.912 8.6875H16.266Z" fill="#DADADA"/>
</svg>
