<svg width="20" height="20" viewBox="0 0 20 20" fill="none" xmlns="http://www.w3.org/2000/svg">
<path d="M20 2.9891H5.25L4.8279 0.533936H1.09058C0.487319 0.533936 0 1.02216 0 1.62497V2.71555H2.99004L4.91395 13.9062C4.95652 14.1526 5.19339 14.3523 5.44384 14.3523H18.3637C18.9669 14.3523 19.4552 13.8645 19.4552 13.2604V12.1707H6.8288L6.56295 10.6245H16.5457C17.7505 10.6245 18.8881 9.66074 19.087 8.47325L20 2.9891Z" fill="#6EC045"/>
<path d="M8.81796 19.4665C9.85975 19.4665 10.7043 18.622 10.7043 17.5802C10.7043 16.5384 9.85975 15.6938 8.81796 15.6938C7.77618 15.6938 6.93164 16.5384 6.93164 17.5802C6.93164 18.622 7.77618 19.4665 8.81796 19.4665Z" fill="#6EC045"/>
<path d="M13.4785 17.5796C13.4785 18.6209 14.3223 19.4655 15.3635 19.4655C16.4056 19.4655 17.2512 18.6209 17.2512 17.5796C17.2512 16.5384 16.4056 15.6929 15.3635 15.6929C14.3223 15.6929 13.4785 16.5389 13.4785 17.5796Z" fill="#6EC045"/>
</svg>
