<svg width="10" height="10" viewBox="0 0 10 10" fill="none" xmlns="http://www.w3.org/2000/svg">
<path d="M9.35412 4.57626C8.84901 3.92863 8.19473 3.39294 7.46206 3.02714C6.71414 2.65372 5.90953 2.45998 5.0696 2.44982C5.04646 2.44918 4.95358 2.44918 4.93045 2.44982C4.09053 2.45999 3.2859 2.65372 2.53799 3.02714C1.80531 3.39294 1.15107 3.92861 0.645943 4.57626C0.451352 4.82575 0.451352 5.17424 0.645943 5.42373C1.15105 6.07136 1.80531 6.60705 2.53799 6.97286C3.2859 7.34627 4.09051 7.54002 4.93045 7.55018C4.95358 7.55081 5.04646 7.55081 5.0696 7.55018C5.90952 7.54 6.71414 7.34627 7.46206 6.97286C8.19473 6.60705 8.84899 6.07138 9.35412 5.42373C9.54871 5.1742 9.54871 4.82575 9.35412 4.57626ZM2.70155 6.64529C2.01741 6.30371 1.40643 5.80343 0.934647 5.19855C0.843469 5.08164 0.843469 4.91835 0.934647 4.80144C1.40641 4.19656 2.01739 3.69628 2.70155 3.3547C2.89586 3.25771 3.09428 3.17383 3.29638 3.10281C2.77645 3.57018 2.44888 4.2475 2.44888 4.99999C2.44888 5.75251 2.77647 6.42988 3.29645 6.89723C3.09435 6.82622 2.89588 6.7423 2.70155 6.64529ZM5.00004 7.18501C3.7952 7.18501 2.815 6.20481 2.815 4.99997C2.815 3.79513 3.7952 2.81495 5.00004 2.81495C6.20488 2.81495 7.18508 3.79514 7.18508 4.99999C7.18508 6.20483 6.20488 7.18501 5.00004 7.18501ZM9.06543 5.19853C8.59367 5.80342 7.98269 6.30369 7.29853 6.64527C7.10445 6.74216 6.90615 6.82567 6.7043 6.89662C7.22387 6.42927 7.55119 5.75216 7.55119 4.99997C7.55119 4.24738 7.22354 3.56997 6.70352 3.1026C6.90567 3.17363 7.10418 3.25762 7.29854 3.35467C7.98269 3.69625 8.59367 4.19652 9.06545 4.80141C9.15661 4.91834 9.15661 5.08162 9.06543 5.19853Z" fill="white" stroke="#838383" stroke-width="0.3"/>
<path d="M4.99952 4.06482C4.48392 4.06482 4.06445 4.48429 4.06445 4.99989C4.06445 5.5155 4.48392 5.93496 4.99952 5.93496C5.51513 5.93496 5.9346 5.5155 5.9346 4.99989C5.93461 4.48429 5.51515 4.06482 4.99952 4.06482ZM4.99952 5.56886C4.68581 5.56886 4.43055 5.31365 4.43055 4.99989C4.43055 4.68616 4.68577 4.43094 4.99952 4.43094C5.31324 4.43094 5.56848 4.68616 5.56848 4.99989C5.56849 5.31365 5.31324 5.56886 4.99952 5.56886Z" fill="white" stroke="#838383" stroke-width="0.3"/>
</svg>
