<svg width="12" height="8" viewBox="0 0 12 8" fill="none" xmlns="http://www.w3.org/2000/svg">
<path d="M0.517151 0.948091C0.953151 0.502091 1.56015 0.467091 2.09315 0.948091L6.00115 4.69509L9.90915 0.948091C10.4422 0.467091 11.0502 0.502091 11.4832 0.948091C11.9192 1.39309 11.8912 2.14509 11.4832 2.56309C11.0772 2.98109 6.78815 7.06509 6.78815 7.06509C6.68602 7.17094 6.5636 7.25513 6.42822 7.31264C6.29283 7.37014 6.14724 7.39977 6.00015 7.39977C5.85306 7.39977 5.70747 7.37014 5.57209 7.31264C5.4367 7.25513 5.31429 7.17094 5.21215 7.06509C5.21215 7.06509 0.925151 2.98109 0.517151 2.56309C0.108151 2.14509 0.0811512 1.39309 0.517151 0.948091Z" fill="#838383"/>
</svg>
