<svg width="13" height="9" viewBox="0 0 13 9" fill="none" xmlns="http://www.w3.org/2000/svg">
<path d="M10.0916 4.21658L7.78746 1.91241C7.6812 1.80239 7.6224 1.65504 7.62373 1.50209C7.62506 1.34914 7.68641 1.20284 7.79457 1.09468C7.90272 0.986528 8.04903 0.925179 8.20198 0.92385C8.35492 0.922521 8.50228 0.981318 8.61229 1.08758L11.9122 4.38749C11.9666 4.44154 12.0097 4.5058 12.0391 4.57658C12.0686 4.64736 12.0837 4.72326 12.0837 4.79991C12.0837 4.87656 12.0686 4.95246 12.0391 5.02324C12.0097 5.09402 11.9666 5.15828 11.9122 5.21233L8.61229 8.51224C8.55848 8.56796 8.49411 8.6124 8.42295 8.64297C8.35178 8.67354 8.27523 8.68963 8.19778 8.69031C8.12032 8.69098 8.04351 8.67622 7.97182 8.64689C7.90013 8.61756 7.835 8.57425 7.78023 8.51947C7.72546 8.4647 7.68214 8.39957 7.65281 8.32788C7.62348 8.25619 7.60872 8.17938 7.6094 8.10193C7.61007 8.02447 7.62616 7.94793 7.65673 7.87676C7.68731 7.80559 7.73175 7.74122 7.78746 7.68741L10.0916 5.38324H0.583333C0.428624 5.38324 0.280251 5.32179 0.170854 5.21239C0.0614583 5.10299 0 4.95462 0 4.79991C0 4.6452 0.0614583 4.49683 0.170854 4.38743C0.280251 4.27803 0.428624 4.21658 0.583333 4.21658H10.0916Z" fill="#838383"/>
</svg>
